<svg width="136" height="101" viewBox="0 0 136 101" fill="none" xmlns="http://www.w3.org/2000/svg">
<g opacity="0.8" clip-path="url(#clip0_2355_2274)">
<path d="M3.88043 30.1039C3.88043 31.213 3.04891 32.0448 1.94022 32.0448C0.831522 32.0448 0 31.213 0 30.1039C0 28.9949 0.831522 28.1631 1.94022 28.1631C3.04891 28.1631 3.88043 29.0873 3.88043 30.1039Z" fill="#FFCF2D"/>
<path d="M20.4185 30.1039C20.4185 31.213 19.587 32.0448 18.4783 32.0448C17.3696 32.0448 16.5381 31.213 16.5381 30.1039C16.5381 28.9949 17.3696 28.1631 18.4783 28.1631C19.4946 28.1631 20.4185 29.0873 20.4185 30.1039Z" fill="#FFCF2D"/>
<path d="M36.8643 30.1039C36.8643 31.213 36.0328 32.0448 34.9241 32.0448C33.8154 32.0448 32.9839 31.213 32.9839 30.1039C32.9839 28.9949 33.8154 28.1631 34.9241 28.1631C36.0328 28.1631 36.8643 29.0873 36.8643 30.1039Z" fill="#FFCF2D"/>
<path d="M53.4024 30.1039C53.4024 31.213 52.5709 32.0448 51.4622 32.0448C50.3535 32.0448 49.522 31.213 49.522 30.1039C49.522 28.9949 50.3535 28.1631 51.4622 28.1631C52.5709 28.1631 53.4024 29.0873 53.4024 30.1039Z" fill="#FFCF2D"/>
<path d="M69.94 30.1039C69.94 31.213 69.1085 32.0448 67.9998 32.0448C66.8911 32.0448 66.0596 31.213 66.0596 30.1039C66.0596 28.9949 66.8911 28.1631 67.9998 28.1631C69.0161 28.1631 69.94 29.0873 69.94 30.1039Z" fill="#FFCF2D"/>
<path d="M86.4781 30.1039C86.4781 31.213 85.6466 32.0448 84.5379 32.0448C83.4292 32.0448 82.5977 31.213 82.5977 30.1039C82.5977 28.9949 83.4292 28.1631 84.5379 28.1631C85.6466 28.1631 86.4781 29.0873 86.4781 30.1039Z" fill="#FFCF2D"/>
<path d="M102.924 30.1039C102.924 31.213 102.092 32.0448 100.984 32.0448C99.875 32.0448 99.0435 31.213 99.0435 30.1039C99.0435 28.9949 99.875 28.1631 100.984 28.1631C102.092 28.1631 102.924 29.0873 102.924 30.1039Z" fill="#FFCF2D"/>
<path d="M119.462 30.1039C119.462 31.213 118.63 32.0448 117.522 32.0448C116.413 32.0448 115.582 31.213 115.582 30.1039C115.582 28.9949 116.413 28.1631 117.522 28.1631C118.63 28.1631 119.462 29.0873 119.462 30.1039Z" fill="#FFCF2D"/>
<path d="M136 30.1039C136 31.213 135.169 32.0448 134.06 32.0448C132.951 32.0448 132.12 31.213 132.12 30.1039C132.12 28.9949 132.951 28.1631 134.06 28.1631C135.076 28.1631 136 29.0873 136 30.1039Z" fill="#FFCF2D"/>
<path d="M3.88043 43.8744C3.88043 44.9835 3.04891 45.8153 1.94022 45.8153C0.831522 45.8153 0 44.9835 0 43.8744C0 42.7654 0.831522 41.9336 1.94022 41.9336C3.04891 41.9336 3.88043 42.7654 3.88043 43.8744Z" fill="#FFCF2D"/>
<path d="M20.4185 43.8744C20.4185 44.9835 19.587 45.8153 18.4783 45.8153C17.3696 45.8153 16.5381 44.9835 16.5381 43.8744C16.5381 42.7654 17.3696 41.9336 18.4783 41.9336C19.4946 41.9336 20.4185 42.7654 20.4185 43.8744Z" fill="#FFCF2D"/>
<path d="M36.8643 43.8744C36.8643 44.9835 36.0328 45.8153 34.9241 45.8153C33.8154 45.8153 32.9839 44.9835 32.9839 43.8744C32.9839 42.7654 33.8154 41.9336 34.9241 41.9336C36.0328 41.9336 36.8643 42.7654 36.8643 43.8744Z" fill="#FFCF2D"/>
<path d="M53.4024 43.8744C53.4024 44.9835 52.5709 45.8153 51.4622 45.8153C50.3535 45.8153 49.522 44.9835 49.522 43.8744C49.522 42.7654 50.3535 41.9336 51.4622 41.9336C52.5709 41.9336 53.4024 42.7654 53.4024 43.8744Z" fill="#FFCF2D"/>
<path d="M69.94 43.8744C69.94 44.9835 69.1085 45.8153 67.9998 45.8153C66.8911 45.8153 66.0596 44.9835 66.0596 43.8744C66.0596 42.7654 66.8911 41.9336 67.9998 41.9336C69.0161 41.9336 69.94 42.7654 69.94 43.8744Z" fill="#FFCF2D"/>
<path d="M86.4781 43.8744C86.4781 44.9835 85.6466 45.8153 84.5379 45.8153C83.4292 45.8153 82.5977 44.9835 82.5977 43.8744C82.5977 42.7654 83.4292 41.9336 84.5379 41.9336C85.6466 41.9336 86.4781 42.7654 86.4781 43.8744Z" fill="#FFCF2D"/>
<path d="M102.924 43.8744C102.924 44.9835 102.092 45.8153 100.984 45.8153C99.875 45.8153 99.0435 44.9835 99.0435 43.8744C99.0435 42.7654 99.875 41.9336 100.984 41.9336C102.092 41.9336 102.924 42.7654 102.924 43.8744Z" fill="#FFCF2D"/>
<path d="M119.462 43.8744C119.462 44.9835 118.63 45.8153 117.522 45.8153C116.413 45.8153 115.582 44.9835 115.582 43.8744C115.582 42.7654 116.413 41.9336 117.522 41.9336C118.63 41.9336 119.462 42.7654 119.462 43.8744Z" fill="#FFCF2D"/>
<path d="M136 43.8744C136 44.9835 135.169 45.8153 134.06 45.8153C132.951 45.8153 132.12 44.9835 132.12 43.8744C132.12 42.7654 132.951 41.9336 134.06 41.9336C135.076 41.9336 136 42.7654 136 43.8744Z" fill="#FFCF2D"/>
<path d="M3.88043 2.65472C3.88043 3.76377 3.04891 4.59557 1.94022 4.59557C0.831522 4.59557 0 3.76377 0 2.65472C0 1.54566 0.831522 0.713867 1.94022 0.713867C3.04891 0.713867 3.88043 1.54566 3.88043 2.65472Z" fill="#FFCF2D"/>
<path d="M20.4185 2.65472C20.4185 3.76377 19.587 4.59557 18.4783 4.59557C17.3696 4.59557 16.5381 3.76377 16.5381 2.65472C16.5381 1.54566 17.3696 0.713867 18.4783 0.713867C19.4946 0.713867 20.4185 1.54566 20.4185 2.65472Z" fill="#FFCF2D"/>
<path d="M36.8643 2.65472C36.8643 3.76377 36.0328 4.59557 34.9241 4.59557C33.8154 4.59557 32.9839 3.76377 32.9839 2.65472C32.9839 1.54566 33.9078 0.713867 34.9241 0.713867C36.0328 0.713867 36.8643 1.54566 36.8643 2.65472Z" fill="#FFCF2D"/>
<path d="M53.4024 2.65472C53.4024 3.76377 52.5709 4.59557 51.4622 4.59557C50.3535 4.59557 49.522 3.76377 49.522 2.65472C49.522 1.54566 50.4459 0.713867 51.4622 0.713867C52.4785 0.713867 53.4024 1.54566 53.4024 2.65472Z" fill="#FFCF2D"/>
<path d="M69.94 2.65472C69.94 3.76377 69.1085 4.59557 67.9998 4.59557C66.8911 4.59557 66.0596 3.76377 66.0596 2.65472C66.0596 1.54566 66.8911 0.713867 67.9998 0.713867C69.0161 0.713867 69.94 1.54566 69.94 2.65472Z" fill="#FFCF2D"/>
<path d="M86.4781 2.65472C86.4781 3.76377 85.6466 4.59557 84.5379 4.59557C83.4292 4.59557 82.5977 3.76377 82.5977 2.65472C82.5977 1.54566 83.4292 0.713867 84.5379 0.713867C85.6466 0.713867 86.4781 1.54566 86.4781 2.65472Z" fill="#FFCF2D"/>
<path d="M102.924 2.65472C102.924 3.76377 102.092 4.59557 100.984 4.59557C99.875 4.59557 99.0435 3.76377 99.0435 2.65472C99.0435 1.54566 99.875 0.713867 100.984 0.713867C102.092 0.713867 102.924 1.54566 102.924 2.65472Z" fill="#FFCF2D"/>
<path d="M119.462 2.65472C119.462 3.76377 118.63 4.59557 117.522 4.59557C116.413 4.59557 115.582 3.76377 115.582 2.65472C115.582 1.54566 116.413 0.713867 117.522 0.713867C118.63 0.713867 119.462 1.54566 119.462 2.65472Z" fill="#FFCF2D"/>
<path d="M136 2.65472C136 3.76377 135.169 4.59557 134.06 4.59557C132.951 4.59557 132.12 3.76377 132.12 2.65472C132.12 1.54566 132.951 0.713867 134.06 0.713867C135.076 0.713867 136 1.54566 136 2.65472Z" fill="#FFCF2D"/>
<path d="M3.88044 16.4252C3.88044 17.5343 3.04891 18.3661 1.94022 18.3661C0.831522 18.3661 0 17.4419 0 16.4252C0 15.3162 0.831522 14.4844 1.94022 14.4844C3.04891 14.4844 3.88044 15.3162 3.88044 16.4252Z" fill="#FFCF2D"/>
<path d="M20.4185 16.4252C20.4185 17.5343 19.587 18.3661 18.4783 18.3661C17.3696 18.3661 16.5381 17.5343 16.5381 16.4252C16.5381 15.3162 17.3696 14.4844 18.4783 14.4844C19.4946 14.4844 20.4185 15.3162 20.4185 16.4252Z" fill="#FFCF2D"/>
<path d="M36.8643 16.4252C36.8643 17.5343 36.0328 18.3661 34.9241 18.3661C33.8154 18.3661 32.9839 17.5343 32.9839 16.4252C32.9839 15.3162 33.8154 14.4844 34.9241 14.4844C36.0328 14.4844 36.8643 15.3162 36.8643 16.4252Z" fill="#FFCF2D"/>
<path d="M53.4024 16.4252C53.4024 17.5343 52.5709 18.3661 51.4622 18.3661C50.3535 18.3661 49.522 17.5343 49.522 16.4252C49.522 15.3162 50.3535 14.4844 51.4622 14.4844C52.5709 14.4844 53.4024 15.3162 53.4024 16.4252Z" fill="#FFCF2D"/>
<path d="M69.94 16.4252C69.94 17.5343 69.1085 18.3661 67.9998 18.3661C66.8911 18.3661 66.0596 17.5343 66.0596 16.4252C66.0596 15.3162 66.8911 14.4844 67.9998 14.4844C69.0161 14.4844 69.94 15.3162 69.94 16.4252Z" fill="#FFCF2D"/>
<path d="M86.4781 16.4252C86.4781 17.5343 85.6466 18.3661 84.5379 18.3661C83.4292 18.3661 82.5977 17.5343 82.5977 16.4252C82.5977 15.3162 83.4292 14.4844 84.5379 14.4844C85.6466 14.4844 86.4781 15.3162 86.4781 16.4252Z" fill="#FFCF2D"/>
<path d="M102.924 16.4252C102.924 17.5343 102.092 18.3661 100.984 18.3661C99.875 18.3661 99.0435 17.5343 99.0435 16.4252C99.0435 15.3162 99.875 14.4844 100.984 14.4844C102.092 14.4844 102.924 15.3162 102.924 16.4252Z" fill="#FFCF2D"/>
<path d="M119.462 16.4252C119.462 17.5343 118.63 18.3661 117.522 18.3661C116.413 18.3661 115.582 17.5343 115.582 16.4252C115.582 15.3162 116.413 14.4844 117.522 14.4844C118.63 14.4844 119.462 15.3162 119.462 16.4252Z" fill="#FFCF2D"/>
<path d="M136 16.4252C136 17.5343 135.169 18.3661 134.06 18.3661C132.951 18.3661 132.12 17.5343 132.12 16.4252C132.12 15.3162 132.951 14.4844 134.06 14.4844C135.076 14.4844 136 15.3162 136 16.4252Z" fill="#FFCF2D"/>
<path d="M3.88044 57.5532C3.88044 58.6622 3.04891 59.494 1.94022 59.494C0.831522 59.494 0 58.6622 0 57.5532C0 56.4441 0.831522 55.6123 1.94022 55.6123C3.04891 55.6123 3.88044 56.5365 3.88044 57.5532Z" fill="#FFCF2D"/>
<path d="M20.4185 57.5532C20.4185 58.6622 19.587 59.494 18.4783 59.494C17.3696 59.494 16.5381 58.6622 16.5381 57.5532C16.5381 56.4441 17.3696 55.6123 18.4783 55.6123C19.4946 55.6123 20.4185 56.5365 20.4185 57.5532Z" fill="#FFCF2D"/>
<path d="M36.8643 57.5532C36.8643 58.6622 36.0328 59.494 34.9241 59.494C33.8154 59.494 32.9839 58.6622 32.9839 57.5532C32.9839 56.4441 33.8154 55.6123 34.9241 55.6123C36.0328 55.6123 36.8643 56.5365 36.8643 57.5532Z" fill="#FFCF2D"/>
<path d="M53.4024 57.5532C53.4024 58.6622 52.5709 59.494 51.4622 59.494C50.3535 59.494 49.522 58.6622 49.522 57.5532C49.522 56.4441 50.3535 55.6123 51.4622 55.6123C52.5709 55.6123 53.4024 56.5365 53.4024 57.5532Z" fill="#FFCF2D"/>
<path d="M69.94 57.5532C69.94 58.6622 69.1085 59.494 67.9998 59.494C66.8911 59.494 66.0596 58.6622 66.0596 57.5532C66.0596 56.4441 66.8911 55.6123 67.9998 55.6123C69.0161 55.6123 69.94 56.5365 69.94 57.5532Z" fill="#FFCF2D"/>
<path d="M86.4781 57.5532C86.4781 58.6622 85.6466 59.494 84.5379 59.494C83.4292 59.494 82.5977 58.6622 82.5977 57.5532C82.5977 56.4441 83.4292 55.6123 84.5379 55.6123C85.6466 55.6123 86.4781 56.5365 86.4781 57.5532Z" fill="#FFCF2D"/>
<path d="M102.924 57.5532C102.924 58.6622 102.092 59.494 100.984 59.494C99.875 59.494 99.0435 58.6622 99.0435 57.5532C99.0435 56.4441 99.875 55.6123 100.984 55.6123C102.092 55.6123 102.924 56.5365 102.924 57.5532Z" fill="#FFCF2D"/>
<path d="M119.462 57.5532C119.462 58.6622 118.63 59.494 117.522 59.494C116.413 59.494 115.582 58.6622 115.582 57.5532C115.582 56.4441 116.413 55.6123 117.522 55.6123C118.63 55.6123 119.462 56.5365 119.462 57.5532Z" fill="#FFCF2D"/>
<path d="M136 57.5532C136 58.6622 135.169 59.494 134.06 59.494C132.951 59.494 132.12 58.6622 132.12 57.5532C132.12 56.4441 132.951 55.6123 134.06 55.6123C135.076 55.6123 136 56.5365 136 57.5532Z" fill="#FFCF2D"/>
<path d="M3.88043 71.3237C3.88043 72.4327 3.04891 73.2645 1.94022 73.2645C0.831522 73.2645 0 72.4327 0 71.3237C0 70.2146 0.831522 69.3828 1.94022 69.3828C3.04891 69.3828 3.88043 70.2146 3.88043 71.3237Z" fill="#FFCF2D"/>
<path d="M20.4185 71.3237C20.4185 72.4327 19.587 73.2645 18.4783 73.2645C17.3696 73.2645 16.5381 72.4327 16.5381 71.3237C16.5381 70.2146 17.3696 69.3828 18.4783 69.3828C19.4946 69.3828 20.4185 70.2146 20.4185 71.3237Z" fill="#FFCF2D"/>
<path d="M36.8643 71.3237C36.8643 72.4327 36.0328 73.2645 34.9241 73.2645C33.8154 73.2645 32.9839 72.4327 32.9839 71.3237C32.9839 70.2146 33.8154 69.3828 34.9241 69.3828C36.0328 69.3828 36.8643 70.2146 36.8643 71.3237Z" fill="#FFCF2D"/>
<path d="M51.4622 73.2645C52.5337 73.2645 53.4024 72.3956 53.4024 71.3237C53.4024 70.2518 52.5337 69.3828 51.4622 69.3828C50.3906 69.3828 49.522 70.2518 49.522 71.3237C49.522 72.3956 50.3906 73.2645 51.4622 73.2645Z" fill="#FFCF2D"/>
<path d="M69.94 71.3237C69.94 72.4327 69.1085 73.2645 67.9998 73.2645C66.8911 73.2645 66.0596 72.4327 66.0596 71.3237C66.0596 70.2146 66.8911 69.3828 67.9998 69.3828C69.0161 69.3828 69.94 70.2146 69.94 71.3237Z" fill="#FFCF2D"/>
<path d="M86.4781 71.3237C86.4781 72.4327 85.6466 73.2645 84.5379 73.2645C83.4292 73.2645 82.5977 72.4327 82.5977 71.3237C82.5977 70.2146 83.4292 69.3828 84.5379 69.3828C85.6466 69.3828 86.4781 70.2146 86.4781 71.3237Z" fill="#FFCF2D"/>
<path d="M102.924 71.3237C102.924 72.4327 102.092 73.2645 100.984 73.2645C99.875 73.2645 99.0435 72.4327 99.0435 71.3237C99.0435 70.2146 99.875 69.3828 100.984 69.3828C102.092 69.3828 102.924 70.2146 102.924 71.3237Z" fill="#FFCF2D"/>
<path d="M117.522 73.2645C118.593 73.2645 119.462 72.3956 119.462 71.3237C119.462 70.2518 118.593 69.3828 117.522 69.3828C116.45 69.3828 115.582 70.2518 115.582 71.3237C115.582 72.3956 116.45 73.2645 117.522 73.2645Z" fill="#FFCF2D"/>
<path d="M136 71.3237C136 72.4327 135.169 73.2645 134.06 73.2645C132.951 73.2645 132.12 72.4327 132.12 71.3237C132.12 70.2146 132.951 69.3828 134.06 69.3828C135.076 69.3828 136 70.2146 136 71.3237Z" fill="#FFCF2D"/>
<path d="M3.88043 85.0951C3.88043 86.2042 3.04891 87.036 1.94022 87.036C0.831522 87.036 0 86.2042 0 85.0951C0 83.9861 0.831522 83.1543 1.94022 83.1543C3.04891 83.1543 3.88043 83.9861 3.88043 85.0951Z" fill="#FFCF2D"/>
<path d="M20.4185 85.0951C20.4185 86.2042 19.587 87.036 18.4783 87.036C17.3696 87.036 16.5381 86.2042 16.5381 85.0951C16.5381 83.9861 17.3696 83.1543 18.4783 83.1543C19.4946 83.1543 20.4185 83.9861 20.4185 85.0951Z" fill="#FFCF2D"/>
<path d="M36.8643 85.0951C36.8643 86.2042 36.0328 87.036 34.9241 87.036C33.8154 87.036 32.9839 86.2042 32.9839 85.0951C32.9839 83.9861 33.8154 83.1543 34.9241 83.1543C36.0328 83.1543 36.8643 83.9861 36.8643 85.0951Z" fill="#FFCF2D"/>
<path d="M53.4024 85.0951C53.4024 86.2042 52.5709 87.036 51.4622 87.036C50.3535 87.036 49.522 86.2042 49.522 85.0951C49.522 83.9861 50.3535 83.1543 51.4622 83.1543C52.5709 83.1543 53.4024 83.9861 53.4024 85.0951Z" fill="#FFCF2D"/>
<path d="M69.94 85.0951C69.94 86.2042 69.1085 87.036 67.9998 87.036C66.8911 87.036 66.0596 86.2042 66.0596 85.0951C66.0596 83.9861 66.8911 83.1543 67.9998 83.1543C69.0161 83.1543 69.94 83.9861 69.94 85.0951Z" fill="#FFCF2D"/>
<path d="M86.4781 85.0951C86.4781 86.2042 85.6466 87.036 84.5379 87.036C83.4292 87.036 82.5977 86.2042 82.5977 85.0951C82.5977 83.9861 83.4292 83.1543 84.5379 83.1543C85.6466 83.1543 86.4781 83.9861 86.4781 85.0951Z" fill="#FFCF2D"/>
<path d="M102.924 85.0951C102.924 86.2042 102.092 87.036 100.984 87.036C99.875 87.036 99.0435 86.2042 99.0435 85.0951C99.0435 83.9861 99.875 83.1543 100.984 83.1543C102.092 83.1543 102.924 83.9861 102.924 85.0951Z" fill="#FFCF2D"/>
<path d="M119.462 85.0951C119.462 86.2042 118.63 87.036 117.522 87.036C116.413 87.036 115.582 86.2042 115.582 85.0951C115.582 83.9861 116.413 83.1543 117.522 83.1543C118.63 83.1543 119.462 83.9861 119.462 85.0951Z" fill="#FFCF2D"/>
<path d="M136 85.0951C136 86.2042 135.169 87.036 134.06 87.036C132.951 87.036 132.12 86.2042 132.12 85.0951C132.12 83.9861 132.951 83.1543 134.06 83.1543C135.076 83.1543 136 83.9861 136 85.0951Z" fill="#FFCF2D"/>
<path d="M3.88043 98.7729C3.88043 99.8819 3.04891 100.714 1.94022 100.714C0.831522 100.714 0 99.8819 0 98.7729C0 97.6638 0.831522 96.832 1.94022 96.832C3.04891 96.832 3.88043 97.7562 3.88043 98.7729Z" fill="#FFCF2D"/>
<path d="M20.4185 98.7729C20.4185 99.8819 19.587 100.714 18.4783 100.714C17.3696 100.714 16.5381 99.8819 16.5381 98.7729C16.5381 97.6638 17.3696 96.832 18.4783 96.832C19.4946 96.832 20.4185 97.7562 20.4185 98.7729Z" fill="#FFCF2D"/>
<path d="M36.8643 98.7729C36.8643 99.8819 36.0328 100.714 34.9241 100.714C33.8154 100.714 32.9839 99.8819 32.9839 98.7729C32.9839 97.6638 33.8154 96.832 34.9241 96.832C36.0328 96.832 36.8643 97.7562 36.8643 98.7729Z" fill="#FFCF2D"/>
<path d="M53.4024 98.7729C53.4024 99.8819 52.5709 100.714 51.4622 100.714C50.3535 100.714 49.522 99.8819 49.522 98.7729C49.522 97.6638 50.3535 96.832 51.4622 96.832C52.5709 96.832 53.4024 97.7562 53.4024 98.7729Z" fill="#FFCF2D"/>
<path d="M69.94 98.7729C69.94 99.8819 69.1085 100.714 67.9998 100.714C66.8911 100.714 66.0596 99.8819 66.0596 98.7729C66.0596 97.6638 66.8911 96.832 67.9998 96.832C69.0161 96.832 69.94 97.7562 69.94 98.7729Z" fill="#FFCF2D"/>
<path d="M86.4781 98.7729C86.4781 99.8819 85.6466 100.714 84.5379 100.714C83.4292 100.714 82.5977 99.8819 82.5977 98.7729C82.5977 97.6638 83.4292 96.832 84.5379 96.832C85.6466 96.832 86.4781 97.7562 86.4781 98.7729Z" fill="#FFCF2D"/>
<path d="M102.924 98.7729C102.924 99.8819 102.092 100.714 100.984 100.714C99.875 100.714 99.0435 99.8819 99.0435 98.7729C99.0435 97.6638 99.875 96.832 100.984 96.832C102.092 96.832 102.924 97.7562 102.924 98.7729Z" fill="#FFCF2D"/>
<path d="M119.462 98.7729C119.462 99.8819 118.63 100.714 117.522 100.714C116.413 100.714 115.582 99.8819 115.582 98.7729C115.582 97.6638 116.413 96.832 117.522 96.832C118.63 96.832 119.462 97.7562 119.462 98.7729Z" fill="#FFCF2D"/>
<path d="M136 98.7729C136 99.8819 135.169 100.714 134.06 100.714C132.951 100.714 132.12 99.8819 132.12 98.7729C132.12 97.6638 132.951 96.832 134.06 96.832C135.076 96.832 136 97.7562 136 98.7729Z" fill="#FFCF2D"/>
</g>
<defs>
<clipPath id="clip0_2355_2274">
<rect width="136" height="100" fill="white" transform="translate(0 0.713867)"/>
</clipPath>
</defs>
</svg>
