<svg width="15" height="13" viewBox="0 0 15 13" fill="none" xmlns="http://www.w3.org/2000/svg">
<path d="M1.76075 3.67858C3.56349 2.17458 5.63889 1.33333 7.83368 1.33333C10.0285 1.33333 12.1039 2.17458 13.9066 3.67858C14.1893 3.91444 14.6097 3.87646 14.8456 3.59374C15.0815 3.31102 15.0435 2.89063 14.7608 2.65476C12.7562 0.982371 10.3866 0 7.83368 0C5.28071 0 2.91118 0.982371 0.906599 2.65476C0.62388 2.89063 0.585899 3.31102 0.821767 3.59374C1.05763 3.87646 1.47803 3.91444 1.76075 3.67858Z" fill="#424551"/>
<path fill-rule="evenodd" clip-rule="evenodd" d="M2.73418 4.45935C3.9332 3.44709 5.64329 2.5 7.58366 2.5C9.52403 2.5 11.2341 3.44709 12.4331 4.45935C13.0376 4.96963 13.5331 5.51363 13.8833 5.99952C14.0581 6.24199 14.2038 6.47992 14.3087 6.70052C14.4051 6.90315 14.5003 7.15887 14.5003 7.41667C14.5003 7.67447 14.4051 7.93019 14.3087 8.13282C14.2038 8.35342 14.0581 8.59134 13.8833 8.83381C13.5331 9.3197 13.0376 9.8637 12.4331 10.374C11.2341 11.3862 9.52403 12.3333 7.58366 12.3333C5.64329 12.3333 3.9332 11.3862 2.73418 10.374C2.12976 9.8637 1.63419 9.3197 1.28399 8.83381C1.10923 8.59134 0.963482 8.35342 0.858578 8.13282C0.762219 7.93019 0.666992 7.67447 0.666992 7.41667C0.666992 7.15887 0.762219 6.90315 0.858578 6.70052C0.963482 6.47992 1.10923 6.24199 1.28399 5.99952C1.63419 5.51363 2.12976 4.96963 2.73418 4.45935ZM2.00505 7.41667C2.0118 7.43924 2.02736 7.4859 2.0627 7.56021C2.1243 7.68976 2.22413 7.85786 2.36564 8.0542C2.64797 8.44591 3.0677 8.91059 3.5943 9.35517C4.65734 10.2526 6.07225 11 7.58366 11C9.09507 11 10.51 10.2526 11.573 9.35517C12.0996 8.91059 12.5193 8.44591 12.8017 8.0542C12.9432 7.85786 13.043 7.68976 13.1046 7.56021C13.14 7.4859 13.1555 7.43924 13.1623 7.41666C13.1555 7.39409 13.14 7.34743 13.1046 7.27312C13.043 7.14357 12.9432 6.97547 12.8017 6.77913C12.5193 6.38742 12.0996 5.92274 11.573 5.47816C11.3494 5.28939 11.1103 5.10726 10.8579 4.93733C10.9506 5.24756 11.0003 5.5763 11.0003 5.91667C11.0003 7.80364 9.47063 9.33333 7.58366 9.33333C5.69669 9.33333 4.16699 7.80364 4.16699 5.91667C4.16699 5.5763 4.21676 5.24756 4.30942 4.93733C4.05706 5.10726 3.8179 5.28939 3.5943 5.47816C3.0677 5.92274 2.64797 6.38742 2.36564 6.77913C2.22413 6.97547 2.1243 7.14357 2.0627 7.27312C2.02736 7.34743 2.0118 7.39409 2.00505 7.41667ZM5.50033 5.91667C5.50033 4.76607 6.43307 3.83333 7.58366 3.83333C8.73425 3.83333 9.66699 4.76607 9.66699 5.91667C9.66699 7.06726 8.73425 8 7.58366 8C6.43307 8 5.50033 7.06726 5.50033 5.91667Z" fill="#424551"/>
</svg>
