<svg width="602" height="552" viewBox="0 0 602 552" fill="none" xmlns="http://www.w3.org/2000/svg">
<path d="M378.302 16.5771L420.208 57.0126L462.326 284.954H67.2539L378.302 16.5771Z" fill="#FFCF2D"/>
<path d="M420.568 56.6952L378.535 16.1327L385.565 8.8289C395.92 -1.92567 414.575 -0.697783 425.333 9.63338C436.09 19.9857 437.974 38.6368 427.62 49.3914L420.568 56.6952Z" fill="white"/>
<path d="M420.59 57.5842L377.646 16.1537L385.12 8.38415C390.16 3.13389 397.339 0.402908 405.343 0.678123C413.009 0.953339 420.462 4.04422 425.799 9.16746C431.135 14.2907 434.502 21.6368 435.052 29.3005C435.624 37.2817 433.147 44.5644 428.107 49.8146L420.59 57.5842ZM379.424 16.1113L420.547 55.7847L427.154 48.9467C431.961 43.9716 434.29 37.0277 433.761 29.4064C433.231 22.0391 430.013 15.0105 424.888 10.099C419.764 5.18742 412.628 2.22356 405.28 1.96952C397.656 1.6943 390.817 4.29826 386.031 9.27331L379.424 16.1113Z" fill="#FFCF2D"/>
<path d="M427.599 50.0262C427.43 50.0262 427.281 49.9627 427.154 49.8568L385.1 9.29434C384.845 9.0403 384.845 8.65923 385.078 8.40518C385.332 8.15114 385.735 8.15113 385.968 8.38401L428.022 48.9465C428.277 49.2006 428.277 49.5816 428.044 49.8357C427.938 49.9627 427.768 50.0262 427.599 50.0262Z" fill="#FFCF2D"/>
<path d="M508.828 283.854C508.743 283.854 508.659 283.832 508.574 283.79C508.256 283.642 508.108 283.261 508.256 282.943L567.23 151.433L451.929 11.1152V11.094C449.748 8.13013 446.551 6.22479 442.909 5.69553C439.266 5.16627 435.645 6.11894 432.723 8.363L428.022 11.962C427.747 12.1737 427.345 12.1313 427.133 11.8349C426.921 11.5597 426.963 11.1575 427.26 10.9458L431.961 7.34682C435.158 4.91222 439.118 3.87488 443.099 4.44648C447.08 5.01808 450.574 7.09278 452.946 10.3318L568.713 151.242L568.543 151.602L509.4 283.472C509.294 283.705 509.061 283.854 508.828 283.854Z" fill="#3FB1B5"/>
<path d="M566.087 158.525C569.665 158.525 572.566 155.624 572.566 152.047C572.566 148.469 569.665 145.568 566.087 145.568C562.508 145.568 559.607 148.469 559.607 152.047C559.607 155.624 562.508 158.525 566.087 158.525Z" fill="white"/>
<path d="M566.087 159.16C562.169 159.16 558.972 155.963 558.972 152.047C558.972 148.13 562.169 144.934 566.087 144.934C570.004 144.934 573.202 148.13 573.202 152.047C573.202 155.963 570.004 159.16 566.087 159.16ZM566.087 146.204C562.868 146.204 560.242 148.829 560.242 152.047C560.242 155.265 562.868 157.89 566.087 157.89C569.305 157.89 571.931 155.265 571.931 152.047C571.931 148.829 569.305 146.204 566.087 146.204Z" fill="#FFCF2D"/>
<path d="M492.396 268.483H523.969C533.053 268.483 540.401 275.851 540.401 284.912V285.377H475.942V284.912C475.964 275.851 483.311 268.483 492.396 268.483Z" fill="white"/>
<path d="M541.036 286.013H475.307V284.912C475.328 275.512 482.994 267.849 492.396 267.849H523.969C533.371 267.849 541.036 275.512 541.036 284.912V286.013ZM476.578 284.743H539.766C539.681 276.105 532.629 269.119 523.969 269.119H492.396C483.756 269.119 476.684 276.105 476.578 284.743Z" fill="#FFCF2D"/>
<path d="M339.444 237.299H139.568C132.051 237.299 125.974 231.224 125.974 223.708V83.941C125.974 76.4255 132.051 70.3496 139.568 70.3496H339.444C346.962 70.3496 353.039 76.4255 353.039 83.941V223.687C353.06 231.202 346.962 237.299 339.444 237.299Z" fill="white"/>
<path d="M339.444 237.935H139.568C131.712 237.935 125.338 231.563 125.338 223.708V83.9414C125.338 76.0871 131.712 69.7148 139.568 69.7148H339.444C347.301 69.7148 353.674 76.0871 353.674 83.9414V223.687C353.696 227.477 352.213 231.055 349.524 233.743C346.835 236.453 343.256 237.935 339.444 237.935ZM139.568 70.9851C132.432 70.9851 126.609 76.8069 126.609 83.9414V223.708C126.609 230.843 132.432 236.665 139.568 236.665H339.444C342.917 236.665 346.178 235.31 348.635 232.854C351.07 230.398 352.425 227.138 352.404 223.687V83.9414C352.404 76.8069 346.581 70.9851 339.444 70.9851H139.568Z" fill="#3FB1B5"/>
<path d="M339.572 224.301H141.623C138.679 224.301 136.308 221.908 136.308 218.987V85.2747C136.308 82.332 138.7 79.9609 141.623 79.9609H339.572C342.515 79.9609 344.887 82.3532 344.887 85.2747V218.966C344.908 221.908 342.515 224.301 339.572 224.301Z" fill="#66B0F0"/>
<path d="M339.572 224.936H141.623C138.34 224.936 135.672 222.269 135.672 218.987V85.275C135.672 81.9936 138.34 79.3262 141.623 79.3262H339.572C342.854 79.3262 345.522 81.9936 345.522 85.275V218.966C345.543 220.554 344.929 222.057 343.807 223.179C342.663 224.301 341.181 224.936 339.572 224.936ZM141.623 80.5964C139.039 80.5964 136.943 82.6923 136.943 85.275V218.987C136.943 221.57 139.039 223.666 141.623 223.666H339.572C340.821 223.666 342.007 223.179 342.896 222.29C343.786 221.401 344.252 220.236 344.252 218.987V85.275C344.252 82.6923 342.155 80.5964 339.572 80.5964H141.623Z" fill="#66B0F0"/>
<path d="M148.716 93.0875H145.582C144.206 93.0875 143.083 91.9654 143.083 90.5893V87.4561C143.083 86.08 144.206 84.958 145.582 84.958H148.716C150.093 84.958 151.215 86.08 151.215 87.4561V90.5893C151.194 91.9866 150.093 93.0875 148.716 93.0875ZM145.582 86.2282C144.905 86.2282 144.354 86.7787 144.354 87.4561V90.5893C144.354 91.2668 144.905 91.8172 145.582 91.8172H148.716C149.394 91.8172 149.923 91.2668 149.944 90.5682V87.4561C149.944 86.7787 149.394 86.2282 148.716 86.2282H145.582Z" fill="white"/>
<path d="M162.967 93.0875H159.833C158.457 93.0875 157.334 91.9654 157.334 90.5893V87.4561C157.334 86.08 158.457 84.958 159.833 84.958H162.967C164.344 84.958 165.466 86.08 165.466 87.4561V90.5893C165.466 91.9654 164.344 93.0875 162.967 93.0875ZM159.833 86.2282C159.156 86.2282 158.605 86.7787 158.605 87.4561V90.5893C158.605 91.2668 159.156 91.8172 159.833 91.8172H162.967C163.645 91.8172 164.195 91.2668 164.195 90.5893V87.4561C164.195 86.7787 163.645 86.2282 162.967 86.2282H159.833Z" fill="white"/>
<path d="M177.219 93.0875H174.085C172.708 93.0875 171.586 91.9654 171.586 90.5893V87.4561C171.586 86.08 172.708 84.958 174.085 84.958H177.219C178.595 84.958 179.717 86.08 179.717 87.4561V90.5893C179.717 91.9654 178.595 93.0875 177.219 93.0875ZM174.085 86.2282C173.407 86.2282 172.856 86.7787 172.856 87.4561V90.5893C172.856 91.2668 173.407 91.8172 174.085 91.8172H177.219C177.917 91.8172 178.447 91.288 178.447 90.5893V87.4561C178.447 86.7787 177.896 86.2282 177.219 86.2282H174.085Z" fill="white"/>
<path d="M281.699 284.954H204.112L219.337 237.3H266.453L281.699 284.954Z" fill="white"/>
<path d="M282.567 285.59H203.243L218.871 236.665H266.918L282.567 285.59ZM204.98 284.32H280.83L265.986 237.935H219.802L204.98 284.32Z" fill="#3FB1B5"/>
<path d="M210.21 265.88L219.337 237.3H266.452L210.21 265.88Z" fill="#3FB1B5"/>
<path d="M328.052 124.44H290.338C286.463 124.44 283.308 121.286 283.308 117.412V93.0657C283.308 89.1915 286.463 86.0371 290.338 86.0371H328.052C331.927 86.0371 335.082 89.1915 335.082 93.0657V117.412C335.082 121.286 331.927 124.44 328.052 124.44ZM290.338 87.3073C287.162 87.3073 284.579 89.8901 284.579 93.0657V117.412C284.579 120.587 287.162 123.17 290.338 123.17H328.052C331.228 123.17 333.812 120.587 333.812 117.412V93.0657C333.812 89.8901 331.228 87.3073 328.052 87.3073H290.338Z" fill="white"/>
<path d="M323.499 95.987H294.722C294.362 95.987 294.086 95.7118 294.086 95.3519C294.086 94.992 294.362 94.7168 294.722 94.7168H323.499C323.859 94.7168 324.134 94.992 324.134 95.3519C324.134 95.7118 323.859 95.987 323.499 95.987Z" fill="white"/>
<path d="M323.499 102.55H294.722C294.362 102.55 294.086 102.275 294.086 101.915C294.086 101.555 294.362 101.28 294.722 101.28H323.499C323.859 101.28 324.134 101.555 324.134 101.915C324.134 102.275 323.859 102.55 323.499 102.55Z" fill="white"/>
<path d="M323.499 109.113H294.722C294.362 109.113 294.086 108.838 294.086 108.478C294.086 108.118 294.362 107.843 294.722 107.843H323.499C323.859 107.843 324.134 108.118 324.134 108.478C324.134 108.838 323.859 109.113 323.499 109.113Z" fill="white"/>
<path d="M323.499 115.675H294.722C294.362 115.675 294.086 115.4 294.086 115.04C294.086 114.68 294.362 114.405 294.722 114.405H323.499C323.859 114.405 324.134 114.68 324.134 115.04C324.134 115.4 323.859 115.675 323.499 115.675Z" fill="white"/>
<path d="M338.47 224.302H188.569L179.781 236.898C169.849 251.125 148.864 251.337 138.658 237.301L85.126 163.691C87.3706 166.486 97.6407 163.374 107.424 156.938C117.355 150.396 123.771 142.161 121.76 139.112L158.88 186.407L170.252 166.337C173.365 161.024 178.531 157.213 184.545 155.816L223.233 147.623H256.584L293.345 155.731C299.74 157.192 305.161 161.362 308.232 167.142L338.47 224.302Z" fill="white"/>
<path d="M159.071 248.33C150.707 248.33 143.083 244.456 138.149 237.66L84.6177 164.051L85.6341 163.289C87.434 165.512 96.9842 163.056 107.085 156.408C111.786 153.318 115.873 149.74 118.583 146.31C121.04 143.219 122.035 140.658 121.23 139.451L122.268 138.71L158.796 185.264L169.701 166.02C172.899 160.558 178.256 156.62 184.397 155.202L223.169 146.988H256.648L256.711 147.009L293.472 155.117C300.037 156.62 305.627 160.897 308.782 166.845L339.508 224.937H188.886L180.289 237.258C175.44 244.202 167.795 248.246 159.304 248.33C159.24 248.33 159.156 248.33 159.071 248.33ZM87.074 165.279L139.187 236.92C143.93 243.44 151.257 247.145 159.325 247.06C167.393 246.975 174.656 243.144 179.272 236.538L188.251 223.667H337.433L307.681 167.438C304.695 161.807 299.422 157.763 293.218 156.345L256.521 148.258H223.296L184.672 156.43C178.87 157.784 173.809 161.51 170.802 166.655L158.965 187.55L122.67 141.314C122.374 142.902 121.336 144.892 119.557 147.115C116.762 150.629 112.569 154.313 107.763 157.467C101.05 161.87 92.982 165.342 88.1752 165.342C87.794 165.342 87.4128 165.321 87.074 165.279Z" fill="#3FB1B5"/>
<path d="M297.327 224.07C297.094 224.07 296.882 223.943 296.755 223.731L286.104 202.709C285.955 202.391 286.061 202.01 286.379 201.862C286.696 201.714 287.078 201.819 287.226 202.137L297.877 223.159C298.025 223.477 297.919 223.858 297.602 224.006C297.517 224.048 297.432 224.07 297.327 224.07Z" fill="#3FB1B5"/>
<path d="M187.722 226.038C187.616 226.038 187.531 226.017 187.425 225.975C187.108 225.826 186.981 225.424 187.15 225.128L197.695 204.317C197.844 204 198.246 203.873 198.542 204.042C198.86 204.19 198.987 204.592 198.818 204.889L188.272 225.699C188.166 225.911 187.955 226.038 187.722 226.038Z" fill="#3FB1B5"/>
<path d="M168.6 199.575C168.409 199.575 168.219 199.49 168.092 199.321L143.93 168.433C143.719 168.158 143.761 167.756 144.036 167.544C144.311 167.332 144.714 167.375 144.926 167.65L169.087 198.537C169.299 198.813 169.256 199.215 168.981 199.427C168.875 199.532 168.727 199.575 168.6 199.575Z" fill="#3FB1B5"/>
<path d="M252.879 169.514L243.583 158.187C243.35 157.912 243.392 157.51 243.668 157.298C243.943 157.065 244.345 157.108 244.557 157.383L253.048 167.693L272.466 151.222C272.742 150.989 273.144 151.032 273.356 151.286C273.589 151.561 273.546 151.963 273.292 152.175L252.879 169.514Z" fill="#3FB1B5"/>
<path d="M228.739 169.915L206.356 152.195C206.081 151.984 206.038 151.581 206.25 151.306C206.462 151.031 206.864 150.989 207.139 151.2L228.506 168.115L236.743 157.594C236.955 157.319 237.357 157.276 237.632 157.488C237.908 157.7 237.95 158.102 237.738 158.377L228.739 169.915Z" fill="#3FB1B5"/>
<path d="M95.3114 175.123C93.2997 175.123 92.2409 174.509 91.7116 173.831C91.4998 173.556 91.5422 173.154 91.8174 172.942C92.0927 172.73 92.495 172.773 92.7068 173.048C93.5962 174.17 96.4972 174.107 100.457 172.921C104.671 171.651 109.753 169.153 114.369 166.083C119.092 162.95 123.2 159.33 125.931 155.858C128.409 152.724 129.404 150.142 128.599 148.914C128.409 148.617 128.494 148.236 128.79 148.025C129.086 147.834 129.468 147.919 129.679 148.215C130.823 149.972 129.849 152.957 126.948 156.641C124.131 160.198 119.917 163.924 115.089 167.12C110.304 170.296 105.243 172.794 100.838 174.128C98.4454 174.847 96.6455 175.123 95.3114 175.123Z" fill="#3FB1B5"/>
<path d="M122.48 154.566C120.807 154.566 119.452 153.212 119.452 151.539C119.452 149.867 120.807 148.512 122.48 148.512C124.153 148.512 125.508 149.867 125.508 151.539C125.508 153.212 124.153 154.566 122.48 154.566ZM122.48 149.782C121.506 149.782 120.722 150.565 120.722 151.539C120.722 152.513 121.506 153.296 122.48 153.296C123.454 153.296 124.237 152.513 124.237 151.539C124.237 150.565 123.454 149.782 122.48 149.782Z" fill="#3FB1B5"/>
<path d="M240.639 169.598C238.966 169.598 237.611 168.243 237.611 166.57C237.611 164.898 238.966 163.543 240.639 163.543C242.312 163.543 243.667 164.898 243.667 166.57C243.667 168.243 242.312 169.598 240.639 169.598ZM240.639 164.813C239.665 164.813 238.881 165.597 238.881 166.57C238.881 167.544 239.665 168.328 240.639 168.328C241.613 168.328 242.396 167.544 242.396 166.57C242.396 165.597 241.613 164.813 240.639 164.813Z" fill="#3FB1B5"/>
<path d="M240.639 188.862C238.966 188.862 237.611 187.507 237.611 185.835C237.611 184.163 238.966 182.808 240.639 182.808C242.312 182.808 243.667 184.163 243.667 185.835C243.667 187.507 242.312 188.862 240.639 188.862ZM240.639 184.078C239.665 184.078 238.881 184.861 238.881 185.835C238.881 186.809 239.665 187.592 240.639 187.592C241.613 187.592 242.396 186.809 242.396 185.835C242.396 184.861 241.613 184.078 240.639 184.078Z" fill="#3FB1B5"/>
<path d="M179.019 237.914L188.569 224.302V237.914H179.019Z" fill="#3FB1B5"/>
<path d="M107.191 156.303C97.4075 162.738 87.1373 165.85 84.8927 163.056C84.8504 163.014 84.8292 162.971 84.7868 162.908C84.321 162.209 84.3633 161.256 84.7868 160.092C86.2479 156.26 92.283 150.332 99.9485 145.294C106.047 141.272 112.061 138.477 116.233 137.609C118.647 137.122 120.446 137.27 121.315 138.202L121.526 138.456C123.517 141.504 117.122 149.761 107.191 156.303Z" fill="#FE5244"/>
<path d="M107.191 156.302C101.622 159.965 95.883 162.568 91.5632 163.585L72.2299 136.317C69.5406 132.506 70.43 127.235 74.2628 124.546L91.6691 112.31L81.8013 95.5218C80.3613 93.0872 81.1872 89.9328 83.6435 88.5144C84.4482 88.0486 85.3164 87.8369 86.1846 87.8369C87.8575 87.8369 89.5092 88.6626 90.4832 90.1868L121.336 138.159L121.548 138.498C123.517 141.504 117.122 149.76 107.191 156.302Z" fill="#E57281"/>
<path d="M97.1322 136.634C96.8569 136.634 96.5816 136.613 96.3063 136.549C95.2476 136.338 94.337 135.703 93.7653 134.813L83.5798 119.571C83.3893 119.274 83.4739 118.893 83.7492 118.682C84.0457 118.491 84.4269 118.576 84.6386 118.851L94.824 134.094C95.2264 134.708 95.8405 135.131 96.5604 135.279C97.2804 135.427 98.0216 135.279 98.6356 134.877L101.028 133.31C102.299 132.485 102.659 130.791 101.854 129.521L91.076 112.817C90.8854 112.521 90.9701 112.14 91.2665 111.949C91.563 111.759 91.9442 111.844 92.1348 112.14L102.913 128.843C104.099 130.706 103.548 133.183 101.706 134.369L99.3132 135.935C98.678 136.401 97.9157 136.634 97.1322 136.634Z" fill="#9A3B82"/>
<path d="M89.234 141.694C87.9211 141.694 86.6294 141.059 85.8459 139.894C85.6553 139.598 85.74 139.217 86.0365 139.005C86.3329 138.815 86.7141 138.899 86.9258 139.196C87.7517 140.445 89.4457 140.805 90.7163 140L92.8974 138.624C93.5115 138.222 93.9561 137.608 94.1044 136.867C94.2526 136.126 94.1256 135.385 93.7232 134.771C93.5326 134.475 93.6173 134.094 93.9138 133.882C94.2102 133.691 94.5914 133.776 94.8032 134.073C95.3961 134.983 95.6078 136.063 95.3749 137.142C95.142 138.201 94.5067 139.111 93.5961 139.704L91.4151 141.08C90.7375 141.482 89.9751 141.694 89.234 141.694Z" fill="#9A3B82"/>
<path d="M81.4839 146.437C80.2133 146.437 78.964 145.844 78.1805 144.722L72.3996 136.572C72.1878 136.275 72.2725 135.894 72.5478 135.682C72.8231 135.471 73.2254 135.555 73.4372 135.831L79.2181 143.981C80.0863 145.188 81.7168 145.505 82.945 144.722L82.9873 144.701L84.999 143.579C85.6343 143.177 86.0578 142.563 86.2272 141.843C86.3966 141.102 86.2484 140.361 85.846 139.726L75.8723 124.907C75.6818 124.61 75.7453 124.229 76.0418 124.017C76.3382 123.827 76.7194 123.89 76.9311 124.187L86.9048 139.006C87.5189 139.938 87.7095 141.038 87.4766 142.097C87.2436 143.156 86.6084 144.066 85.6766 144.637L85.6554 144.659L83.6438 145.781C82.945 146.246 82.2038 146.437 81.4839 146.437Z" fill="#9A3B82"/>
<path d="M114.136 126.981L109.075 119.127C107.402 116.523 103.908 115.803 101.346 117.539L88.7891 126.05C88.7891 126.05 92.4313 132.591 101.283 127.405L104.247 132.126C98.191 135.957 96.4546 144.023 100.393 150.015L114.136 126.981Z" fill="#E57281"/>
<path d="M100.393 150.649C100.181 150.649 99.9908 150.543 99.8637 150.353C97.8732 147.304 97.1745 143.663 97.9579 140.106C98.6779 136.761 100.605 133.882 103.379 131.934L101.071 128.251C98.0215 129.923 95.2475 130.41 92.7911 129.754C89.6783 128.907 88.2807 126.451 88.2172 126.367L87.9419 125.859L100.308 117.221C101.706 116.29 103.358 115.951 104.988 116.29C106.619 116.628 108.016 117.581 108.927 118.999L113.988 126.854C114.178 127.15 114.094 127.531 113.797 127.722C113.501 127.912 113.12 127.827 112.929 127.531L107.868 119.677C107.148 118.555 106.047 117.793 104.734 117.539C103.442 117.263 102.108 117.539 101.028 118.28L89.6571 126.218C90.1653 126.875 91.3088 128.06 93.1299 128.547C95.3745 129.161 98.0003 128.59 100.944 126.875L101.473 126.557L105.094 132.337L104.565 132.675C101.791 134.433 99.8637 137.185 99.1649 140.403C98.4662 143.62 99.0802 146.923 100.901 149.675C101.092 149.972 101.007 150.353 100.711 150.564C100.626 150.607 100.52 150.649 100.393 150.649Z" fill="#9A3B82"/>
<path d="M107.191 156.303C101.622 159.965 95.883 162.569 91.5632 163.585L86.7563 156.811C89.4456 153.297 94.2525 149.063 99.9487 145.315C106.047 141.293 112.061 138.499 116.233 137.631C118.647 137.144 120.447 137.292 121.315 138.223L121.527 138.477C121.548 138.52 121.569 138.541 121.59 138.583C121.611 138.604 121.611 138.626 121.632 138.668C121.654 138.71 121.675 138.731 121.696 138.774C123.136 142.013 116.804 149.952 107.191 156.303Z" fill="#9A3B82"/>
<path d="M256.563 128.993V147.602C256.563 153 249.067 157.362 239.856 157.362C230.623 157.362 223.148 153 223.148 147.602V128.993H256.563Z" fill="#E57281"/>
<path d="M228.039 154.504C225.011 152.746 223.126 150.291 223.126 147.602V128.993H256.563V134.159C256.563 139.515 253.302 144.321 248.347 146.332L228.039 154.504Z" fill="#9A3B82"/>
<path d="M265.88 127.892V128.209C265.88 131.427 263.275 134.031 260.057 134.031H256.224C254.932 139.239 250.231 143.113 244.598 143.113H235.112C229.5 143.113 224.778 139.26 223.508 134.031H219.675C216.456 134.031 213.852 131.427 213.852 128.209V127.892C213.852 124.674 216.456 122.07 219.675 122.07H223.148V117.476C223.148 112.564 226.769 108.5 231.491 107.822C232.528 109.558 235.662 113.708 242.057 113.475C245.064 113.369 247.86 112.797 250.168 112.12C252.942 111.315 255.716 113.009 256.414 115.655C256.52 116.248 256.584 116.841 256.584 117.455V122.049H260.057C263.254 122.049 265.88 124.674 265.88 127.892Z" fill="#E57281"/>
<path d="M259.231 122.049H256.562V116.947C256.562 116.502 256.499 116.058 256.393 115.655C255.694 113.009 252.92 111.315 250.146 112.12C247.838 112.797 245.064 113.369 242.036 113.475C235.641 113.708 232.507 109.558 231.469 107.822C226.747 108.5 223.126 112.564 223.126 117.476V122.07H219.802C219.802 122.07 215.99 108.288 218.849 104.393C221.665 100.561 225.053 102.233 225.053 102.233C225.053 102.233 223.02 90.759 234.37 90.9707C245.699 91.1824 260.438 104.329 261.518 106.743C263.212 110.447 259.231 122.049 259.231 122.049Z" fill="#9A3B82"/>
<path d="M257.855 129.501C257.558 129.501 257.325 129.268 257.325 128.972C257.325 126.431 259.4 124.356 261.941 124.356C262.238 124.356 262.471 124.589 262.471 124.886C262.471 125.182 262.238 125.415 261.941 125.415C259.972 125.415 258.384 127.003 258.384 128.972C258.384 129.268 258.151 129.501 257.855 129.501Z" fill="#9A3B82"/>
<path d="M221.898 129.501C221.602 129.501 221.369 129.268 221.369 128.972C221.369 127.003 219.78 125.415 217.811 125.415C217.515 125.415 217.282 125.182 217.282 124.886C217.282 124.589 217.515 124.356 217.811 124.356C220.352 124.356 222.427 126.431 222.427 128.972C222.427 129.268 222.194 129.501 221.898 129.501Z" fill="#9A3B82"/>
<path d="M251.226 118.005C251.121 118.005 251.015 117.963 250.909 117.899C250.803 117.814 248.071 115.888 244.577 117.349C244.302 117.455 244.006 117.328 243.878 117.052C243.773 116.777 243.9 116.481 244.175 116.354C248.241 114.681 251.396 116.925 251.523 117.031C251.756 117.2 251.819 117.539 251.629 117.772C251.544 117.92 251.396 118.005 251.226 118.005Z" fill="#9A3B82"/>
<path d="M228.272 118.005C228.103 118.005 227.955 117.921 227.849 117.794C227.679 117.561 227.722 117.222 227.955 117.053C228.082 116.947 231.258 114.703 235.303 116.375C235.578 116.481 235.705 116.799 235.599 117.074C235.493 117.349 235.175 117.476 234.9 117.37C231.385 115.909 228.611 117.899 228.569 117.921C228.484 117.963 228.378 118.005 228.272 118.005Z" fill="#9A3B82"/>
<path d="M241.189 135.83C240.363 135.83 239.41 135.661 238.33 135.259C238.055 135.153 237.907 134.856 238.013 134.581C238.119 134.306 238.415 134.158 238.69 134.264C243.137 135.915 244.598 132.993 244.662 132.866C244.789 132.612 245.107 132.485 245.361 132.612C245.615 132.739 245.742 133.057 245.615 133.311C245.594 133.353 244.387 135.83 241.189 135.83Z" fill="#9A3B82"/>
<path d="M239.686 131.85C239.199 131.85 238.67 131.85 238.225 131.808C237.928 131.787 237.717 131.533 237.738 131.236C237.759 130.94 238.013 130.728 238.31 130.75C239.559 130.834 241.486 130.75 241.507 130.75C241.804 130.728 242.036 130.961 242.058 131.258C242.079 131.554 241.846 131.787 241.549 131.808C241.507 131.808 240.639 131.85 239.686 131.85Z" fill="#9A3B82"/>
<path d="M247.817 126.304C248.402 126.304 248.876 125.508 248.876 124.525C248.876 123.543 248.402 122.747 247.817 122.747C247.232 122.747 246.758 123.543 246.758 124.525C246.758 125.508 247.232 126.304 247.817 126.304Z" fill="#9A3B82"/>
<path d="M232.634 126.304C233.219 126.304 233.693 125.508 233.693 124.525C233.693 123.543 233.219 122.747 232.634 122.747C232.049 122.747 231.575 123.543 231.575 124.525C231.575 125.508 232.049 126.304 232.634 126.304Z" fill="#9A3B82"/>
<path d="M235.154 131.046H228.484C226.917 131.046 225.625 129.754 225.625 128.188V121.519C225.625 119.953 226.917 118.661 228.484 118.661H235.154C236.721 118.661 238.013 119.953 238.013 121.519V128.188C238.034 128.929 237.737 129.649 237.208 130.178C236.657 130.749 235.937 131.046 235.154 131.046ZM228.484 119.72C227.488 119.72 226.684 120.524 226.684 121.519V128.188C226.684 129.183 227.488 129.987 228.484 129.987H235.154C235.641 129.987 236.107 129.797 236.446 129.437C236.785 129.098 236.954 128.654 236.954 128.188V121.519C236.954 120.524 236.149 119.72 235.154 119.72H228.484Z" fill="white"/>
<path d="M251.48 131.046H244.81C243.243 131.046 241.951 129.754 241.951 128.188V121.519C241.951 119.953 243.243 118.661 244.81 118.661H251.48C253.047 118.661 254.339 119.953 254.339 121.519V128.188C254.339 129.754 253.047 131.046 251.48 131.046ZM244.81 119.72C243.815 119.72 243.01 120.524 243.01 121.519V128.188C243.01 129.183 243.815 129.987 244.81 129.987H251.48C252.475 129.987 253.28 129.183 253.28 128.188V121.519C253.28 120.524 252.475 119.72 251.48 119.72H244.81Z" fill="white"/>
<path d="M242.481 123.064H237.504V124.123H242.481V123.064Z" fill="white"/>
<path d="M253.239 216.722H230.094C227.637 216.722 225.647 214.732 225.647 212.276V199.976C225.647 197.52 227.637 195.53 230.094 195.53H253.239C255.695 195.53 257.686 197.52 257.686 199.976V212.276C257.686 214.732 255.695 216.722 253.239 216.722ZM230.094 196.8C228.336 196.8 226.918 198.219 226.918 199.976V212.276C226.918 214.033 228.336 215.452 230.094 215.452H253.239C254.996 215.452 256.415 214.033 256.415 212.276V199.976C256.415 198.219 254.996 196.8 253.239 196.8H230.094Z" fill="#66B0F0"/>
<path d="M242.248 211.133H234.413C233.164 211.133 232.147 210.117 232.147 208.868V203.384C232.147 202.135 233.164 201.119 234.413 201.119H242.248C243.498 201.119 244.514 202.135 244.514 203.384V208.868C244.514 210.117 243.498 211.133 242.248 211.133Z" fill="#66B0F0"/>
<path d="M249.872 210.985L247.458 209.376C246.801 208.931 246.399 208.169 246.399 207.343V204.93C246.399 204.104 246.801 203.342 247.458 202.897L249.872 201.289C250.443 200.907 251.185 201.331 251.185 202.051V210.244C251.206 210.942 250.443 211.366 249.872 210.985Z" fill="#66B0F0"/>
<path d="M562.783 286.013H0.635267C0.275282 286.013 0 285.738 0 285.378C0 285.018 0.275282 284.743 0.635267 284.743H562.783C563.143 284.743 563.418 285.018 563.418 285.378C563.418 285.738 563.143 286.013 562.783 286.013Z" fill="#3FB1B5"/>
<path d="M181.623 289.083V550.453H166.864V500.702C166.864 496.066 163.094 492.298 158.457 492.298H52.8121C48.1746 492.298 44.4054 496.066 44.4054 500.702V550.453H29.646V289.083H181.623Z" fill="white"/>
<path d="M182.258 551.088H166.228V500.703C166.228 496.426 162.734 492.933 158.457 492.933H52.8121C48.5346 492.933 45.0407 496.426 45.0407 500.703V551.088H29.0107V288.448H182.258V551.088ZM167.499 549.818H180.988V289.718H30.2813V549.818H43.7701V500.703C43.7701 495.728 47.8358 491.663 52.8121 491.663H158.457C163.433 491.663 167.499 495.728 167.499 500.703V549.818Z" fill="#3FB1B5"/>
<path d="M182.068 289.083V358.437L29.646 483.914L29.6672 289.083H182.068Z" fill="#D0F0E4"/>
<path d="M158.901 364.98H52.3883C47.645 364.98 43.791 361.127 43.791 356.384V308.984C43.791 304.242 47.645 300.389 52.3883 300.389H158.901C163.645 300.389 167.499 304.242 167.499 308.984V356.384C167.499 361.127 163.645 364.98 158.901 364.98ZM52.3883 301.659C48.3438 301.659 45.0615 304.94 45.0615 308.984V356.384C45.0615 360.428 48.3438 363.709 52.3883 363.709H158.901C162.946 363.709 166.228 360.428 166.228 356.384V308.984C166.228 304.94 162.946 301.659 158.901 301.659H52.3883Z" fill="#3FB1B5"/>
<path d="M132.728 400.249H80.2978L78.1167 385.239H130.569L132.728 400.249Z" fill="#FFCF2D"/>
<path d="M160.702 376.58C154.158 376.58 148.864 381.873 148.864 388.414V400.249H104.248V388.414C104.248 381.873 109.541 376.58 116.085 376.58H160.702Z" fill="white"/>
<path d="M149.5 400.884H103.612V388.415C103.612 381.534 109.203 375.945 116.085 375.945H160.702V377.216C154.518 377.216 149.5 382.233 149.5 388.415V400.884ZM104.883 399.614H148.229V388.415C148.229 383.503 151.088 379.248 155.217 377.216H116.085C109.901 377.216 104.883 382.233 104.883 388.415V399.614Z" fill="#3FB1B5"/>
<path d="M171.819 385.239H127.202C125.826 380.243 121.231 376.58 115.789 376.58H160.405C165.848 376.58 170.422 380.243 171.819 385.239Z" fill="white"/>
<path d="M172.666 385.874H126.737L126.61 385.409C125.276 380.582 120.829 377.216 115.81 377.216V375.945H160.427C165.996 375.945 170.951 379.693 172.455 385.07L172.666 385.874ZM127.668 384.604H170.951C169.363 380.222 165.128 377.216 160.406 377.216H121.273C124.259 378.676 126.631 381.323 127.668 384.604Z" fill="#3FB1B5"/>
<path d="M158.901 464.205H52.3883C47.645 464.205 43.791 460.352 43.791 455.61V408.209C43.791 403.467 47.645 399.614 52.3883 399.614H158.901C163.645 399.614 167.499 403.467 167.499 408.209V455.61C167.499 460.352 163.645 464.205 158.901 464.205ZM52.3883 400.884C48.3438 400.884 45.0615 404.166 45.0615 408.209V455.61C45.0615 459.653 48.3438 462.935 52.3883 462.935H158.901C162.946 462.935 166.228 459.653 166.228 455.61V408.209C166.228 404.166 162.946 400.884 158.901 400.884H52.3883Z" fill="#3FB1B5"/>
<path d="M127.477 332.377C127.117 332.377 126.842 332.102 126.842 331.742C126.842 328.312 124.068 325.539 120.637 325.539H90.6737C87.2433 325.539 84.4693 328.312 84.4693 331.742C84.4693 332.102 84.194 332.377 83.834 332.377C83.474 332.377 83.1987 332.102 83.1987 331.742C83.1987 327.614 86.5445 324.269 90.6737 324.269H120.637C124.766 324.269 128.112 327.614 128.112 331.742C128.112 332.102 127.837 332.377 127.477 332.377Z" fill="#3FB1B5"/>
<path d="M127.477 431.602C127.117 431.602 126.842 431.327 126.842 430.967C126.842 427.538 124.068 424.764 120.637 424.764H90.6737C87.2433 424.764 84.4693 427.538 84.4693 430.967C84.4693 431.327 84.194 431.602 83.834 431.602C83.474 431.602 83.1987 431.327 83.1987 430.967C83.1987 426.839 86.5445 423.494 90.6737 423.494H120.637C124.766 423.494 128.112 426.839 128.112 430.967C128.112 431.327 127.837 431.602 127.477 431.602Z" fill="#3FB1B5"/>
<path d="M540.4 289.083H524.667V551.025H540.4V289.083Z" fill="white"/>
<path d="M541.035 551.66H524.031V288.448H541.035V551.66ZM525.302 550.39H539.765V289.718H525.302V550.39Z" fill="#3FB1B5"/>
<path d="M601.365 551.66H273.017C272.657 551.66 272.381 551.385 272.381 551.025C272.381 550.665 272.657 550.39 273.017 550.39H601.365C601.725 550.39 602 550.665 602 551.025C602 551.385 601.725 551.66 601.365 551.66Z" fill="#3FB1B5"/>
<path d="M74.3267 249.452H64.8189C64.8189 249.452 51.2454 192.905 39.3235 191.064C27.4017 189.222 26.7876 210.985 26.7876 210.985C26.7876 210.985 26.9994 177.896 56.7934 182.426C86.6086 186.957 74.3267 249.452 74.3267 249.452Z" fill="white"/>
<path d="M74.8564 250.087H64.3322L64.2051 249.6C64.1628 249.452 60.7535 235.31 55.9467 221.147C47.9846 197.711 42.4578 192.186 39.2391 191.699C37.0369 191.36 35.0887 191.868 33.4794 193.223C27.8679 197.88 27.4444 210.879 27.4444 211.006L26.1738 210.985C26.1738 210.816 26.2162 206.941 27.4655 201.988C28.6302 197.394 31.0866 190.979 36.2322 186.575C41.4626 182.109 48.4082 180.5 56.9207 181.812C62.4264 182.638 66.8944 185.475 70.219 190.196C75.5552 197.796 77.9904 210.096 77.4187 226.799C76.9952 239.184 75.0047 249.473 74.9835 249.579L74.8564 250.087ZM65.3274 248.816H73.8188C74.2212 246.594 75.7882 237.448 76.1481 226.736C76.5293 215.452 75.6188 200.103 69.1814 190.937C66.0686 186.491 61.8758 183.844 56.7301 183.082C48.6199 181.854 41.992 183.358 37.058 187.57C35.5758 188.841 34.3052 190.301 33.2464 191.847C35.0464 190.577 37.1216 190.132 39.4509 190.492C44.6389 191.296 50.6104 201.501 57.1748 220.808C61.4735 233.489 64.671 246.191 65.3274 248.816Z" fill="#3FB1B5"/>
<path d="M70.1546 249.24C69.8158 249.24 69.5193 248.965 69.5193 248.605C68.8205 206.454 59.8844 191.572 52.5153 186.533C46.925 182.701 42.0334 184.437 41.9911 184.458C41.6523 184.585 41.2923 184.416 41.1652 184.077C41.0382 183.739 41.2076 183.379 41.5464 183.252C41.7793 183.167 47.0944 181.283 53.2353 185.475C57.9786 188.735 61.8538 194.705 64.7336 203.258C68.4394 214.266 70.4722 229.509 70.7898 248.584C70.7898 248.943 70.5146 249.24 70.1546 249.24Z" fill="#3FB1B5"/>
<path d="M100.224 248.604H55.5649V284.954H100.224V248.604Z" fill="#FE5244"/>
<path d="M109.626 266.79C106.788 268.018 103.4 267.869 100.245 266.493C97.9157 265.477 95.7135 263.805 93.9348 261.518C91.4784 258.343 89.8267 254.003 89.8267 248.604C89.8267 235.521 79.4083 227.307 75.1309 244.624C74.8344 245.831 74.5591 247.144 74.3262 248.604V248.562V248.477C74.3262 248.435 74.3262 248.371 74.3474 248.308V248.223C74.4321 247.144 74.7497 243.947 75.7238 240.094C76.4437 237.236 77.5237 234.06 79.133 231.118C79.9377 229.657 80.8694 228.26 81.9706 227.011C84.8081 223.75 88.7044 221.464 94.0194 221.464C103.803 221.464 110.96 232.981 113.692 244.455C116.084 254.426 115.11 264.397 109.626 266.79Z" fill="white"/>
<path d="M105.454 268.251C103.654 268.251 101.77 267.849 99.9911 267.065C97.4712 265.964 95.2055 264.186 93.4267 261.9C90.6527 258.322 89.1916 253.707 89.1916 248.605C89.1916 242.635 86.5658 235.902 82.6484 235.437C79.8108 235.098 77.3121 238.506 75.7451 244.773C75.4275 246.085 75.1734 247.356 74.9405 248.711L73.6699 248.605V248.478C73.6699 248.435 73.6699 248.329 73.6911 248.224V248.16C73.7758 246.975 74.1146 243.799 75.0887 239.925C75.9569 236.495 77.1215 233.425 78.5615 230.8C79.472 229.17 80.4249 227.773 81.4837 226.587C84.8083 222.756 89.0222 220.829 94.0196 220.829C104.184 220.829 111.532 232.621 114.306 244.307C115.534 249.451 115.873 254.511 115.238 258.555C114.539 263.106 112.675 266.134 109.88 267.362C108.525 267.954 107.021 268.251 105.454 268.251ZM82.2672 234.145C82.4578 234.145 82.6272 234.166 82.7966 234.188C87.0317 234.696 90.4621 241.174 90.4621 248.626C90.4621 253.453 91.8385 257.793 94.4431 261.159C96.0948 263.276 98.1912 264.927 100.499 265.943C103.527 267.256 106.767 267.362 109.372 266.24C114.115 264.165 115.619 255.295 113.078 244.646C111.659 238.655 109.139 233.129 106.005 229.086C102.469 224.534 98.3394 222.142 94.0196 222.142C89.4245 222.142 85.5282 223.941 82.4578 227.477C81.4625 228.62 80.552 229.911 79.705 231.478C78.6462 233.425 77.7356 235.606 76.9945 238.019C77.3545 237.427 77.7145 236.897 78.0956 236.432C79.5991 234.59 81.1237 234.145 82.2672 234.145Z" fill="#3FB1B5"/>
<path d="M107.36 267.828C107.043 267.828 106.767 267.595 106.725 267.256C103.633 238.231 96.5819 229.255 91.2245 226.842C86.4388 224.682 82.3943 227.498 82.3519 227.519C82.0766 227.731 81.6743 227.646 81.4625 227.371C81.2508 227.096 81.3355 226.693 81.6108 226.482C81.8013 226.355 86.2906 223.221 91.7327 225.677C95.3325 227.307 98.4665 230.991 101.029 236.665C104.247 243.757 106.577 254.003 107.974 267.108C108.017 267.446 107.763 267.764 107.403 267.806C107.403 267.828 107.381 267.828 107.36 267.828Z" fill="#3FB1B5"/>
<path d="M26.1518 210.985C26.1518 214.478 25.7495 227.836 38.4972 228.45C51.2449 229.064 52.5154 209.82 52.5154 209.82C52.5154 209.82 46.2474 192.799 39.323 191.063C27.6129 188.121 26.1518 210.985 26.1518 210.985Z" fill="#3FB1B5"/>
<path d="M89.8267 248.605H74.3262C77.9048 226.185 89.8267 234.611 89.8267 248.605Z" fill="#3FB1B5"/>
<path opacity="0.4" d="M353.06 83.941V223.687C353.06 231.202 346.962 237.278 339.466 237.278H179.484C169.447 251.103 148.758 251.166 138.637 237.278L138.615 237.257C134.592 236.982 131.035 234.928 128.748 231.901L132.432 228.725L226.452 147.6L315.982 70.3496H339.466C346.962 70.3496 353.06 76.4467 353.06 83.941Z" fill="white"/>
<path opacity="0.4" d="M109.626 267.425C106.81 268.695 103.4 268.505 100.245 267.129V284.954H67.2749L93.9561 261.942L100.266 256.501L105.073 252.352L114.369 244.455C117.08 256.014 115.576 264.694 109.626 267.425Z" fill="white"/>
<path d="M390.392 361.485V479.32H363.16L345.817 430.903L320.979 361.485H390.392Z" fill="#A0505A"/>
<path d="M320.979 361.485H390.392V399.317L329.237 384.54L320.979 361.485Z" fill="#73325A"/>
<path d="M391.027 479.955H362.716L344.653 429.527L346.135 430.332C346.177 430.353 349.693 432.237 356.85 433.169C363.457 434.037 374.637 434.227 390.244 430.268L391.027 430.078V479.955ZM363.605 478.685H389.757V431.708C374.299 435.54 363.203 435.307 356.575 434.439C351.768 433.804 348.591 432.766 346.919 432.089L363.605 478.685Z" fill="white"/>
<path d="M359.984 442.907C357.93 442.907 356.257 441.235 356.257 439.181C356.257 437.128 357.93 435.455 359.984 435.455C362.038 435.455 363.711 437.128 363.711 439.181C363.711 441.235 362.038 442.907 359.984 442.907ZM359.984 436.725C358.628 436.725 357.527 437.826 357.527 439.181C357.527 440.536 358.628 441.637 359.984 441.637C361.339 441.637 362.44 440.536 362.44 439.181C362.44 437.826 361.339 436.725 359.984 436.725Z" fill="white"/>
<path d="M374.723 452.879C372.669 452.879 370.996 451.206 370.996 449.153C370.996 447.099 372.669 445.427 374.723 445.427C376.777 445.427 378.449 447.099 378.449 449.153C378.449 451.206 376.777 452.879 374.723 452.879ZM374.723 446.697C373.367 446.697 372.266 447.798 372.266 449.153C372.266 450.508 373.367 451.609 374.723 451.609C376.078 451.609 377.179 450.508 377.179 449.153C377.179 447.798 376.078 446.697 374.723 446.697Z" fill="white"/>
<path d="M385.691 441.807C383.637 441.807 381.964 440.134 381.964 438.081C381.964 436.027 383.637 434.354 385.691 434.354C387.745 434.354 389.418 436.027 389.418 438.081C389.418 440.134 387.745 441.807 385.691 441.807ZM385.691 435.625C384.336 435.625 383.234 436.726 383.234 438.081C383.234 439.435 384.336 440.536 385.691 440.536C387.046 440.536 388.147 439.435 388.147 438.081C388.147 436.726 387.046 435.625 385.691 435.625Z" fill="white"/>
<path d="M381.35 464.479C379.296 464.479 377.623 462.807 377.623 460.753C377.623 458.7 379.296 457.027 381.35 457.027C383.404 457.027 385.077 458.7 385.077 460.753C385.077 462.807 383.404 464.479 381.35 464.479ZM381.35 458.298C379.995 458.298 378.894 459.398 378.894 460.753C378.894 462.108 379.995 463.209 381.35 463.209C382.705 463.209 383.806 462.108 383.806 460.753C383.806 459.398 382.705 458.298 381.35 458.298Z" fill="white"/>
<path d="M363.076 458.849C361.022 458.849 359.349 457.176 359.349 455.122C359.349 453.069 361.022 451.396 363.076 451.396C365.13 451.396 366.803 453.069 366.803 455.122C366.803 457.176 365.13 458.849 363.076 458.849ZM363.076 452.667C361.721 452.667 360.62 453.768 360.62 455.122C360.62 456.477 361.721 457.578 363.076 457.578C364.431 457.578 365.532 456.477 365.532 455.122C365.532 453.768 364.431 452.667 363.076 452.667Z" fill="white"/>
<path d="M368.116 475.785C366.062 475.785 364.389 474.113 364.389 472.059C364.389 470.005 366.062 468.333 368.116 468.333C370.17 468.333 371.842 470.005 371.842 472.059C371.842 474.113 370.17 475.785 368.116 475.785ZM368.116 469.603C366.76 469.603 365.659 470.704 365.659 472.059C365.659 473.414 366.76 474.515 368.116 474.515C369.471 474.515 370.572 473.414 370.572 472.059C370.572 470.704 369.471 469.603 368.116 469.603Z" fill="white"/>
<path d="M403.267 501.295L384.59 540.058C381.943 546.303 375.823 550.368 369.026 550.368H345.203C339.105 550.368 335.399 544.186 337.728 538.555L361.678 480.802C363.012 477.288 365.363 474.366 368.306 472.313C371.271 470.259 374.828 469.095 378.576 469.095C383.785 469.095 388.952 472.63 392.383 476.547L400.683 485.502C404.516 489.863 405.511 495.981 403.267 501.295Z" fill="#66B0F0"/>
<path d="M403.267 501.295L384.59 540.058C381.943 546.303 375.823 550.367 369.026 550.367H343.7C341.35 550.367 340.015 548.907 339.232 546.896H344.865C351.662 546.896 357.782 542.831 360.429 536.586L381.964 491.683C383.976 487.491 388.232 484.803 392.891 484.803C398.968 484.803 403.584 489.249 404.431 494.88C404.516 497.039 404.135 499.22 403.267 501.295Z" fill="white"/>
<path d="M369.026 551.003H343.7C341.349 551.003 339.634 549.69 338.639 547.129C338.554 546.938 338.596 546.705 338.702 546.536C338.829 546.367 339.02 546.261 339.232 546.261H344.864C351.408 546.261 357.295 542.365 359.836 536.332C359.836 536.332 359.836 536.311 359.857 536.311L381.392 491.408C383.51 487.005 388.02 484.168 392.891 484.168C399.01 484.168 404.135 488.635 405.067 494.796C405.067 494.817 405.067 494.838 405.067 494.859C405.151 497.145 404.749 499.411 403.86 501.549C403.86 501.549 403.86 501.57 403.838 501.57L385.162 540.312C382.409 546.811 376.077 551.003 369.026 551.003ZM340.227 547.531C341.032 549.034 342.154 549.733 343.7 549.733H369.026C375.569 549.733 381.456 545.837 383.997 539.804C383.997 539.804 383.997 539.783 384.018 539.783L402.695 501.041C403.5 499.093 403.881 497.04 403.796 494.944C402.949 489.439 398.375 485.438 392.891 485.438C388.507 485.438 384.442 488 382.536 491.959L361 536.84C358.247 543.339 351.916 547.531 344.864 547.531H340.227Z" fill="#66B0F0"/>
<path d="M398.968 483.639C396.723 482.411 394.013 481.522 391.641 481.522C387.089 481.522 382.875 484.169 380.905 488.276L358.607 534.766C355.77 541.477 349.206 545.817 341.9 545.817H337.792C337.58 545.415 337.432 544.991 337.284 544.547H341.9C348.697 544.547 354.796 540.503 357.443 534.258L357.464 534.237L379.783 487.725C381.964 483.173 386.623 480.252 391.663 480.252C393.272 480.252 395.199 480.781 396.851 481.353L398.968 483.639Z" fill="white"/>
<path d="M320.979 361.485L315.664 430.903L313.292 462.002C313.292 462.002 297.813 479.235 280.194 468.607L272.042 430.924L253.386 344.697C248.346 321.388 264.27 298.715 287.924 295.561L320.979 361.485Z" fill="#A0505A"/>
<path d="M292.116 473.54C288.326 473.54 284.154 472.587 279.877 470.005L279.644 469.856L271.216 430.014L272.232 430.331C292.285 436.344 315.282 430.374 315.515 430.31L316.383 430.077L313.927 463.124L313.779 463.294C313.609 463.463 309.755 467.718 303.636 470.724C300.565 472.206 296.584 473.54 292.116 473.54ZM280.766 469.052C287.796 473.201 295.292 473.371 303.043 469.581C308.294 466.998 311.936 463.357 312.677 462.574L314.964 431.728C313.037 432.173 308.04 433.253 301.581 433.846C294.149 434.544 283.244 434.714 272.868 431.834L280.766 469.052Z" fill="white"/>
<path d="M291.332 450.739C289.278 450.739 287.605 449.067 287.605 447.013C287.605 444.96 289.278 443.287 291.332 443.287C293.386 443.287 295.059 444.96 295.059 447.013C295.059 449.067 293.386 450.739 291.332 450.739ZM291.332 444.557C289.977 444.557 288.876 445.658 288.876 447.013C288.876 448.368 289.977 449.469 291.332 449.469C292.688 449.469 293.789 448.368 293.789 447.013C293.789 445.658 292.688 444.557 291.332 444.557Z" fill="white"/>
<path d="M310.983 445.998C308.929 445.998 307.256 444.325 307.256 442.272C307.256 440.218 308.929 438.546 310.983 438.546C313.037 438.546 314.71 440.218 314.71 442.272C314.71 444.325 313.037 445.998 310.983 445.998ZM310.983 439.816C309.628 439.816 308.527 440.917 308.527 442.272C308.527 443.627 309.628 444.728 310.983 444.728C312.339 444.728 313.44 443.627 313.44 442.272C313.44 440.917 312.339 439.816 310.983 439.816Z" fill="white"/>
<path d="M279.474 441.806C277.42 441.806 275.747 440.133 275.747 438.08C275.747 436.026 277.42 434.354 279.474 434.354C281.528 434.354 283.201 436.026 283.201 438.08C283.201 440.133 281.528 441.806 279.474 441.806ZM279.474 435.624C278.119 435.624 277.018 436.725 277.018 438.08C277.018 439.434 278.119 440.535 279.474 440.535C280.829 440.535 281.93 439.434 281.93 438.08C281.93 436.725 280.829 435.624 279.474 435.624Z" fill="white"/>
<path d="M288.241 467.57C286.187 467.57 284.514 465.898 284.514 463.844C284.514 461.791 286.187 460.118 288.241 460.118C290.295 460.118 291.968 461.791 291.968 463.844C291.968 465.898 290.295 467.57 288.241 467.57ZM288.241 461.388C286.886 461.388 285.785 462.489 285.785 463.844C285.785 465.199 286.886 466.3 288.241 466.3C289.596 466.3 290.697 465.199 290.697 463.844C290.697 462.489 289.596 461.388 288.241 461.388Z" fill="white"/>
<path d="M302.661 461.389C300.607 461.389 298.935 459.716 298.935 457.663C298.935 455.609 300.607 453.937 302.661 453.937C304.715 453.937 306.388 455.609 306.388 457.663C306.388 459.716 304.715 461.389 302.661 461.389ZM302.661 455.207C301.306 455.207 300.205 456.308 300.205 457.663C300.205 459.017 301.306 460.118 302.661 460.118C304.017 460.118 305.118 459.017 305.118 457.663C305.118 456.308 304.017 455.207 302.661 455.207Z" fill="white"/>
<path d="M333.705 469.412L313.292 551.024H306.855C306.558 551.024 306.283 551.003 305.986 550.982C301.116 550.537 297.008 546.43 295.97 541.582L280.173 468.565C297.791 479.214 313.292 461.981 313.292 461.981L333.705 469.412Z" fill="#66B0F0"/>
<path d="M334.743 511.288C339.041 488.593 340.227 471.255 332.816 469.857C325.404 468.46 312.212 483.512 307.913 506.207C303.615 528.902 305.859 548.971 313.271 550.368C320.682 551.787 330.444 534.004 334.743 511.288Z" fill="white"/>
<path d="M314.118 551.088C313.8 551.088 313.461 551.067 313.143 551.003C309.29 550.284 306.6 545.076 305.563 536.354C304.567 527.949 305.181 517.194 307.278 506.101C309.268 495.622 313.313 485.862 318.67 478.622C323.583 471.995 328.919 468.481 332.921 469.243C336.775 469.963 338.681 474.324 338.787 482.581C338.872 489.313 337.749 498.734 335.357 511.415C333.663 520.349 331.1 528.753 327.945 535.718C324.832 542.599 321.423 547.426 318.098 549.691C316.743 550.601 315.409 551.088 314.118 551.088ZM331.82 470.408C328.432 470.408 323.879 473.753 319.708 479.384C314.456 486.476 310.496 496.045 308.527 506.334C306.452 517.321 305.838 527.928 306.812 536.205C307.765 544.208 310.158 549.141 313.376 549.754C314.605 549.987 315.96 549.606 317.4 548.632C323.901 544.208 330.783 528.817 334.107 511.182C336.5 498.607 337.601 489.249 337.516 482.602C337.432 475.15 335.801 471.085 332.688 470.492C332.413 470.429 332.117 470.408 331.82 470.408Z" fill="#66B0F0"/>
<path d="M304.948 505.847C302.725 517.618 302.069 528.986 303.127 537.878C303.89 544.271 305.499 548.823 307.701 551.024H306.854C306.558 551.024 306.282 551.003 305.986 550.982C303.996 548.357 302.577 543.954 301.857 538.026C300.777 529.028 301.433 517.512 303.699 505.614C305.838 494.351 310.158 483.787 315.896 475.848C319.327 471.106 322.926 467.782 326.209 466.279L328.114 466.914C320.555 469.158 309.078 484.062 304.948 505.847Z" fill="white"/>
<path d="M287.924 295.54L384.527 285.59L481.088 312.667L480.262 325.496C478.949 345.735 461.5 361.486 441.214 361.486H321.001L287.924 295.54Z" fill="#FE5244"/>
<path d="M436.957 353.231H316.744C316.384 353.231 316.108 352.955 316.108 352.596C316.108 352.236 316.384 351.96 316.744 351.96H436.957C446.147 351.96 455.782 347.112 463.406 338.623C470.626 330.578 474.946 320.522 474.946 311.737C474.946 311.377 475.222 311.102 475.582 311.102C475.942 311.102 476.217 311.377 476.217 311.737C476.217 320.84 471.77 331.213 464.358 339.491C456.481 348.213 446.507 353.231 436.957 353.231Z" fill="white"/>
<path d="M427.492 342.645H311.874C311.514 342.645 311.238 342.37 311.238 342.01C311.238 341.65 311.514 341.375 311.874 341.375H427.492C435.518 341.375 443.818 337.606 450.828 330.747C457.413 324.311 462.029 316.013 463.491 307.968C463.554 307.629 463.893 307.396 464.232 307.46C464.571 307.523 464.803 307.862 464.74 308.201C461.754 324.481 445.724 342.645 427.492 342.645Z" fill="white"/>
<path d="M417.306 331.848H305.732C305.372 331.848 305.097 331.572 305.097 331.212C305.097 330.853 305.372 330.577 305.732 330.577H417.306C432.553 330.577 445.788 316.859 450.51 303.966C450.637 303.627 450.997 303.458 451.314 303.585C451.653 303.712 451.823 304.072 451.696 304.39C449.07 311.566 444.326 318.32 438.313 323.401C431.769 328.926 424.506 331.848 417.306 331.848Z" fill="white"/>
<path d="M411.801 320.204H300.227C299.867 320.204 299.592 319.929 299.592 319.569C299.592 319.209 299.867 318.934 300.227 318.934H411.801C422.304 318.934 433.315 312.096 440.557 301.109C440.748 300.812 441.15 300.728 441.447 300.918C441.743 301.109 441.828 301.511 441.637 301.807C434.141 313.155 422.728 320.204 411.801 320.204Z" fill="white"/>
<path d="M406.507 309.619H294.933C294.573 309.619 294.298 309.344 294.298 308.984C294.298 308.624 294.573 308.349 294.933 308.349H406.507C414.596 308.349 422.749 304.623 429.462 297.869C429.716 297.615 430.118 297.615 430.351 297.869C430.605 298.123 430.605 298.526 430.351 298.758C423.405 305.766 414.935 309.619 406.507 309.619Z" fill="white"/>
<path d="M400.79 298.822H289.216C288.856 298.822 288.581 298.547 288.581 298.187C288.581 297.827 288.856 297.552 289.216 297.552H400.79C405.554 297.552 410.34 296.197 415.041 293.551C415.337 293.381 415.74 293.487 415.909 293.783C416.079 294.08 415.973 294.482 415.676 294.651C410.785 297.425 405.766 298.822 400.79 298.822Z" fill="white"/>
<path d="M320.768 362.122C320.535 362.122 320.302 361.995 320.196 361.762L287.141 295.816C286.992 295.499 287.12 295.118 287.416 294.969C287.734 294.821 288.115 294.948 288.263 295.245L321.318 361.19C321.466 361.508 321.339 361.889 321.043 362.037C320.958 362.101 320.873 362.122 320.768 362.122Z" fill="white"/>
<path d="M486.381 224.302C477.276 226.885 468.318 226.122 467.365 223.349C466.476 220.703 470.499 216.172 478.652 213.166C479.054 213.018 479.478 212.87 479.901 212.722C482.358 211.896 484.814 211.367 487.122 211.091C493.962 210.223 499.531 211.451 500.23 213.526C501.183 216.299 496.016 221.571 486.381 224.302Z" fill="white"/>
<path d="M475.539 226.524C470.923 226.524 467.429 225.487 466.751 223.56C465.608 220.173 470.626 215.452 478.419 212.573C478.821 212.424 479.245 212.276 479.668 212.128H479.69C482.082 211.324 484.56 210.773 487.037 210.477C494.047 209.588 499.976 210.815 500.823 213.335C501.119 214.16 500.971 215.177 500.42 216.235C498.642 219.622 493.2 223.052 486.55 224.936C482.718 225.995 478.843 226.524 475.539 226.524ZM491.463 211.451C490.171 211.451 488.753 211.535 487.207 211.726C484.814 212.022 482.421 212.551 480.113 213.335C479.69 213.483 479.266 213.631 478.885 213.779C475.2 215.134 472.066 216.934 470.076 218.86C468.403 220.469 467.62 222.078 467.98 223.158C468.678 225.211 476.831 226.355 486.212 223.708C491.4 222.247 497.456 219.178 499.298 215.642C499.679 214.901 499.806 214.245 499.637 213.737C499.256 212.615 496.249 211.451 491.463 211.451Z" fill="#3FB1B5"/>
<path d="M480.621 286.034H477.127L467.958 224.153V224.11L467.725 222.565C468.17 219.749 472.574 215.769 480.346 213.186C484.221 211.895 488.075 211.323 491.357 211.26L494.703 220.427L495.02 221.295L505.608 250.319C511.961 267.658 499.107 286.034 480.621 286.034Z" fill="#A0505A"/>
<path d="M494.914 221.083C492.691 222.48 489.811 223.771 486.381 224.745C478.503 226.968 470.52 226.058 467.958 224.153V224.11L467.725 222.565C468.17 219.749 472.574 215.769 480.346 213.186C484.221 211.895 488.075 211.323 491.357 211.26L494.914 221.083Z" fill="#73325A"/>
<path d="M367.205 235.119L356.088 262.768C350.603 276.423 337.347 285.378 322.609 285.378H173.173V271.702C173.173 268.399 175.206 265.435 178.298 264.271L193.65 258.449C195.048 257.92 196.509 257.645 197.991 257.645H215.419L314.054 247.694L331.079 208.72L367.205 235.119Z" fill="#A0505A"/>
<path d="M173.809 277.482C173.449 277.482 173.173 277.206 173.173 276.846C173.173 274.073 174.846 271.638 177.451 270.643L189.034 266.261C189.351 266.134 189.733 266.304 189.86 266.621C189.987 266.939 189.817 267.32 189.5 267.447L177.917 271.829C175.82 272.633 174.444 274.602 174.444 276.846C174.444 277.206 174.169 277.482 173.809 277.482Z" fill="#73325A"/>
<path d="M173.809 284.468C173.449 284.468 173.173 284.193 173.173 283.833C173.173 281.059 174.846 278.625 177.451 277.63L189.034 273.247C189.351 273.12 189.733 273.29 189.86 273.607C189.987 273.925 189.817 274.306 189.5 274.433L177.917 278.815C175.82 279.62 174.444 281.589 174.444 283.833C174.444 284.193 174.169 284.468 173.809 284.468Z" fill="#73325A"/>
<path d="M177.683 285.378C177.429 285.378 177.175 285.209 177.091 284.955C176.963 284.616 177.133 284.256 177.472 284.15L189.055 279.98C189.394 279.853 189.754 280.022 189.859 280.361C189.986 280.699 189.817 281.059 189.478 281.165L177.895 285.336C177.832 285.357 177.747 285.378 177.683 285.378Z" fill="#73325A"/>
<path d="M188.06 260.799C188.06 260.799 198.901 233.129 202.374 233.595C205.847 234.06 192.761 259.02 192.761 259.02L188.06 260.799Z" fill="#FE5244"/>
<path d="M331.079 208.741L328.581 214.436L360.577 251.59L367.205 235.12L331.079 208.741Z" fill="#73325A"/>
<path d="M467.958 224.174L481.087 312.667L384.548 285.59L367.205 235.098L322.44 202.39L338.152 183.676C352.17 166.972 372.859 157.318 394.67 157.318H425.692C452.67 157.318 477.509 172.053 490.447 195.721L500.505 213.124C500.505 213.124 497.477 208.678 481.151 213.145C466.773 217.104 467.958 224.174 467.958 224.174Z" fill="#3FB1B5"/>
<path d="M367.205 235.331C367.163 235.331 367.099 235.331 367.057 235.31C366.718 235.225 366.506 234.886 366.591 234.547L371.61 212.784C371.694 212.446 372.033 212.234 372.372 212.318C372.711 212.403 372.922 212.742 372.838 213.081L367.819 234.844C367.756 235.14 367.502 235.331 367.205 235.331Z" fill="white"/>
<path d="M478.652 292.639C478.355 292.639 478.08 292.428 478.017 292.11L461.69 190.64C461.627 190.302 461.86 189.963 462.22 189.921C462.558 189.857 462.897 190.09 462.939 190.45L479.266 291.92C479.329 292.258 479.097 292.597 478.737 292.639C478.715 292.639 478.694 292.639 478.652 292.639Z" fill="white"/>
<path d="M480.876 313.302C480.812 313.302 480.77 313.302 480.706 313.281L384.357 285.802C384.019 285.696 383.828 285.357 383.913 285.018C384.018 284.68 384.357 284.489 384.696 284.574L481.045 312.053C481.384 312.159 481.574 312.498 481.49 312.836C481.405 313.111 481.151 313.302 480.876 313.302Z" fill="white"/>
<path d="M389.735 143.176V157.403L414.85 157.191V132.083L389.735 143.176Z" fill="#A0505A"/>
<path d="M416.883 127.7V128.082C416.883 131.892 414.003 134.983 410.191 134.983H408.709C407.756 138.751 399.286 143.155 393.272 143.155H386.263C378.597 143.155 372.732 136.274 373.981 128.695L374.32 126.642L372.245 125.478C371.059 124.8 370.72 123.255 371.546 122.154L376.035 116.226L377.009 110.383C377.793 105.577 380.948 101.661 385.14 99.7344C386.792 118.343 403.224 120.545 407.565 120.799H409.979C413.791 120.799 416.883 123.89 416.883 127.7Z" fill="#A0505A"/>
<path d="M405.766 130.156C405.406 130.156 405.13 129.881 405.13 129.521C405.13 126.176 407.862 123.445 411.208 123.445C411.568 123.445 411.843 123.721 411.843 124.08C411.843 124.44 411.568 124.716 411.208 124.716C408.561 124.716 406.401 126.875 406.401 129.521C406.401 129.881 406.126 130.156 405.766 130.156Z" fill="#73325A"/>
<path d="M382.811 120.989C383.408 120.989 383.891 119.871 383.891 118.491C383.891 117.112 383.408 115.993 382.811 115.993C382.215 115.993 381.731 117.112 381.731 118.491C381.731 119.871 382.215 120.989 382.811 120.989Z" fill="#73325A"/>
<path d="M387.216 115.337C387.025 115.337 386.834 115.253 386.707 115.083C383.891 111.188 381.265 111.4 381.223 111.4C380.863 111.442 380.566 111.188 380.524 110.828C380.482 110.489 380.736 110.172 381.096 110.129C381.223 110.108 384.484 109.854 387.724 114.321C387.936 114.596 387.872 114.999 387.576 115.21C387.47 115.295 387.343 115.337 387.216 115.337Z" fill="#73325A"/>
<path d="M407.566 120.799H409.98C413.791 120.799 416.883 123.89 416.883 127.701V128.082C416.883 131.893 414.003 134.983 410.191 134.983L408.561 136.127C401.7 140.53 392.213 157.847 394.543 170.105C397.168 183.887 409.175 186.957 420.271 184.84C431.367 182.723 439.456 176.266 436.83 162.463C436.534 160.833 436.047 159.202 435.433 157.593C435.623 157.657 435.793 157.72 435.983 157.784C449.324 161.425 464.994 161.849 469.314 151.433C473.633 141.017 472.659 130.707 459.679 125.33C452.14 122.197 441.891 122.218 433.95 124.377C437.953 110.468 430.838 94.9925 417.772 93.4471C397.253 91.0125 385.479 99.4807 385.162 99.7136C385.141 102.169 386.813 119.593 407.566 120.799Z" fill="#73325A"/>
<path d="M435.983 158.44C435.687 158.44 435.411 158.229 435.369 157.932C433.124 146.183 423.511 139.705 423.405 139.641C423.235 139.535 423.129 139.324 423.129 139.112C423.129 138.9 423.235 138.71 423.405 138.583C429.969 133.946 432.807 127.256 433.908 123.7C434.014 123.361 434.374 123.17 434.691 123.276C435.03 123.382 435.221 123.742 435.115 124.06C434.014 127.659 431.219 134.264 424.845 139.091C427.238 140.89 434.628 147.199 436.618 157.678C436.682 158.017 436.449 158.356 436.11 158.419C436.068 158.44 436.025 158.44 435.983 158.44Z" fill="white"/>
<path d="M440.24 124.059H434.628C434.268 124.059 433.993 123.784 433.993 123.424V117.814C433.993 114.533 436.661 111.865 439.944 111.865H440.24C443.522 111.865 446.19 114.533 446.19 117.814V118.111C446.212 119.677 445.597 121.18 444.475 122.302C443.353 123.424 441.849 124.059 440.24 124.059ZM435.264 122.789H440.24C441.511 122.789 442.675 122.302 443.565 121.392C444.433 120.503 444.92 119.338 444.92 118.111V117.814C444.92 115.231 442.823 113.135 440.24 113.135H439.944C437.36 113.135 435.264 115.231 435.264 117.814V122.789Z" fill="#FE5244"/>
<path d="M443.374 132.654C441.108 132.654 438.927 131.554 437.635 129.521L434.035 123.805C433.845 123.509 433.929 123.107 434.226 122.937L439.943 119.338C441.468 118.386 443.289 118.068 445.047 118.47C446.804 118.873 448.308 119.931 449.282 121.455L449.621 121.985C450.595 123.509 450.891 125.33 450.489 127.087C450.087 128.844 449.028 130.347 447.503 131.321L446.974 131.659C445.873 132.316 444.623 132.654 443.374 132.654ZM435.454 123.657L438.715 128.844C440.325 131.384 443.734 132.146 446.317 130.537L446.847 130.199C448.096 129.415 448.943 128.209 449.261 126.769C449.578 125.33 449.324 123.869 448.541 122.62L448.202 122.09C447.418 120.841 446.211 119.995 444.771 119.677C443.331 119.359 441.87 119.613 440.621 120.397L435.454 123.657Z" fill="#FE5244"/>
<path d="M408.688 149.591C408.54 149.591 408.391 149.591 408.243 149.57C406.655 149.443 405.215 148.723 404.177 147.517L403.987 147.284C402.949 146.098 402.441 144.574 402.547 143.007C402.653 141.42 403.373 139.959 404.58 138.922L408.561 135.111C408.688 134.984 408.857 134.92 409.027 134.942C409.196 134.942 409.365 135.026 409.471 135.153L413.389 139.578C414.426 140.785 414.956 142.33 414.829 143.918C414.702 145.506 413.982 146.945 412.775 147.982L412.521 148.173C411.483 149.083 410.128 149.591 408.688 149.591ZM408.984 136.466L405.469 139.832L405.448 139.853C404.495 140.679 403.923 141.822 403.839 143.092C403.754 144.341 404.156 145.527 404.961 146.458C404.961 146.458 404.961 146.479 404.982 146.479L405.173 146.712C405.977 147.644 407.1 148.215 408.349 148.321C409.598 148.406 410.805 148.004 411.758 147.199L412.012 146.987C412.944 146.183 413.516 145.061 413.622 143.812C413.706 142.563 413.304 141.356 412.499 140.403L408.984 136.466Z" fill="#FE5244"/>
<path d="M416.798 147.263C413.834 147.263 411.102 145.294 410.255 142.309L408.455 135.81C408.37 135.471 408.561 135.132 408.9 135.026L415.401 133.227C417.137 132.74 418.958 132.973 420.525 133.841C422.092 134.73 423.236 136.17 423.723 137.906L423.892 138.52C424.379 140.256 424.146 142.076 423.278 143.643C422.389 145.209 420.949 146.353 419.212 146.84L418.598 147.009C417.984 147.199 417.391 147.263 416.798 147.263ZM411.483 141.97C412.309 144.871 415.337 146.607 418.238 145.802L418.852 145.633C420.271 145.231 421.436 144.32 422.156 143.05C422.876 141.78 423.045 140.298 422.664 138.879L422.494 138.266C422.092 136.847 421.182 135.683 419.911 134.963C418.641 134.243 417.158 134.074 415.739 134.455L409.853 136.085L411.483 141.97Z" fill="#FE5244"/>
<path d="M316.193 551.003C316.15 551.003 316.108 551.003 316.066 550.982C315.727 550.919 315.494 550.58 315.579 550.22L352.466 377.618C352.53 377.279 352.869 377.046 353.229 377.131C353.568 377.194 353.8 377.533 353.716 377.893L316.807 550.495C316.743 550.792 316.489 551.003 316.193 551.003Z" fill="#FFCF2D"/>
<path d="M484.369 551.004C484.073 551.004 483.818 550.792 483.755 550.496L446.867 377.893C446.804 377.555 447.015 377.216 447.354 377.131C447.693 377.068 448.032 377.28 448.117 377.618L485.004 550.221C485.068 550.559 484.856 550.898 484.517 550.983C484.454 551.004 484.411 551.004 484.369 551.004Z" fill="#FFCF2D"/>
<path d="M475.687 512.685H324.367C324.007 512.685 323.731 512.41 323.731 512.05C323.731 511.69 324.007 511.415 324.367 511.415H475.687C476.047 511.415 476.322 511.69 476.322 512.05C476.322 512.41 476.047 512.685 475.687 512.685Z" fill="#FFCF2D"/>
<path d="M476.512 377.766H324.027C322.1 377.766 320.533 376.199 320.533 374.272V364.978C320.533 363.052 322.1 361.485 324.027 361.485H476.512C478.439 361.485 480.006 363.052 480.006 364.978V374.272C480.006 376.199 478.439 377.766 476.512 377.766Z" fill="white"/>
<path d="M476.512 378.401H324.027C321.74 378.401 319.898 376.559 319.898 374.273V364.979C319.898 362.692 321.74 360.851 324.027 360.851H476.512C478.799 360.851 480.642 362.692 480.642 364.979V374.273C480.642 376.559 478.799 378.401 476.512 378.401ZM324.027 362.121C322.46 362.121 321.168 363.412 321.168 364.979V374.273C321.168 375.839 322.46 377.131 324.027 377.131H476.512C478.079 377.131 479.371 375.839 479.371 374.273V364.979C479.371 363.412 478.079 362.121 476.512 362.121H324.027Z" fill="#66B0F0"/>
</svg>
