<svg width="507" height="454" viewBox="0 0 507 454" fill="none" xmlns="http://www.w3.org/2000/svg">
<path d="M406.421 453.522H0L166.082 60.1523H240.34L406.421 453.522Z" fill="#D0F0E4"/>
<path fill-rule="evenodd" clip-rule="evenodd" d="M203.212 22.8516L210.594 30.2145L209.916 30.8903L203.212 24.2032L196.509 30.8903L195.831 30.2145L203.212 22.8516Z" fill="#FFCF2D"/>
<path fill-rule="evenodd" clip-rule="evenodd" d="M203.69 0V23.5283H202.731V0H203.69Z" fill="#FFCF2D"/>
<path d="M203.21 72.4172C209.472 72.4172 214.549 67.3535 214.549 61.107C214.549 54.8606 209.472 49.7969 203.21 49.7969C196.948 49.7969 191.872 54.8606 191.872 61.107C191.872 67.3535 196.948 72.4172 203.21 72.4172Z" fill="#FFCF2D"/>
<path fill-rule="evenodd" clip-rule="evenodd" d="M203.21 50.2741C197.213 50.2741 192.351 55.1239 192.351 61.1064C192.351 67.0889 197.213 71.9387 203.21 71.9387C209.207 71.9387 214.069 67.0889 214.069 61.1064C214.069 55.1239 209.207 50.2741 203.21 50.2741ZM191.393 61.1064C191.393 54.596 196.683 49.3184 203.21 49.3184C209.736 49.3184 215.027 54.596 215.027 61.1064C215.027 67.6168 209.736 72.8944 203.21 72.8944C196.683 72.8944 191.393 67.6168 191.393 61.1064Z" fill="white"/>
<path fill-rule="evenodd" clip-rule="evenodd" d="M203.226 30.5066C185.706 30.5066 170.755 41.1648 167.555 55.746L166.693 59.674H239.744L238.881 55.73C238.881 55.7299 238.881 55.7299 238.881 55.7298C237.281 48.4373 232.759 42.1308 226.424 37.6507L226.424 37.6503C220.104 33.1697 211.977 30.5066 203.226 30.5066ZM166.619 55.5415C169.935 40.4296 185.358 29.5508 203.226 29.5508C212.169 29.5508 220.491 32.2718 226.978 36.8709C233.483 41.4707 238.159 47.9717 239.817 55.5257L239.817 55.5259L240.934 60.6298H165.502L166.619 55.5415C166.619 55.5415 166.619 55.5415 166.619 55.5415Z" fill="#9A3B82"/>
<path d="M338.266 313.848H330.729V361.318H338.266V313.848Z" fill="#66B0F0"/>
<path d="M475.141 361.318H432.232C430.683 361.318 429.485 359.98 429.676 358.451L435.649 308.16C435.809 306.87 436.911 305.898 438.204 305.898H481.114C482.663 305.898 483.861 307.237 483.669 308.766L477.696 359.056C477.537 360.346 476.435 361.318 475.141 361.318Z" fill="#9A3B82"/>
<path d="M451.762 361.318H417.875C415.799 361.318 414.186 359.502 414.426 357.447L418.77 320.824C418.977 319.088 420.462 317.766 422.219 317.766H456.92L451.762 361.318Z" fill="white"/>
<path fill-rule="evenodd" clip-rule="evenodd" d="M419.245 320.882C419.245 320.882 419.245 320.882 419.245 320.882L414.901 357.503C414.901 357.503 414.901 357.503 414.901 357.504C414.695 359.276 416.087 360.841 417.875 360.841H451.336L456.381 318.245H422.219C420.706 318.245 419.424 319.385 419.245 320.882ZM418.294 320.769C418.53 318.793 420.218 317.289 422.219 317.289H457.459L452.188 361.797H417.875C415.511 361.797 413.677 359.73 413.95 357.393L413.95 357.392L418.294 320.769Z" fill="#FFCF2D"/>
<path d="M455.564 361.318H423.226C421.15 361.318 419.537 359.502 419.777 357.447L424.12 320.824C424.328 319.088 425.813 317.766 427.57 317.766H460.323C461.361 317.766 462.175 318.674 462.048 319.709L457.289 359.772C457.193 360.665 456.442 361.318 455.564 361.318Z" fill="white"/>
<path fill-rule="evenodd" clip-rule="evenodd" d="M424.596 320.882C424.596 320.882 424.596 320.882 424.596 320.882L420.252 357.503C420.252 357.503 420.252 357.503 420.252 357.504C420.046 359.276 421.438 360.841 423.226 360.841H455.564C456.201 360.841 456.743 360.368 456.812 359.723L456.812 359.72L461.572 319.654L461.572 319.652C461.664 318.904 461.075 318.245 460.323 318.245H427.569C426.056 318.245 424.775 319.385 424.596 320.882ZM423.644 320.769C423.88 318.793 425.569 317.289 427.569 317.289H460.323C461.646 317.289 462.686 318.446 462.523 319.768C462.523 319.768 462.523 319.768 462.523 319.769L457.765 359.825C457.765 359.826 457.765 359.826 457.764 359.827C457.641 360.965 456.682 361.797 455.564 361.797H423.226C420.862 361.797 419.028 359.73 419.3 357.393L419.3 357.392L423.644 320.769Z" fill="#FFCF2D"/>
<path fill-rule="evenodd" clip-rule="evenodd" d="M338.268 320.506H352.305V361.796H338.268V320.506ZM339.226 321.462V360.84H351.347V321.462H339.226Z" fill="#9A3B82"/>
<path fill-rule="evenodd" clip-rule="evenodd" d="M346.796 320.506H366.167V361.796H346.796V320.506ZM347.754 321.462V360.84H365.209V321.462H347.754Z" fill="#9A3B82"/>
<path fill-rule="evenodd" clip-rule="evenodd" d="M363.225 316.078H369.359L388.719 361.797H382.585L363.225 316.078ZM364.669 317.034L383.22 360.841H387.274L368.724 317.034H364.669Z" fill="#9A3B82"/>
<path fill-rule="evenodd" clip-rule="evenodd" d="M371.173 322.879H381.701L398.433 361.795H387.905L371.173 322.879ZM372.626 323.835L388.536 360.84H396.979L381.07 323.835H372.626Z" fill="#9A3B82"/>
<path fill-rule="evenodd" clip-rule="evenodd" d="M316.581 320.506H330.73V361.796H316.581V320.506ZM317.539 321.462V360.84H329.772V321.462H317.539Z" fill="#9A3B82"/>
<path fill-rule="evenodd" clip-rule="evenodd" d="M316.581 289.588H378.894V298.413H316.581V289.588ZM317.539 290.544V297.457H377.935V290.544H317.539Z" fill="#9A3B82"/>
<path d="M394.783 284.045H317.06V290.385H394.783V284.045Z" fill="#FE5244"/>
<path d="M369.519 274.9H317.06V283.885H369.519V274.9Z" fill="#FFCF2D"/>
<path fill-rule="evenodd" clip-rule="evenodd" d="M316.581 267.557H378.894V275.219H316.581V267.557ZM317.539 268.512V274.263H377.935V268.512H317.539Z" fill="#9A3B82"/>
<path d="M484.275 250.352L484.227 250.623L476.977 297.934H409.714L416.964 250.623L417.06 249.954C418.21 247.628 425.236 245.828 433.748 245.828C443.058 245.828 450.596 247.979 450.596 250.623C450.596 247.979 458.133 245.828 467.443 245.828C476.434 245.844 483.764 247.835 484.275 250.352Z" fill="white"/>
<path fill-rule="evenodd" clip-rule="evenodd" d="M417.523 250.102L417.438 250.692L410.272 297.456H476.566L483.755 250.545L483.786 250.367C483.667 249.957 483.259 249.483 482.447 248.994C481.6 248.485 480.401 248.014 478.914 247.613C475.944 246.812 471.908 246.313 467.443 246.305C462.82 246.305 458.654 246.84 455.66 247.693C454.159 248.12 452.98 248.62 452.187 249.154C451.377 249.699 451.075 250.204 451.075 250.622H450.117C450.117 250.204 449.815 249.699 449.005 249.154C448.211 248.62 447.032 248.12 445.532 247.693C442.537 246.84 438.372 246.305 433.748 246.305C429.522 246.305 425.678 246.753 422.76 247.482C421.3 247.847 420.086 248.279 419.177 248.751C418.297 249.209 417.761 249.675 417.523 250.102ZM450.596 249.315C450.328 248.963 449.962 248.645 449.541 248.361C448.629 247.748 447.342 247.215 445.795 246.774C442.693 245.89 438.435 245.35 433.748 245.35C429.462 245.35 425.537 245.802 422.527 246.555C421.023 246.931 419.732 247.385 418.734 247.904C417.751 248.415 416.986 249.023 416.63 249.742L416.597 249.81L416.49 250.555L409.156 298.412H477.389L484.7 250.7L484.763 250.345L484.745 250.257C484.576 249.426 483.875 248.737 482.941 248.176C481.989 247.603 480.697 247.104 479.164 246.69C476.094 245.862 471.97 245.358 467.444 245.35H467.443C462.757 245.35 458.499 245.89 455.397 246.774C453.849 247.215 452.562 247.748 451.651 248.361C451.229 248.645 450.864 248.963 450.596 249.315Z" fill="#FFCF2D"/>
<path fill-rule="evenodd" clip-rule="evenodd" d="M451.085 250.71L443.899 298.021L442.951 297.878L450.137 250.566L451.085 250.71Z" fill="#FFCF2D"/>
<path d="M443.426 297.949C443.426 295.305 435.888 293.154 426.578 293.154C417.268 293.154 409.73 295.305 409.73 297.949H443.426Z" fill="#FFCF2D"/>
<path d="M477.121 297.949C477.121 295.305 469.584 293.154 460.273 293.154C450.963 293.154 443.426 295.305 443.426 297.949H477.121Z" fill="#FFCF2D"/>
<path fill-rule="evenodd" clip-rule="evenodd" d="M482.178 247.793C482.439 247.835 482.617 248.079 482.576 248.34L475.297 293.989L474.744 293.776C471.808 292.645 466.146 291.834 460.37 292.04C455.746 292.206 451.6 292.886 448.637 293.843C447.152 294.322 445.991 294.862 445.217 295.423C444.427 295.996 444.144 296.511 444.159 296.929C444.169 297.193 443.962 297.415 443.698 297.424C443.433 297.434 443.211 297.227 443.201 296.964C443.169 296.06 443.782 295.283 444.654 294.65C445.543 294.006 446.81 293.428 448.342 292.933C451.411 291.943 455.649 291.253 460.335 291.085C465.852 290.888 471.328 291.601 474.534 292.685L481.63 248.19C481.671 247.929 481.917 247.752 482.178 247.793Z" fill="#FFCF2D"/>
<path d="M478.912 234.566H418.516V221.153C418.516 219.831 419.586 218.764 420.911 218.764H476.532C477.858 218.764 478.928 219.831 478.928 221.153V234.566H478.912Z" fill="white"/>
<path fill-rule="evenodd" clip-rule="evenodd" d="M420.91 219.241C419.849 219.241 418.993 220.094 418.993 221.153V234.087H478.447V221.153C478.447 220.094 477.592 219.241 476.531 219.241H420.91ZM418.035 221.153C418.035 219.566 419.32 218.285 420.91 218.285H476.531C478.121 218.285 479.406 219.566 479.406 221.153V235.043H418.035V221.153Z" fill="#9A3B82"/>
<path d="M483.734 218.126H431.69C430.875 218.126 430.236 217.473 430.236 216.677V211.34C430.236 210.528 430.891 209.891 431.69 209.891H483.734C484.548 209.891 485.187 210.544 485.187 211.34V216.677C485.187 217.473 484.532 218.126 483.734 218.126Z" fill="#FFCF2D"/>
<path d="M485.762 204.889H424.024V209.891H485.762V204.889Z" fill="#FE5244"/>
<path d="M484.643 204.889H437.517C436.894 204.889 436.399 204.38 436.399 203.774V199.744C436.399 199.123 436.91 198.629 437.517 198.629H484.643C485.266 198.629 485.761 199.139 485.761 199.744V203.774C485.761 204.38 485.266 204.889 484.643 204.889Z" fill="white"/>
<path fill-rule="evenodd" clip-rule="evenodd" d="M437.518 199.106C437.171 199.106 436.879 199.39 436.879 199.743V203.774C436.879 204.119 437.164 204.411 437.518 204.411H484.644C484.998 204.411 485.283 204.119 485.283 203.774V199.743C485.283 199.398 484.998 199.106 484.644 199.106H437.518ZM435.921 199.743C435.921 198.854 436.651 198.15 437.518 198.15H484.644C485.536 198.15 486.241 198.879 486.241 199.743V203.774C486.241 204.638 485.536 205.367 484.644 205.367H437.518C436.626 205.367 435.921 204.638 435.921 203.774V199.743Z" fill="#9A3B82"/>
<path fill-rule="evenodd" clip-rule="evenodd" d="M336.398 184.881H355.482V235.044H336.398V184.881ZM337.357 185.837V234.088H354.524V185.837H337.357Z" fill="#9A3B82"/>
<path d="M336.879 185.359H329.565V234.566H336.879V185.359Z" fill="white"/>
<path fill-rule="evenodd" clip-rule="evenodd" d="M329.086 184.881H337.358V235.044H329.086V184.881ZM330.044 185.837V234.088H336.4V185.837H330.044Z" fill="#9A3B82"/>
<path d="M329.564 185.359H317.268V234.566H329.564V185.359Z" fill="white"/>
<path fill-rule="evenodd" clip-rule="evenodd" d="M316.789 184.881H330.044V235.044H316.789V184.881ZM317.747 185.837V234.088H329.085V185.837H317.747Z" fill="#9A3B82"/>
<path fill-rule="evenodd" clip-rule="evenodd" d="M356.921 193.77H373.769V235.06H356.921V193.77ZM357.879 194.725V234.104H372.81V194.725H357.879Z" fill="#9A3B82"/>
<path d="M358.55 234.565H352.29C351.683 234.565 351.172 234.071 351.172 233.45V195.33C351.172 194.725 351.667 194.215 352.29 194.215H358.55C359.157 194.215 359.668 194.709 359.668 195.33V233.45C359.652 234.071 359.157 234.565 358.55 234.565Z" fill="white"/>
<path fill-rule="evenodd" clip-rule="evenodd" d="M352.289 194.694C351.936 194.694 351.651 194.985 351.651 195.331V233.451C351.651 233.804 351.943 234.088 352.289 234.088H358.549C358.883 234.088 359.176 233.815 359.188 233.444V195.331C359.188 194.978 358.896 194.694 358.549 194.694H352.289ZM350.692 195.331C350.692 194.466 351.397 193.738 352.289 193.738H358.549C359.416 193.738 360.146 194.442 360.146 195.331V233.457L360.146 233.463C360.124 234.332 359.427 235.044 358.549 235.044H352.289C351.422 235.044 350.692 234.341 350.692 233.451V195.331Z" fill="#9A3B82"/>
<path d="M373.289 194.248V216.359L364.682 194.248H373.289Z" fill="#9A3B82"/>
<path d="M410.082 234.566H384.658C384.099 234.566 383.588 234.216 383.397 233.706L366.884 191.301C366.533 190.409 367.188 189.453 368.146 189.453H393.569C394.128 189.453 394.639 189.804 394.831 190.313L411.343 232.718C411.695 233.61 411.04 234.566 410.082 234.566Z" fill="white"/>
<path fill-rule="evenodd" clip-rule="evenodd" d="M368.147 189.93C367.526 189.93 367.103 190.547 367.331 191.126L367.332 191.127L383.845 233.535L383.846 233.538C383.966 233.857 384.296 234.088 384.659 234.088H410.083C410.703 234.088 411.126 233.471 410.898 232.892L394.384 190.483L394.383 190.48C394.263 190.161 393.934 189.93 393.57 189.93H368.147ZM366.439 191.474C365.965 190.269 366.852 188.975 368.147 188.975H393.57C394.323 188.975 395.015 189.443 395.279 190.142C395.28 190.143 395.28 190.144 395.28 190.145L411.79 232.543C411.79 232.543 411.79 232.543 411.79 232.543C412.265 233.749 411.378 235.043 410.083 235.043H384.659C383.906 235.043 383.214 234.575 382.95 233.876C382.95 233.875 382.949 233.874 382.949 233.873L366.439 191.475C366.439 191.475 366.439 191.474 366.439 191.474Z" fill="#FFCF2D"/>
<path d="M414.234 234.566H388.81C388.252 234.566 387.74 234.216 387.549 233.706L371.037 191.301C370.685 190.409 371.34 189.453 372.298 189.453H397.721C398.28 189.453 398.791 189.804 398.983 190.313L415.495 232.718C415.847 233.61 415.192 234.566 414.234 234.566Z" fill="white"/>
<path fill-rule="evenodd" clip-rule="evenodd" d="M372.299 189.93C371.678 189.93 371.256 190.547 371.484 191.126L371.484 191.127L387.998 233.535L387.999 233.538C388.118 233.857 388.448 234.088 388.812 234.088H414.235C414.855 234.088 415.278 233.471 415.05 232.892L398.536 190.483L398.535 190.48C398.415 190.161 398.086 189.93 397.722 189.93H372.299ZM370.591 191.474C370.117 190.269 371.004 188.975 372.299 188.975H397.722C398.476 188.975 399.167 189.443 399.432 190.142C399.432 190.143 399.432 190.144 399.433 190.145L415.942 232.543C415.942 232.543 415.942 232.543 415.942 232.543C416.417 233.749 415.53 235.043 414.235 235.043H388.812C388.058 235.043 387.366 234.575 387.102 233.876C387.102 233.875 387.102 233.874 387.101 233.873L370.592 191.475C370.592 191.475 370.591 191.474 370.591 191.474Z" fill="#FFCF2D"/>
<path fill-rule="evenodd" clip-rule="evenodd" d="M444.12 107.332L459.476 160.758L459.013 160.888C456.593 161.569 454.026 161.942 451.394 161.942C436.006 161.942 423.543 149.509 423.543 134.16C423.543 121.501 432.042 110.803 443.66 107.465L444.12 107.332ZM443.465 108.52C432.483 111.891 424.501 122.105 424.501 134.16C424.501 148.982 436.535 160.986 451.394 160.986C453.768 160.986 456.088 160.672 458.289 160.094L443.465 108.52Z" fill="#FFCF2D"/>
<path fill-rule="evenodd" clip-rule="evenodd" d="M450.916 171.196V161.463H451.874V171.196H450.916Z" fill="#FFCF2D"/>
<path d="M451.394 157.289C464.2 157.289 474.581 146.934 474.581 134.159C474.581 121.385 464.2 111.029 451.394 111.029C438.587 111.029 428.206 121.385 428.206 134.159C428.206 146.934 438.587 157.289 451.394 157.289Z" fill="white"/>
<path fill-rule="evenodd" clip-rule="evenodd" d="M451.394 111.509C438.853 111.509 428.686 121.65 428.686 134.161C428.686 146.671 438.853 156.813 451.394 156.813C463.936 156.813 474.103 146.671 474.103 134.161C474.103 121.65 463.936 111.509 451.394 111.509ZM427.728 134.161C427.728 121.122 438.323 110.553 451.394 110.553C464.465 110.553 475.061 121.122 475.061 134.161C475.061 147.199 464.465 157.769 451.394 157.769C438.323 157.769 427.728 147.199 427.728 134.161Z" fill="#3FB1B5"/>
<path d="M461.087 171.133H441.78L451.362 166.338L461.087 171.133Z" fill="white"/>
<path fill-rule="evenodd" clip-rule="evenodd" d="M451.36 165.805L463.138 171.611H439.757L451.36 165.805ZM451.364 166.872L443.804 170.656H459.037L451.364 166.872Z" fill="#FFCF2D"/>
<path fill-rule="evenodd" clip-rule="evenodd" d="M316.581 170.719H486.24V453.998H476.547V432.971C476.547 428.663 473.04 425.165 468.722 425.165H334.004C329.685 425.165 326.179 428.663 326.179 432.971V453.998H316.581V170.719ZM317.539 171.675V453.042H325.22V432.971C325.22 428.135 329.156 424.209 334.004 424.209H468.722C473.569 424.209 477.505 428.135 477.505 432.971V453.042H485.282V171.675H317.539Z" fill="#9A3B82"/>
<path fill-rule="evenodd" clip-rule="evenodd" d="M328.862 369.124C327.275 369.124 326.003 370.406 326.003 371.975V413.536C326.003 415.118 327.288 416.387 328.862 416.387H473.64C475.214 416.387 476.499 415.118 476.499 413.536V371.975C476.499 370.393 475.214 369.124 473.64 369.124H328.862ZM325.045 371.975C325.045 369.881 326.743 368.168 328.862 368.168H473.64C475.74 368.168 477.457 369.862 477.457 371.975V413.536C477.457 415.649 475.74 417.343 473.64 417.343H328.862C326.762 417.343 325.045 415.649 325.045 413.536V371.975Z" fill="#3FB1B5"/>
<path d="M408.884 132.424V171.197H395.278L408.884 132.424Z" fill="#9A3B82"/>
<path d="M408.883 132.424L408.788 132.711L395.357 171.197H332.917L346.347 132.711L346.778 131.484C348.791 128.601 354.364 126.498 361.007 126.387C361.119 126.387 361.215 126.387 361.327 126.387C361.438 126.387 361.534 126.387 361.646 126.387C369.407 126.387 376.322 129.079 377.583 132.615C378.829 129.079 385.44 126.387 393.201 126.387C400.803 126.387 407.462 128.983 408.883 132.424Z" fill="white"/>
<path fill-rule="evenodd" clip-rule="evenodd" d="M361.004 125.908H361.647C365.579 125.908 369.308 126.589 372.228 127.729C374.65 128.675 376.599 129.97 377.58 131.526C378.534 129.974 380.411 128.678 382.771 127.731C385.616 126.589 389.271 125.908 393.203 125.908C397.054 125.908 400.679 126.565 403.534 127.669C406.364 128.762 408.54 130.336 409.328 132.241L409.395 132.406L409.242 132.864L395.699 171.674H332.244L345.896 132.553L346.349 131.264L346.386 131.211C347.472 129.655 349.473 128.363 351.993 127.446C354.525 126.526 357.633 125.965 361 125.908L361.004 125.908ZM361.012 126.864C357.738 126.919 354.739 127.465 352.321 128.344C349.923 129.217 348.146 130.398 347.21 131.705L346.801 132.868L333.592 170.719H395.018L408.334 132.559L408.336 132.553L408.372 132.447C407.678 130.971 405.849 129.588 403.188 128.56C400.458 127.505 396.953 126.864 393.203 126.864C389.373 126.864 385.842 127.529 383.129 128.618C380.39 129.717 378.589 131.203 378.037 132.773L377.587 134.048L377.133 132.775C376.575 131.21 374.703 129.722 371.879 128.619C369.085 127.529 365.477 126.864 361.647 126.864H361.012Z" fill="#FFCF2D"/>
<path fill-rule="evenodd" clip-rule="evenodd" d="M377.729 132.165C377.978 132.254 378.108 132.527 378.019 132.776L364.461 170.561C364.371 170.81 364.097 170.939 363.848 170.85C363.599 170.761 363.469 170.488 363.558 170.239L377.116 132.454C377.206 132.205 377.48 132.076 377.729 132.165Z" fill="#FFCF2D"/>
<path d="M363.978 170.719H332.917C334.067 167.135 340.518 164.379 348.28 164.379C356.073 164.379 362.828 167.135 363.978 170.719Z" fill="#FFCF2D"/>
<path d="M395.278 170.719H364.218C365.368 167.135 371.819 164.379 379.58 164.379C387.373 164.379 394.128 167.135 395.278 170.719Z" fill="#FFCF2D"/>
<path fill-rule="evenodd" clip-rule="evenodd" d="M393.122 379.175C392.127 379.175 391.333 379.978 391.333 380.959C391.333 381.223 391.119 381.437 390.854 381.437C390.589 381.437 390.375 381.223 390.375 380.959C390.375 379.454 391.593 378.219 393.122 378.219H410.065C411.573 378.219 412.812 379.434 412.812 380.959C412.812 381.223 412.598 381.437 412.333 381.437C412.068 381.437 411.854 381.223 411.854 380.959C411.854 379.966 411.049 379.175 410.065 379.175H393.122Z" fill="#9A3B82"/>
<path fill-rule="evenodd" clip-rule="evenodd" d="M316.581 297.951C316.581 297.687 316.796 297.473 317.06 297.473H485.761C486.025 297.473 486.24 297.687 486.24 297.951C486.24 298.215 486.025 298.428 485.761 298.428H317.06C316.796 298.428 316.581 298.215 316.581 297.951Z" fill="#9A3B82"/>
<path fill-rule="evenodd" clip-rule="evenodd" d="M316.581 234.566C316.581 234.302 316.796 234.088 317.06 234.088H485.761C486.025 234.088 486.24 234.302 486.24 234.566C486.24 234.83 486.025 235.044 485.761 235.044H317.06C316.796 235.044 316.581 234.83 316.581 234.566Z" fill="#9A3B82"/>
<path fill-rule="evenodd" clip-rule="evenodd" d="M316.581 361.32C316.581 361.056 316.796 360.842 317.06 360.842H485.761C486.025 360.842 486.24 361.056 486.24 361.32C486.24 361.584 486.025 361.798 485.761 361.798H317.06C316.796 361.798 316.581 361.584 316.581 361.32Z" fill="#9A3B82"/>
<path fill-rule="evenodd" clip-rule="evenodd" d="M337.979 111.55C338.228 111.638 338.36 111.91 338.273 112.159L317.735 170.719H485.421L506.069 111.844C506.156 111.595 506.429 111.463 506.679 111.55C506.929 111.638 507.061 111.91 506.973 112.159L486.213 171.354C486.146 171.546 485.964 171.674 485.761 171.674H317.06C316.905 171.674 316.759 171.599 316.669 171.473C316.58 171.347 316.557 171.185 316.608 171.039L337.368 111.844C337.456 111.595 337.729 111.463 337.979 111.55Z" fill="#9A3B82"/>
<path d="M145.835 432.941V450.273C145.835 452.073 147.288 453.523 149.093 453.523H192.53C192.53 453.523 192.785 445.478 186.174 443.232C174.947 439.425 169.709 432.941 169.709 432.941H145.835Z" fill="white"/>
<path fill-rule="evenodd" clip-rule="evenodd" d="M145.836 432.463H169.939L170.083 432.641L170.083 432.641L170.085 432.643C170.087 432.646 170.09 432.65 170.095 432.655C170.104 432.666 170.118 432.683 170.137 432.706C170.175 432.751 170.235 432.819 170.314 432.909C170.474 433.087 170.716 433.349 171.043 433.676C171.696 434.33 172.687 435.246 174.025 436.281C176.703 438.35 180.773 440.895 186.328 442.779L186.329 442.779C189.826 443.967 191.496 446.693 192.286 449.068C192.681 450.256 192.862 451.368 192.943 452.182C192.984 452.59 193.001 452.925 193.007 453.159C193.01 453.277 193.011 453.369 193.01 453.433C193.01 453.465 193.01 453.49 193.01 453.508C193.009 453.516 193.009 453.523 193.009 453.528L193.009 453.534L193.009 453.537C193.009 453.537 193.009 453.537 192.53 453.522L193.009 453.537L192.994 454H149.093C147.024 454 145.356 452.336 145.356 450.272V432.941H145.836V432.463ZM146.315 433.419V450.272C146.315 451.808 147.553 453.044 149.093 453.044H192.045C192.036 452.843 192.021 452.583 191.99 452.278C191.913 451.513 191.744 450.474 191.377 449.369C190.642 447.161 189.134 444.742 186.02 443.684C180.349 441.761 176.187 439.16 173.439 437.036C172.065 435.974 171.044 435.031 170.364 434.351C170.024 434.01 169.77 433.736 169.599 433.545C169.557 433.498 169.52 433.455 169.488 433.419H146.315Z" fill="#FE5244"/>
<path fill-rule="evenodd" clip-rule="evenodd" d="M175.042 434.707C175.487 434.764 175.95 434.922 176.309 435.28C176.651 435.621 176.848 436.014 176.891 436.442C176.934 436.862 176.826 437.272 176.639 437.649C176.272 438.39 175.555 439.104 174.766 439.725C173.182 440.97 171.086 442.007 170.127 442.275L169.869 441.354C170.682 441.128 172.666 440.158 174.173 438.974C174.929 438.38 175.509 437.773 175.78 437.226C175.912 436.958 175.958 436.731 175.938 436.539C175.919 436.355 175.837 436.16 175.632 435.956C175.472 435.796 175.235 435.695 174.92 435.655C174.605 435.615 174.248 435.64 173.898 435.7C173.551 435.76 173.23 435.85 172.995 435.927C172.878 435.965 172.783 435.999 172.719 436.023C172.687 436.035 172.662 436.044 172.646 436.051C172.638 436.054 172.633 436.056 172.629 436.057L172.625 436.059C172.625 436.059 172.626 436.059 172.441 435.618C172.257 435.177 172.257 435.177 172.257 435.177L172.258 435.176L172.261 435.175L172.268 435.172C172.274 435.17 172.282 435.166 172.293 435.162C172.314 435.154 172.344 435.142 172.382 435.128C172.458 435.099 172.566 435.061 172.699 435.018C172.963 434.932 173.33 434.828 173.735 434.759C174.138 434.689 174.598 434.65 175.042 434.707Z" fill="#FE5244"/>
<path fill-rule="evenodd" clip-rule="evenodd" d="M182.339 437.474C181.175 436.538 179.774 437.029 178.84 437.568C178.351 437.851 177.929 438.179 177.631 438.433C177.481 438.561 177.36 438.673 177.277 438.752C177.235 438.792 177.202 438.825 177.179 438.847C177.168 438.859 177.159 438.868 177.153 438.874L177.145 438.882L177.143 438.884L177.142 438.885C177.142 438.885 177.142 438.886 177.487 439.217C177.833 439.548 177.833 439.548 177.832 439.548L177.833 439.547L177.837 439.543C177.841 439.539 177.848 439.532 177.857 439.523C177.875 439.505 177.903 439.478 177.939 439.443C178.012 439.373 178.119 439.274 178.254 439.159C178.525 438.928 178.898 438.639 179.32 438.396C180.206 437.884 181.081 437.69 181.738 438.219L181.739 438.22C181.966 438.401 182.064 438.58 182.098 438.748C182.134 438.923 182.11 439.139 182.003 439.404C181.781 439.948 181.253 440.576 180.543 441.205C179.843 441.824 179.011 442.405 178.245 442.862C177.469 443.324 176.797 443.636 176.416 443.742L176.674 444.663C177.179 444.522 177.939 444.157 178.736 443.683C179.542 443.202 180.425 442.587 181.179 441.92C181.921 441.262 182.585 440.515 182.891 439.763C183.046 439.38 183.121 438.969 183.037 438.558C182.952 438.14 182.714 437.774 182.339 437.474Z" fill="#FE5244"/>
<path d="M171.051 434.343L145.835 442.165V432.941H169.725C169.725 432.941 170.156 433.483 171.051 434.343Z" fill="#FE5244"/>
<path d="M200.29 432.941V450.273C200.29 452.073 201.743 453.523 203.548 453.523H246.985C246.985 453.523 247.24 445.478 240.629 443.232C229.402 439.425 224.164 432.941 224.164 432.941H200.29Z" fill="white"/>
<path fill-rule="evenodd" clip-rule="evenodd" d="M200.291 432.463H224.394L224.538 432.641L224.538 432.641L224.54 432.643C224.542 432.646 224.545 432.65 224.55 432.655C224.559 432.666 224.573 432.683 224.592 432.706C224.631 432.751 224.69 432.819 224.769 432.909C224.929 433.087 225.171 433.349 225.498 433.676C226.152 434.33 227.142 435.246 228.481 436.281C231.158 438.35 235.228 440.895 240.784 442.779L240.784 442.779C244.281 443.967 245.951 446.693 246.741 449.068C247.136 450.256 247.317 451.368 247.398 452.182C247.439 452.59 247.456 452.925 247.462 453.159C247.465 453.277 247.466 453.369 247.465 453.433C247.465 453.465 247.465 453.49 247.465 453.508C247.465 453.516 247.464 453.523 247.464 453.528L247.464 453.534L247.464 453.537C247.464 453.537 247.464 453.537 246.985 453.522L247.464 453.537L247.449 454H203.548C201.479 454 199.812 452.336 199.812 450.272V432.941H200.291V432.463ZM200.77 433.419V450.272C200.77 451.808 202.008 453.044 203.548 453.044H246.5C246.492 452.843 246.476 452.583 246.445 452.278C246.368 451.513 246.199 450.474 245.832 449.369C245.097 447.161 243.589 444.742 240.475 443.684C234.804 441.761 230.642 439.16 227.894 437.036C226.52 435.974 225.499 435.031 224.819 434.351C224.48 434.01 224.225 433.736 224.054 433.545C224.012 433.498 223.975 433.455 223.943 433.419H200.77Z" fill="#FE5244"/>
<path fill-rule="evenodd" clip-rule="evenodd" d="M229.496 434.707C229.941 434.764 230.405 434.922 230.763 435.28C231.105 435.621 231.302 436.014 231.346 436.442C231.388 436.862 231.28 437.272 231.093 437.649C230.727 438.39 230.01 439.104 229.22 439.725C227.636 440.97 225.541 442.007 224.581 442.275L224.323 441.354C225.136 441.128 227.121 440.158 228.627 438.974C229.383 438.38 229.963 437.773 230.234 437.226C230.366 436.958 230.412 436.731 230.392 436.539C230.374 436.355 230.291 436.16 230.086 435.956C229.926 435.796 229.689 435.695 229.374 435.655C229.059 435.615 228.702 435.64 228.352 435.7C228.005 435.76 227.684 435.85 227.449 435.927C227.332 435.965 227.237 435.999 227.173 436.023C227.141 436.035 227.116 436.044 227.101 436.051C227.093 436.054 227.087 436.056 227.083 436.057L227.08 436.059C227.08 436.059 227.08 436.059 226.895 435.618C226.711 435.177 226.711 435.177 226.711 435.177L226.713 435.176L226.715 435.175L226.722 435.172C226.728 435.17 226.736 435.166 226.747 435.162C226.768 435.154 226.798 435.142 226.836 435.128C226.912 435.099 227.02 435.061 227.153 435.018C227.417 434.932 227.784 434.828 228.189 434.759C228.592 434.689 229.052 434.65 229.496 434.707Z" fill="#FE5244"/>
<path fill-rule="evenodd" clip-rule="evenodd" d="M236.794 437.474C235.63 436.538 234.229 437.029 233.295 437.568C232.806 437.851 232.384 438.179 232.086 438.433C231.936 438.561 231.815 438.673 231.732 438.752C231.69 438.792 231.657 438.825 231.634 438.847C231.623 438.859 231.614 438.868 231.608 438.874L231.6 438.882L231.598 438.884L231.597 438.885C231.597 438.885 231.597 438.886 231.942 439.217C232.288 439.548 232.288 439.548 232.287 439.548L232.288 439.547L232.292 439.543C232.296 439.539 232.303 439.532 232.312 439.523C232.33 439.505 232.358 439.478 232.394 439.443C232.467 439.373 232.574 439.274 232.709 439.159C232.98 438.928 233.353 438.639 233.775 438.396C234.661 437.884 235.536 437.69 236.193 438.219L236.194 438.22C236.421 438.401 236.519 438.58 236.553 438.748C236.589 438.923 236.565 439.139 236.458 439.404C236.236 439.948 235.708 440.576 234.998 441.205C234.298 441.824 233.466 442.405 232.7 442.862C231.924 443.324 231.252 443.636 230.871 443.742L231.129 444.663C231.634 444.522 232.394 444.157 233.191 443.683C233.997 443.202 234.88 442.587 235.634 441.92C236.376 441.262 237.04 440.515 237.346 439.763C237.501 439.38 237.575 438.969 237.492 438.558C237.407 438.14 237.169 437.774 236.794 437.474Z" fill="#FE5244"/>
<path d="M225.506 434.343L200.29 442.165V432.941H224.18C224.18 432.941 224.611 433.483 225.506 434.343Z" fill="#FE5244"/>
<path d="M157.576 260.422L141.846 424.69H174.743L191.271 345.089L198.026 362.054V424.69H232.28V354.455L214.011 260.422H157.576Z" fill="#3FB1B5"/>
<path fill-rule="evenodd" clip-rule="evenodd" d="M158.936 424.632L174.234 299.822L175.185 299.938L159.887 424.748L158.936 424.632Z" fill="#9A3B82"/>
<path fill-rule="evenodd" clip-rule="evenodd" d="M193.557 268.271L215.034 354.397V424.69H214.076V354.514L192.627 268.502L193.557 268.271Z" fill="#9A3B82"/>
<path fill-rule="evenodd" clip-rule="evenodd" d="M177.494 302.495C177.494 302.495 177.494 302.495 177.494 302.495L197.999 361.897L197.093 362.208L176.588 302.806C175.952 300.961 174.203 299.719 172.234 299.719V298.764C174.609 298.764 176.724 300.262 177.494 302.495Z" fill="white"/>
<path d="M154.973 287.582L157.576 260.422H214.011L215.624 268.769L154.973 287.582Z" fill="#9A3B82"/>
<path d="M232.344 432.941H197.898C196.605 432.941 195.551 431.89 195.551 430.599V427.031C195.551 425.741 196.605 424.689 197.898 424.689H232.344C233.638 424.689 234.692 425.741 234.692 427.031V430.599C234.676 431.89 233.638 432.941 232.344 432.941Z" fill="#9A3B82"/>
<path d="M175.333 432.941H140.887C139.593 432.941 138.539 431.89 138.539 430.599V427.031C138.539 425.741 139.593 424.689 140.887 424.689H175.333C176.626 424.689 177.68 425.741 177.68 427.031V430.599C177.664 431.89 176.626 432.941 175.333 432.941Z" fill="#9A3B82"/>
<path d="M267.267 265.234L278.062 305.52L224.245 319.873L213.434 279.555C213.099 278.296 212.284 277.309 211.246 276.703C210.208 276.098 208.931 275.891 207.669 276.225C205.162 276.894 203.661 279.475 204.331 281.976L215.143 322.294L213.961 322.613L203.166 282.327C202.303 279.125 204.156 275.843 207.318 274.887C207.381 274.871 207.445 274.855 207.509 274.84L259.761 260.901C263.035 260.041 266.389 261.984 267.267 265.234Z" fill="#66B0F0"/>
<path d="M214.632 279.284L225.427 319.57L224.245 319.889L213.434 279.571C213.099 278.312 212.284 277.325 211.246 276.719C210.208 276.114 208.931 275.907 207.669 276.241C205.162 276.911 203.661 279.491 204.331 281.992L215.143 322.31L213.961 322.629L203.166 282.343C202.303 279.141 204.156 275.859 207.318 274.903C210.527 274.155 213.769 276.082 214.632 279.284Z" fill="#9A3B82"/>
<path d="M213.434 279.555L223.575 317.404L214.472 319.826L204.332 281.977C203.661 279.476 205.146 276.895 207.67 276.226C208.931 275.891 210.209 276.098 211.247 276.704C212.285 277.309 213.099 278.297 213.434 279.555Z" fill="white"/>
<path d="M267.426 286.58L242.945 294.99L223.622 260.423H148.726C135.998 260.423 126.48 248.746 129.083 236.321L136.876 198.982C139.32 187.289 149.652 178.91 161.613 178.91H212.827C225.235 178.91 235.807 187.895 237.771 200.113L245.484 236.464L267.426 286.58Z" fill="#FFCF2D"/>
<path fill-rule="evenodd" clip-rule="evenodd" d="M137.346 199.079C137.346 199.079 137.346 199.079 137.346 199.079L129.553 236.418L129.553 236.418C127.012 248.546 136.303 259.944 148.726 259.944H223.904L243.169 294.408L266.78 286.296L245.026 236.61L237.301 200.199L237.299 200.188C235.372 188.202 225.001 179.387 212.828 179.387H161.614C149.88 179.387 139.743 187.608 137.346 199.079ZM136.408 198.884C138.898 186.97 149.426 178.432 161.614 178.432H212.828C225.467 178.432 236.237 187.581 238.243 200.025L245.944 236.317L268.074 286.862L242.723 295.572L223.342 260.9H148.726C135.695 260.9 125.95 248.945 128.615 236.223L136.408 198.884Z" fill="white"/>
<path d="M144.734 260.023C135.919 258.255 129.372 250.768 128.701 241.942C129.372 241.481 130.122 241.082 130.921 240.796C136.718 238.661 143.345 242.165 145.756 248.617C147.242 252.663 146.731 256.901 144.734 260.023Z" fill="white"/>
<path d="M200.499 156.512V178.925H175.698L181.415 164.015L200.499 156.512Z" fill="#E57281"/>
<path d="M206.199 147.082C206.183 147.082 206.151 147.098 206.135 147.098L198.773 149.041C196.138 149.742 194.11 151.685 193.248 154.139H190.421C188.633 154.139 187.18 155.588 187.18 157.372V157.42C187.18 159.109 188.473 160.495 190.134 160.638C190.118 160.654 190.118 160.654 190.118 160.654C190.118 160.654 188.809 166.866 181.159 164.78C181.159 164.78 181.463 148.436 181.782 143.354C182.053 139.165 204.331 131.232 206.391 134.609C208.211 137.604 206.103 139.005 204.315 139.627C207.477 138.958 213.449 138.066 214.056 140.726C214.759 143.816 208.451 146.492 206.199 147.082Z" fill="#9A3B82"/>
<path d="M207.637 158.535H206.855L207.078 162.358C207.238 165.098 205.034 167.424 202.287 167.424H198.838C195.516 167.424 192.818 164.732 192.818 161.418V160.67H190.438C188.65 160.67 187.196 159.22 187.196 157.436V157.388C187.196 155.604 188.65 154.154 190.438 154.154H193.265C194.127 151.701 196.155 149.742 198.79 149.057L206.152 147.113L208.675 157.197C208.931 157.834 208.324 158.535 207.637 158.535Z" fill="#E57281"/>
<path fill-rule="evenodd" clip-rule="evenodd" d="M193.608 161.324C193.827 161.345 193.988 161.539 193.967 161.758C193.815 163.356 194.534 164.737 195.707 165.734C196.886 166.736 198.503 167.328 200.07 167.328C200.29 167.328 200.469 167.506 200.469 167.726C200.469 167.946 200.29 168.124 200.07 168.124C198.315 168.124 196.514 167.466 195.19 166.341C193.86 165.211 192.99 163.59 193.173 161.683C193.194 161.464 193.388 161.303 193.608 161.324Z" fill="#9A3B82"/>
<path fill-rule="evenodd" clip-rule="evenodd" d="M189.625 155.73C189.625 155.51 189.804 155.332 190.024 155.332C191.49 155.332 192.675 156.514 192.675 157.976C192.675 158.196 192.496 158.375 192.276 158.375C192.055 158.375 191.877 158.196 191.877 157.976C191.877 156.954 191.049 156.129 190.024 156.129C189.804 156.129 189.625 155.95 189.625 155.73Z" fill="#9A3B82"/>
<path d="M204.924 155.699C205.25 155.699 205.515 155.15 205.515 154.473C205.515 153.795 205.25 153.246 204.924 153.246C204.598 153.246 204.333 153.795 204.333 154.473C204.333 155.15 204.598 155.699 204.924 155.699Z" fill="#9A3B82"/>
<path fill-rule="evenodd" clip-rule="evenodd" d="M202.369 151.892L202.127 151.575C201.951 151.709 201.918 151.959 202.052 152.134C202.186 152.308 202.436 152.342 202.611 152.208L202.614 152.207C202.616 152.205 202.621 152.201 202.627 152.197C202.64 152.188 202.659 152.173 202.686 152.155C202.74 152.117 202.822 152.063 202.929 151.997C203.145 151.864 203.462 151.686 203.865 151.507C204.671 151.148 205.809 150.793 207.144 150.793C207.364 150.793 207.543 150.614 207.543 150.394C207.543 150.174 207.364 149.996 207.144 149.996C205.668 149.996 204.418 150.389 203.54 150.779C203.1 150.975 202.751 151.171 202.51 151.319C202.39 151.393 202.296 151.455 202.231 151.5C202.199 151.522 202.174 151.54 202.156 151.553C202.148 151.56 202.141 151.565 202.136 151.568L202.13 151.573L202.128 151.574L202.127 151.575L202.127 151.575C202.127 151.575 202.127 151.575 202.369 151.892Z" fill="#9A3B82"/>
<path d="M194.767 270.633C194.767 270.633 214.329 271.477 221.212 255.819L217.571 249.176L206.696 253.349L194.767 270.633Z" fill="white"/>
<path fill-rule="evenodd" clip-rule="evenodd" d="M217.79 248.58L221.745 255.796L221.65 256.011C218.133 264.013 211.376 267.786 205.547 269.556C202.632 270.441 199.937 270.83 197.971 270.997C196.988 271.081 196.185 271.11 195.627 271.117C195.348 271.121 195.129 271.12 194.98 271.117C194.905 271.116 194.848 271.115 194.808 271.113C194.788 271.113 194.773 271.112 194.763 271.112L194.751 271.111L194.746 271.111C194.746 271.111 194.746 271.111 194.766 270.634L194.746 271.111L193.881 271.074L206.385 252.957L217.79 248.58ZM195.674 270.161C196.21 270.152 196.967 270.123 197.89 270.045C199.807 269.881 202.433 269.502 205.268 268.641C210.889 266.935 217.287 263.351 220.678 255.841L217.351 249.772L207.006 253.743L195.674 270.161Z" fill="#FE5244"/>
<path d="M210.433 174.816C209.491 174.896 208.629 175.31 207.99 175.947C207.287 176.648 206.84 177.62 206.84 178.703V257.189C206.84 264.676 200.756 270.746 193.25 270.746H163.084C154.971 270.746 148.711 263.721 149.574 255.74V255.724L160.433 181.22C160.976 177.54 164.122 174.816 167.859 174.816H210.433Z" fill="#FE5244"/>
<path fill-rule="evenodd" clip-rule="evenodd" d="M160.907 181.289C160.906 181.289 160.906 181.289 160.906 181.289L150.052 255.758V255.765L150.05 255.79C149.218 263.49 155.257 270.267 163.083 270.267H193.25C200.491 270.267 206.36 264.412 206.36 257.189V178.703C206.36 177.485 206.864 176.394 207.651 175.609C207.762 175.498 207.88 175.392 208.003 175.294H167.858C164.36 175.294 161.415 177.843 160.907 181.289ZM210.433 174.816V174.338H167.858C163.883 174.338 160.536 177.237 159.959 181.15L149.094 255.689V255.714C148.218 263.965 154.693 271.223 163.083 271.223H193.25C201.02 271.223 207.319 264.94 207.319 257.189V178.703C207.319 177.754 207.71 176.902 208.328 176.285C208.888 175.726 209.646 175.362 210.473 175.292L210.433 174.816Z" fill="#FE5244"/>
<path d="M207.397 174.817C206.455 174.896 205.593 175.311 204.954 175.948C204.363 176.537 203.964 177.302 203.852 178.162C203.836 178.337 203.82 178.512 203.82 178.688L203.182 184.693L195.516 257.174C195.516 264.661 189.432 270.73 181.926 270.73H163.098C154.986 270.73 148.726 263.705 149.588 255.724V255.708L154.491 222.033L160.447 181.205C160.495 180.854 160.575 180.504 160.671 180.153C161.597 177.015 164.504 174.801 167.857 174.801H207.397V174.817Z" fill="white"/>
<path fill-rule="evenodd" clip-rule="evenodd" d="M161.13 180.283C161.038 180.62 160.964 180.947 160.92 181.268L160.92 181.271L154.963 222.101L150.065 255.742V255.749L150.062 255.775C149.23 263.474 155.27 270.251 163.096 270.251H181.924C189.165 270.251 195.035 264.396 195.035 257.173V257.148L202.703 184.642L202.703 184.642L203.339 178.661C203.341 178.473 203.357 178.289 203.372 178.127L203.374 178.109L203.375 178.1C203.501 177.129 203.952 176.269 204.613 175.609C204.731 175.492 204.855 175.381 204.985 175.278H167.855C164.717 175.278 161.998 177.349 161.13 180.283ZM160.209 180.018C161.195 176.678 164.287 174.322 167.855 174.322H207.874V175.255L207.436 175.292C206.608 175.362 205.851 175.726 205.291 176.285C204.773 176.802 204.425 177.468 204.326 178.214C204.31 178.389 204.297 178.54 204.297 178.687V178.712L203.656 184.743L203.656 184.743L195.993 257.198C195.979 264.938 189.686 271.207 181.924 271.207H163.096C154.706 271.207 148.23 263.949 149.107 255.698V255.673L154.015 221.963L159.971 181.139C159.971 181.139 159.971 181.138 159.971 181.137C160.022 180.76 160.108 180.389 160.207 180.027L160.208 180.022L160.209 180.018Z" fill="#FE5244"/>
<path d="M200.675 190.444L197.817 211.837C196.874 216.218 193.457 218.56 188.507 219.356L154.651 224.263L159.586 190.428H200.675V190.444Z" fill="#FFCF2D"/>
<path d="M206.185 174.817H205.339C203.806 174.801 202.464 175.884 202.161 177.397L197.178 209.464C196.236 213.845 192.356 216.983 187.868 216.983H156.712C152.943 216.983 150.132 213.51 150.947 209.83L156.951 182.622C157.958 178.066 162.014 174.817 166.693 174.817H206.185Z" fill="#FE5244"/>
<path fill-rule="evenodd" clip-rule="evenodd" d="M205.342 174.338H206.186V175.294H205.276C204.001 175.308 202.892 176.216 202.633 177.48L197.651 209.55L197.648 209.563C196.658 214.164 192.583 217.46 187.869 217.46H156.713C152.639 217.46 149.599 213.706 150.48 209.727L156.484 182.519C157.539 177.744 161.79 174.338 166.694 174.338H205.27C205.294 174.338 205.318 174.338 205.342 174.338ZM202.833 175.294H166.694C162.239 175.294 158.378 178.388 157.42 182.724C157.42 182.724 157.42 182.724 157.42 182.724L151.416 209.933C150.667 213.313 153.249 216.504 156.713 216.504H187.869C192.125 216.504 195.808 213.531 196.708 209.376L201.69 177.313L201.692 177.303C201.852 176.504 202.264 175.81 202.833 175.294Z" fill="#FE5244"/>
<path d="M180.506 225.902L188.443 177.492C188.602 176.52 189.449 175.787 190.439 175.787C191.684 175.787 192.643 176.902 192.435 178.145L184.498 226.555C184.339 227.527 183.492 228.26 182.502 228.26C181.256 228.26 180.298 227.145 180.506 225.902Z" fill="white"/>
<path fill-rule="evenodd" clip-rule="evenodd" d="M188.916 177.57C188.916 177.57 188.916 177.57 188.916 177.57L180.979 225.981L180.979 225.982C180.82 226.932 181.552 227.783 182.503 227.783C183.253 227.783 183.904 227.225 184.026 226.479C184.026 226.479 184.026 226.479 184.026 226.479L191.963 178.069L191.963 178.067C192.122 177.117 191.39 176.266 190.44 176.266C189.689 176.266 189.039 176.825 188.916 177.57ZM187.971 177.416C188.167 176.218 189.21 175.311 190.44 175.311C191.98 175.311 193.164 176.689 192.908 178.224C192.908 178.224 192.908 178.224 192.908 178.225L184.972 226.634C184.775 227.832 183.732 228.739 182.503 228.739C180.962 228.739 179.778 227.36 180.034 225.826C180.034 225.825 180.034 225.825 180.034 225.825L187.971 177.416L187.971 177.416Z" fill="#FE5244"/>
<path d="M162.763 225.902L170.7 177.492C170.859 176.52 171.706 175.787 172.696 175.787C173.941 175.787 174.9 176.902 174.692 178.145L166.755 226.555C166.595 227.527 165.749 228.26 164.759 228.26C163.513 228.26 162.555 227.145 162.763 225.902Z" fill="white"/>
<path fill-rule="evenodd" clip-rule="evenodd" d="M171.174 177.57C171.174 177.57 171.174 177.57 171.174 177.57L163.237 225.981L163.237 225.982C163.078 226.932 163.81 227.783 164.761 227.783C165.511 227.783 166.161 227.225 166.284 226.479C166.284 226.479 166.284 226.479 166.284 226.479L174.221 178.069L174.221 178.067C174.38 177.117 173.648 176.266 172.697 176.266C171.947 176.266 171.297 176.825 171.174 177.57ZM170.229 177.416C170.425 176.218 171.468 175.311 172.697 175.311C174.238 175.311 175.422 176.689 175.166 178.224C175.166 178.224 175.166 178.224 175.166 178.225L167.23 226.634C167.033 227.832 165.99 228.739 164.761 228.739C163.22 228.739 162.036 227.36 162.292 225.826C162.292 225.825 162.292 225.825 162.292 225.825L170.229 177.416L170.229 177.416Z" fill="#FE5244"/>
<path d="M214.664 178.942L206.855 178.974V178.703C206.855 177.62 207.287 176.648 208.005 175.947C208.644 175.31 209.49 174.896 210.449 174.816H211.087C213.052 174.976 214.601 176.632 214.664 178.942Z" fill="white"/>
<path fill-rule="evenodd" clip-rule="evenodd" d="M210.429 174.338H211.107L211.127 174.339C213.364 174.521 215.074 176.405 215.144 178.928L215.157 179.418L206.377 179.453V178.703C206.377 177.49 206.86 176.397 207.669 175.607C208.385 174.894 209.335 174.429 210.409 174.34L210.429 174.338ZM210.47 175.294C209.636 175.368 208.902 175.729 208.345 176.285L208.343 176.287L208.341 176.289C207.76 176.855 207.392 177.626 207.341 178.494L214.147 178.466C213.906 176.646 212.616 175.428 211.068 175.294H210.47Z" fill="#FE5244"/>
<path d="M264.503 287.584L271.082 304.517C272.136 307.241 270.603 310.268 267.792 311.048L253.34 314.999C252.462 315.238 251.536 315.031 250.849 314.441L249.38 313.167L252.382 312.371C253.707 312.02 254.602 310.794 254.538 309.424L254.202 306.046C254.139 304.533 252.909 303.323 251.392 303.275H251.551C249.715 303.211 247.926 302.08 247.208 300.391L244.908 294.29L264.503 287.584Z" fill="#E57281"/>
<path fill-rule="evenodd" clip-rule="evenodd" d="M244.386 294.503C244.629 294.4 244.911 294.513 245.014 294.756L247.473 300.539C247.473 300.539 247.473 300.539 247.473 300.539C248.12 302.058 249.585 303.074 251.232 303.131C252.999 303.187 254.43 304.596 254.506 306.359C254.506 306.36 254.506 306.36 254.506 306.36L254.681 310.054C254.757 311.677 253.685 312.925 252.17 313.326C252.17 313.326 252.17 313.326 252.169 313.326L249.808 313.962C249.553 314.031 249.29 313.881 249.221 313.626C249.152 313.371 249.303 313.109 249.558 313.04L251.923 312.402L251.924 312.402C253.06 312.102 253.776 311.215 253.724 310.098L253.548 306.402L253.548 306.401C253.495 305.138 252.468 304.126 251.201 304.086L251.2 304.086C249.174 304.016 247.382 302.769 246.591 300.912L244.132 295.13C244.029 294.887 244.142 294.606 244.386 294.503Z" fill="white"/>
<path fill-rule="evenodd" clip-rule="evenodd" d="M259.929 304.518C260.194 304.506 260.418 304.709 260.43 304.973L260.654 309.689C260.744 311.666 259.447 313.429 257.535 313.932C257.279 314 257.017 313.847 256.95 313.592C256.882 313.337 257.035 313.075 257.29 313.008C258.764 312.62 259.766 311.261 259.697 309.733C259.697 309.733 259.697 309.733 259.697 309.732L259.473 305.018C259.461 304.754 259.665 304.531 259.929 304.518Z" fill="white"/>
<path fill-rule="evenodd" clip-rule="evenodd" d="M266.045 302.942C266.31 302.929 266.534 303.133 266.547 303.397L266.77 308.113C266.86 310.089 265.563 311.852 263.651 312.356C263.396 312.423 263.133 312.271 263.066 312.016C262.998 311.761 263.151 311.499 263.407 311.432C264.881 311.044 265.882 309.685 265.813 308.157C265.813 308.157 265.813 308.156 265.813 308.156L265.59 303.442C265.577 303.178 265.781 302.954 266.045 302.942Z" fill="white"/>
<path fill-rule="evenodd" clip-rule="evenodd" d="M212.212 237.239L208.348 217.072L209.289 216.893L213.153 237.06C213.799 240.451 214.995 243.731 216.678 246.745L216.679 246.747L243.153 294.408L267.254 286.128L267.566 287.031L242.705 295.573L215.841 247.211C215.841 247.211 215.841 247.211 215.841 247.21C214.108 244.107 212.876 240.73 212.212 237.239Z" fill="white"/>
<path d="M224.995 262.718L216.26 246.979C214.791 244.319 213.689 241.483 212.986 238.536C213.817 238.265 214.679 238.074 215.589 237.995C222.488 237.389 228.604 243.172 229.259 250.898C229.642 255.581 227.934 259.898 224.995 262.718Z" fill="white"/>
</svg>
