<svg width="130" height="23" viewBox="0 0 130 23" fill="none" xmlns="http://www.w3.org/2000/svg">
<g clip-path="url(#clip0_50664_2240)">
<path d="M0 11.1027C0 5.00273 3.3 1.30273 8.7 1.30273C12.8 1.30273 16.1 3.80273 16.7 7.50273C16.8 7.90273 16.5 8.20273 16.1 8.20273H13.5C13.2 8.20273 13 8.00273 12.9 7.70273C12.4 5.80273 10.8 4.60273 8.7 4.60273C5.8 4.60273 4 7.10273 4 11.1027C4 15.1027 5.8 17.6027 8.8 17.6027C10.9 17.6027 12.4 16.5027 13 14.7027C13.1 14.4027 13.3 14.2027 13.6 14.2027H16.2C16.6 14.2027 16.9 14.6027 16.8 14.9027C16.2 18.5027 13 20.9027 8.8 20.9027C3.3 20.9027 0 17.1027 0 11.1027Z" fill="white"/>
<path d="M24.2997 20.403H21.3997C21.0997 20.403 20.8997 20.203 20.8997 19.903V2.60299C20.8997 2.20299 21.2997 1.80299 21.6997 1.80299H28.6997C32.7997 1.80299 35.2997 4.10299 35.2997 7.70299C35.2997 9.80299 34.2997 11.703 32.5997 12.703C32.1997 12.903 32.0997 13.403 32.2997 13.703L35.3997 19.603C35.5997 19.903 35.2997 20.303 34.9997 20.303H31.6997C31.4997 20.303 31.2997 20.203 31.1997 20.003L28.2997 14.003C28.1997 13.703 27.8997 13.603 27.5997 13.603H25.2997C24.9997 13.603 24.7997 13.803 24.7997 14.103V20.003C24.8997 20.203 24.5997 20.403 24.2997 20.403ZM24.8997 10.203C24.8997 10.503 25.0997 10.703 25.3997 10.703H28.3997C30.3997 10.703 31.4997 9.60299 31.4997 7.80299C31.4997 6.00299 30.2997 4.90299 28.3997 4.90299H25.4997C25.1997 4.90299 24.9997 5.10299 24.9997 5.40299V10.203H24.8997Z" fill="white"/>
<path d="M51.4998 20.403H40.4998C40.0998 20.403 39.7998 20.103 39.7998 19.703V2.50299C39.7998 2.10299 40.0998 1.80299 40.4998 1.80299H51.4998C51.8998 1.80299 52.1998 2.10299 52.1998 2.50299V4.40299C52.1998 4.80299 51.8998 5.10299 51.4998 5.10299H44.1998C43.8998 5.10299 43.6998 5.30299 43.6998 5.60299V9.00299C43.6998 9.30299 43.8998 9.50299 44.1998 9.50299H50.9998C51.3998 9.50299 51.6998 9.80299 51.6998 10.203V11.903C51.6998 12.303 51.3998 12.603 50.9998 12.603H44.1998C43.8998 12.603 43.6998 12.803 43.6998 13.103V16.903C43.6998 17.203 43.8998 17.403 44.1998 17.403H51.4998C51.8998 17.403 52.1998 17.703 52.1998 18.103V20.003C52.1998 20.103 51.8998 20.403 51.4998 20.403Z" fill="white"/>
<path d="M66.9999 15.903H61.2999C60.9999 15.903 60.7999 16.103 60.6999 16.303L59.5999 20.003C59.4999 20.303 59.2999 20.403 58.9999 20.403H56.3999C55.9999 20.403 55.6999 20.003 55.7999 19.603L61.7999 2.20299C61.8999 2.00299 62.0999 1.80299 62.3999 1.80299H66.0999C66.3999 1.80299 66.5999 2.00299 66.6999 2.20299L72.6999 19.603C72.7999 20.003 72.4999 20.403 72.0999 20.403H69.1999C68.8999 20.403 68.6999 20.203 68.5999 20.003L67.4999 16.303C67.4999 16.103 67.1999 15.903 66.9999 15.903ZM62.0999 13.003H66.1999C66.3999 13.003 66.4999 12.803 66.4999 12.603L64.2999 5.60299H64.0999L61.8999 12.603C61.7999 12.803 61.8999 13.003 62.0999 13.003Z" fill="white"/>
<path d="M79.0001 19.7034V5.50338C79.0001 5.20338 78.8001 5.00338 78.5001 5.00338H74.1001C73.7001 5.00338 73.3001 4.70338 73.3001 4.20338V2.50338C73.3001 2.10338 73.6001 1.70338 74.1001 1.70338H87.7001C88.1001 1.70338 88.5001 2.00338 88.5001 2.50338V4.20338C88.5001 4.60338 88.2001 5.00338 87.7001 5.00338H83.3001C83.0001 5.00338 82.8001 5.20338 82.8001 5.50338V19.8034C82.8001 20.2034 82.5001 20.5034 82.1001 20.5034H79.6001C79.3001 20.4034 79.0001 20.1034 79.0001 19.7034Z" fill="white"/>
<path d="M103.8 20.403H92.7999C92.3999 20.403 92.0999 20.103 92.0999 19.703V2.50299C92.0999 2.10299 92.3999 1.80299 92.7999 1.80299H103.8C104.2 1.80299 104.5 2.10299 104.5 2.50299V4.40299C104.5 4.80299 104.2 5.10299 103.8 5.10299H96.4999C96.1999 5.10299 95.9999 5.30299 95.9999 5.60299V9.00299C95.9999 9.30299 96.1999 9.50299 96.4999 9.50299H103.3C103.7 9.50299 104 9.80299 104 10.203V11.903C104 12.303 103.7 12.603 103.3 12.603H96.4999C96.1999 12.603 95.9999 12.803 95.9999 13.103V16.903C95.9999 17.203 96.1999 17.403 96.4999 17.403H103.8C104.2 17.403 104.5 17.703 104.5 18.103V20.003C104.5 20.103 104.2 20.403 103.8 20.403Z" fill="white"/>
<path d="M117.7 9.70195L111.5 1.60195C111.1 1.20195 110.6 1.00195 110.1 1.00195C109.6 1.00195 109.1 1.20195 108.7 1.60195C108 2.40195 108 3.60195 108.7 4.40195L113.6 11.002L108.7 17.6019C108 18.402 108 19.6019 108.7 20.4019C109.1 20.8019 109.6 21.0019 110.1 21.0019C110.6 21.0019 111.1 20.8019 111.5 20.4019L117.7 12.302C118.4 11.702 118.4 10.502 117.7 9.70195Z" fill="#FF3F3A"/>
<path d="M120.343 9.70195L126.543 1.60195C126.943 1.20195 127.443 1.00195 127.943 1.00195C128.443 1.00195 128.943 1.20195 129.343 1.60195C130.043 2.40195 130.043 3.60195 129.343 4.40195L124.443 11.002L129.343 17.6019C130.043 18.402 130.043 19.6019 129.343 20.4019C128.943 20.8019 128.443 21.0019 127.943 21.0019C127.443 21.0019 126.943 20.8019 126.543 20.4019L120.343 12.302C119.643 11.702 119.643 10.502 120.343 9.70195Z" fill="#FF3F3A"/>
</g>
<defs>
<clipPath id="clip0_50664_2240">
<rect width="130" height="22" fill="white" transform="translate(0 0.00195312)"/>
</clipPath>
</defs>
</svg>
