<svg width="40" height="40" viewBox="0 0 40 40" fill="none" xmlns="http://www.w3.org/2000/svg">
<g id="Pin/solid">
<path id="Subtract" fill-rule="evenodd" clip-rule="evenodd" d="M21.5264 37.4011C25.1078 34.0879 33.75 25.1689 33.75 16.25C33.75 8.65608 27.5939 2.5 20 2.5C12.4061 2.5 6.25 8.65608 6.25 16.25C6.25 25.1689 14.8922 34.0879 18.4736 37.4011C19.3471 38.2091 20.6529 38.2091 21.5264 37.4011ZM20 21.875C23.1066 21.875 25.625 19.3566 25.625 16.25C25.625 13.1434 23.1066 10.625 20 10.625C16.8934 10.625 14.375 13.1434 14.375 16.25C14.375 19.3566 16.8934 21.875 20 21.875Z" fill="url(#paint0_linear_2435_8261)"/>
</g>
<defs>
<linearGradient id="paint0_linear_2435_8261" x1="6.25" y1="38.0071" x2="42.4245" y2="19.0726" gradientUnits="userSpaceOnUse">
<stop stop-color="#FF3F3A"/>
<stop offset="1" stop-color="#F75E05"/>
</linearGradient>
</defs>
</svg>
