<svg width="145" height="146" viewBox="0 0 145 146" fill="none" xmlns="http://www.w3.org/2000/svg">
<g opacity="0.6" clip-path="url(#clip0_2234_9749)">
<path d="M72.5498 0.953125C32.4434 0.953125 0 33.3965 0 73.5029C0 113.51 32.4434 146.053 72.5498 146.053C112.557 146.053 145.1 113.609 145.1 73.5029C145 33.3965 112.557 0.953125 72.5498 0.953125ZM72.5498 141.375C35.0309 141.375 4.67742 111.022 4.67742 73.5029C4.67742 35.984 35.0309 5.63054 72.5498 5.63054C110.069 5.63054 140.422 35.984 140.422 73.5029C140.422 110.922 109.969 141.375 72.5498 141.375Z" fill="white"/>
<path d="M72.5498 16.5781C41.2011 16.5781 15.7241 42.0551 15.7241 73.4038C15.7241 104.752 41.2011 130.229 72.5498 130.229C103.898 130.229 129.375 104.852 129.375 73.5033C129.375 42.0551 103.898 16.5781 72.5498 16.5781ZM72.5498 121.571C45.9781 121.571 24.3823 99.9755 24.3823 73.4038C24.3823 46.8321 45.9781 25.2363 72.5498 25.2363C99.1215 25.2363 120.717 46.8321 120.717 73.4038C120.717 99.9755 99.1215 121.571 72.5498 121.571Z" fill="white"/>
<path d="M72.5503 41.5566C54.9353 41.5566 40.6045 55.8875 40.6045 73.5024C40.6045 91.1174 54.8358 105.448 72.5503 105.448C90.1652 105.448 104.496 91.1174 104.496 73.5024C104.397 55.8875 90.1652 41.5566 72.5503 41.5566ZM72.5503 90.6198C63.0959 90.6198 55.4329 82.9568 55.4329 73.5024C55.4329 64.0481 63.0959 56.385 72.5503 56.385C82.0046 56.385 89.6676 64.0481 89.6676 73.5024C89.6676 82.9568 82.0046 90.6198 72.5503 90.6198Z" fill="white"/>
</g>
<defs>
<clipPath id="clip0_2234_9749">
<rect width="145" height="145" fill="white" transform="translate(0 0.953125)"/>
</clipPath>
</defs>
</svg>
