<svg width="287" height="288" viewBox="0 0 287 288" fill="none" xmlns="http://www.w3.org/2000/svg">
<g style="mix-blend-mode:multiply" opacity="0.12" clip-path="url(#clip0_2234_9664)">
<path d="M143.598 0.306641C64.2155 0.306641 0 64.5222 0 143.905C0 223.091 64.2155 287.504 143.598 287.504C222.784 287.504 287.197 223.288 287.197 143.905C287 64.5222 222.784 0.306641 143.598 0.306641ZM143.598 278.246C69.337 278.246 9.25806 218.167 9.25806 143.905C9.25806 69.6436 69.337 9.5647 143.598 9.5647C217.86 9.5647 277.939 69.6436 277.939 143.905C277.939 217.97 217.663 278.246 143.598 278.246Z" fill="#FFCF2D"/>
<path d="M143.6 31.2324C81.5509 31.2324 31.124 81.6593 31.124 143.708C31.124 205.757 81.5509 256.184 143.6 256.184C205.648 256.184 256.075 205.954 256.075 143.905C256.075 81.6593 205.648 31.2324 143.6 31.2324ZM143.6 239.046C91.006 239.046 48.2613 196.302 48.2613 143.708C48.2613 91.1144 91.006 48.3697 143.6 48.3697C196.193 48.3697 238.938 91.1144 238.938 143.708C238.938 196.302 196.193 239.046 143.6 239.046Z" fill="#FFCF2D"/>
</g>
<defs>
<clipPath id="clip0_2234_9664">
<rect width="287" height="287" fill="white" transform="translate(0 0.306641)"/>
</clipPath>
</defs>
</svg>
