<svg width="157" height="137" viewBox="0 0 157 137" fill="none" xmlns="http://www.w3.org/2000/svg">
<g opacity="0.8" clip-path="url(#clip0_2234_8808)">
<path d="M4.53668 40.2644C4.53668 41.7838 3.56454 42.9234 2.26834 42.9234C0.972147 42.9234 0 41.7838 0 40.2644C0 38.745 0.972147 37.6055 2.26834 37.6055C3.56454 37.6055 4.53668 38.8716 4.53668 40.2644Z" fill="white"/>
<path d="M23.8716 40.2644C23.8716 41.7838 22.8995 42.9234 21.6033 42.9234C20.3071 42.9234 19.335 41.7838 19.335 40.2644C19.335 38.745 20.3071 37.6055 21.6033 37.6055C22.7915 37.6055 23.8716 38.8716 23.8716 40.2644Z" fill="white"/>
<path d="M43.0982 40.2644C43.0982 41.7838 42.1261 42.9234 40.8299 42.9234C39.5337 42.9234 38.5615 41.7838 38.5615 40.2644C38.5615 38.745 39.5337 37.6055 40.8299 37.6055C42.1261 37.6055 43.0982 38.8716 43.0982 40.2644Z" fill="white"/>
<path d="M62.4332 40.2644C62.4332 41.7838 61.461 42.9234 60.1648 42.9234C58.8686 42.9234 57.8965 41.7838 57.8965 40.2644C57.8965 38.745 58.8686 37.6055 60.1648 37.6055C61.461 37.6055 62.4332 38.8716 62.4332 40.2644Z" fill="white"/>
<path d="M81.7681 40.2644C81.7681 41.7838 80.796 42.9234 79.4998 42.9234C78.2036 42.9234 77.2314 41.7838 77.2314 40.2644C77.2314 38.745 78.2036 37.6055 79.4998 37.6055C80.688 37.6055 81.7681 38.8716 81.7681 40.2644Z" fill="white"/>
<path d="M101.104 40.2644C101.104 41.7838 100.131 42.9234 98.8352 42.9234C97.539 42.9234 96.5669 41.7838 96.5669 40.2644C96.5669 38.745 97.539 37.6055 98.8352 37.6055C100.131 37.6055 101.104 38.8716 101.104 40.2644Z" fill="white"/>
<path d="M120.33 40.2644C120.33 41.7838 119.358 42.9234 118.062 42.9234C116.766 42.9234 115.793 41.7838 115.793 40.2644C115.793 38.745 116.766 37.6055 118.062 37.6055C119.358 37.6055 120.33 38.8716 120.33 40.2644Z" fill="white"/>
<path d="M139.665 40.2644C139.665 41.7838 138.693 42.9234 137.397 42.9234C136.101 42.9234 135.128 41.7838 135.128 40.2644C135.128 38.745 136.101 37.6055 137.397 37.6055C138.693 37.6055 139.665 38.8716 139.665 40.2644Z" fill="white"/>
<path d="M159 40.2644C159 41.7838 158.028 42.9234 156.732 42.9234C155.436 42.9234 154.463 41.7838 154.463 40.2644C154.463 38.745 155.436 37.6055 156.732 37.6055C157.92 37.6055 159 38.8716 159 40.2644Z" fill="white"/>
<path d="M4.53668 59.1306C4.53668 60.6501 3.56454 61.7896 2.26834 61.7896C0.972147 61.7896 0 60.6501 0 59.1306C0 57.6112 0.972147 56.4717 2.26834 56.4717C3.56454 56.4717 4.53668 57.6112 4.53668 59.1306Z" fill="white"/>
<path d="M23.8716 59.1306C23.8716 60.6501 22.8995 61.7896 21.6033 61.7896C20.3071 61.7896 19.335 60.6501 19.335 59.1306C19.335 57.6112 20.3071 56.4717 21.6033 56.4717C22.7915 56.4717 23.8716 57.6112 23.8716 59.1306Z" fill="white"/>
<path d="M43.0982 59.1306C43.0982 60.6501 42.1261 61.7896 40.8299 61.7896C39.5337 61.7896 38.5615 60.6501 38.5615 59.1306C38.5615 57.6112 39.5337 56.4717 40.8299 56.4717C42.1261 56.4717 43.0982 57.6112 43.0982 59.1306Z" fill="white"/>
<path d="M62.4332 59.1306C62.4332 60.6501 61.461 61.7896 60.1648 61.7896C58.8686 61.7896 57.8965 60.6501 57.8965 59.1306C57.8965 57.6112 58.8686 56.4717 60.1648 56.4717C61.461 56.4717 62.4332 57.6112 62.4332 59.1306Z" fill="white"/>
<path d="M81.7681 59.1306C81.7681 60.6501 80.796 61.7896 79.4998 61.7896C78.2036 61.7896 77.2314 60.6501 77.2314 59.1306C77.2314 57.6112 78.2036 56.4717 79.4998 56.4717C80.688 56.4717 81.7681 57.6112 81.7681 59.1306Z" fill="white"/>
<path d="M101.104 59.1306C101.104 60.6501 100.131 61.7896 98.8352 61.7896C97.539 61.7896 96.5669 60.6501 96.5669 59.1306C96.5669 57.6112 97.539 56.4717 98.8352 56.4717C100.131 56.4717 101.104 57.6112 101.104 59.1306Z" fill="white"/>
<path d="M120.33 59.1306C120.33 60.6501 119.358 61.7896 118.062 61.7896C116.766 61.7896 115.793 60.6501 115.793 59.1306C115.793 57.6112 116.766 56.4717 118.062 56.4717C119.358 56.4717 120.33 57.6112 120.33 59.1306Z" fill="white"/>
<path d="M139.665 59.1306C139.665 60.6501 138.693 61.7896 137.397 61.7896C136.101 61.7896 135.128 60.6501 135.128 59.1306C135.128 57.6112 136.101 56.4717 137.397 56.4717C138.693 56.4717 139.665 57.6112 139.665 59.1306Z" fill="white"/>
<path d="M159 59.1306C159 60.6501 158.028 61.7896 156.732 61.7896C155.436 61.7896 154.463 60.6501 154.463 59.1306C154.463 57.6112 155.436 56.4717 156.732 56.4717C157.92 56.4717 159 57.6112 159 59.1306Z" fill="white"/>
<path d="M4.53668 2.65896C4.53668 4.17837 3.56454 5.31793 2.26834 5.31793C0.972147 5.31793 0 4.17837 0 2.65896C0 1.13956 0.972147 0 2.26834 0C3.56454 0 4.53668 1.13956 4.53668 2.65896Z" fill="white"/>
<path d="M23.8716 2.65896C23.8716 4.17837 22.8995 5.31793 21.6033 5.31793C20.3071 5.31793 19.335 4.17837 19.335 2.65896C19.335 1.13956 20.3071 0 21.6033 0C22.7915 0 23.8716 1.13956 23.8716 2.65896Z" fill="white"/>
<path d="M43.0982 2.65896C43.0982 4.17837 42.1261 5.31793 40.8299 5.31793C39.5337 5.31793 38.5615 4.17837 38.5615 2.65896C38.5615 1.13956 39.6417 0 40.8299 0C42.1261 0 43.0982 1.13956 43.0982 2.65896Z" fill="white"/>
<path d="M62.4332 2.65896C62.4332 4.17837 61.461 5.31793 60.1648 5.31793C58.8686 5.31793 57.8965 4.17837 57.8965 2.65896C57.8965 1.13956 58.9767 0 60.1648 0C61.353 0 62.4332 1.13956 62.4332 2.65896Z" fill="white"/>
<path d="M81.7681 2.65896C81.7681 4.17837 80.796 5.31793 79.4998 5.31793C78.2036 5.31793 77.2314 4.17837 77.2314 2.65896C77.2314 1.13956 78.2036 0 79.4998 0C80.688 0 81.7681 1.13956 81.7681 2.65896Z" fill="white"/>
<path d="M101.104 2.65896C101.104 4.17837 100.131 5.31793 98.8352 5.31793C97.539 5.31793 96.5669 4.17837 96.5669 2.65896C96.5669 1.13956 97.539 0 98.8352 0C100.131 0 101.104 1.13956 101.104 2.65896Z" fill="white"/>
<path d="M120.33 2.65896C120.33 4.17837 119.358 5.31793 118.062 5.31793C116.766 5.31793 115.793 4.17837 115.793 2.65896C115.793 1.13956 116.766 0 118.062 0C119.358 0 120.33 1.13956 120.33 2.65896Z" fill="white"/>
<path d="M139.665 2.65896C139.665 4.17837 138.693 5.31793 137.397 5.31793C136.101 5.31793 135.128 4.17837 135.128 2.65896C135.128 1.13956 136.101 0 137.397 0C138.693 0 139.665 1.13956 139.665 2.65896Z" fill="white"/>
<path d="M159 2.65896C159 4.17837 158.028 5.31793 156.732 5.31793C155.436 5.31793 154.463 4.17837 154.463 2.65896C154.463 1.13956 155.436 0 156.732 0C157.92 0 159 1.13956 159 2.65896Z" fill="white"/>
<path d="M4.53668 21.5252C4.53668 23.0446 3.56454 24.1841 2.26834 24.1841C0.972147 24.1841 0 22.918 0 21.5252C0 20.0058 0.972147 18.8662 2.26834 18.8662C3.56454 18.8662 4.53668 20.0058 4.53668 21.5252Z" fill="white"/>
<path d="M23.8716 21.5252C23.8716 23.0446 22.8995 24.1841 21.6033 24.1841C20.3071 24.1841 19.335 23.0446 19.335 21.5252C19.335 20.0058 20.3071 18.8662 21.6033 18.8662C22.7915 18.8662 23.8716 20.0058 23.8716 21.5252Z" fill="white"/>
<path d="M43.0982 21.5252C43.0982 23.0446 42.1261 24.1841 40.8299 24.1841C39.5337 24.1841 38.5615 23.0446 38.5615 21.5252C38.5615 20.0058 39.5337 18.8662 40.8299 18.8662C42.1261 18.8662 43.0982 20.0058 43.0982 21.5252Z" fill="white"/>
<path d="M62.4332 21.5252C62.4332 23.0446 61.461 24.1841 60.1648 24.1841C58.8686 24.1841 57.8965 23.0446 57.8965 21.5252C57.8965 20.0058 58.8686 18.8662 60.1648 18.8662C61.461 18.8662 62.4332 20.0058 62.4332 21.5252Z" fill="white"/>
<path d="M81.7681 21.5252C81.7681 23.0446 80.796 24.1841 79.4998 24.1841C78.2036 24.1841 77.2314 23.0446 77.2314 21.5252C77.2314 20.0058 78.2036 18.8662 79.4998 18.8662C80.688 18.8662 81.7681 20.0058 81.7681 21.5252Z" fill="white"/>
<path d="M101.104 21.5252C101.104 23.0446 100.131 24.1841 98.8352 24.1841C97.539 24.1841 96.5669 23.0446 96.5669 21.5252C96.5669 20.0058 97.539 18.8662 98.8352 18.8662C100.131 18.8662 101.104 20.0058 101.104 21.5252Z" fill="white"/>
<path d="M120.33 21.5252C120.33 23.0446 119.358 24.1841 118.062 24.1841C116.766 24.1841 115.793 23.0446 115.793 21.5252C115.793 20.0058 116.766 18.8662 118.062 18.8662C119.358 18.8662 120.33 20.0058 120.33 21.5252Z" fill="white"/>
<path d="M139.665 21.5252C139.665 23.0446 138.693 24.1841 137.397 24.1841C136.101 24.1841 135.128 23.0446 135.128 21.5252C135.128 20.0058 136.101 18.8662 137.397 18.8662C138.693 18.8662 139.665 20.0058 139.665 21.5252Z" fill="white"/>
<path d="M159 21.5252C159 23.0446 158.028 24.1841 156.732 24.1841C155.436 24.1841 154.463 23.0446 154.463 21.5252C154.463 20.0058 155.436 18.8662 156.732 18.8662C157.92 18.8662 159 20.0058 159 21.5252Z" fill="white"/>
<path d="M4.53668 77.8699C4.53668 79.3893 3.56454 80.5289 2.26834 80.5289C0.972147 80.5289 0 79.3893 0 77.8699C0 76.3505 0.972147 75.2109 2.26834 75.2109C3.56454 75.2109 4.53668 76.4771 4.53668 77.8699Z" fill="white"/>
<path d="M23.8716 77.8699C23.8716 79.3893 22.8995 80.5289 21.6033 80.5289C20.3071 80.5289 19.335 79.3893 19.335 77.8699C19.335 76.3505 20.3071 75.2109 21.6033 75.2109C22.7915 75.2109 23.8716 76.4771 23.8716 77.8699Z" fill="white"/>
<path d="M43.0982 77.8699C43.0982 79.3893 42.1261 80.5289 40.8299 80.5289C39.5337 80.5289 38.5615 79.3893 38.5615 77.8699C38.5615 76.3505 39.5337 75.2109 40.8299 75.2109C42.1261 75.2109 43.0982 76.4771 43.0982 77.8699Z" fill="white"/>
<path d="M62.4332 77.8699C62.4332 79.3893 61.461 80.5289 60.1648 80.5289C58.8686 80.5289 57.8965 79.3893 57.8965 77.8699C57.8965 76.3505 58.8686 75.2109 60.1648 75.2109C61.461 75.2109 62.4332 76.4771 62.4332 77.8699Z" fill="white"/>
<path d="M81.7681 77.8699C81.7681 79.3893 80.796 80.5289 79.4998 80.5289C78.2036 80.5289 77.2314 79.3893 77.2314 77.8699C77.2314 76.3505 78.2036 75.2109 79.4998 75.2109C80.688 75.2109 81.7681 76.4771 81.7681 77.8699Z" fill="white"/>
<path d="M101.104 77.8699C101.104 79.3893 100.131 80.5289 98.8352 80.5289C97.539 80.5289 96.5669 79.3893 96.5669 77.8699C96.5669 76.3505 97.539 75.2109 98.8352 75.2109C100.131 75.2109 101.104 76.4771 101.104 77.8699Z" fill="white"/>
<path d="M120.33 77.8699C120.33 79.3893 119.358 80.5289 118.062 80.5289C116.766 80.5289 115.793 79.3893 115.793 77.8699C115.793 76.3505 116.766 75.2109 118.062 75.2109C119.358 75.2109 120.33 76.4771 120.33 77.8699Z" fill="white"/>
<path d="M139.665 77.8699C139.665 79.3893 138.693 80.5289 137.397 80.5289C136.101 80.5289 135.128 79.3893 135.128 77.8699C135.128 76.3505 136.101 75.2109 137.397 75.2109C138.693 75.2109 139.665 76.4771 139.665 77.8699Z" fill="white"/>
<path d="M159 77.8699C159 79.3893 158.028 80.5289 156.732 80.5289C155.436 80.5289 154.463 79.3893 154.463 77.8699C154.463 76.3505 155.436 75.2109 156.732 75.2109C157.92 75.2109 159 76.4771 159 77.8699Z" fill="white"/>
<path d="M4.53668 96.7361C4.53668 98.2555 3.56454 99.3951 2.26834 99.3951C0.972147 99.3951 0 98.2555 0 96.7361C0 95.2167 0.972147 94.0771 2.26834 94.0771C3.56454 94.0771 4.53668 95.2167 4.53668 96.7361Z" fill="white"/>
<path d="M23.8716 96.7361C23.8716 98.2555 22.8995 99.3951 21.6033 99.3951C20.3071 99.3951 19.335 98.2555 19.335 96.7361C19.335 95.2167 20.3071 94.0771 21.6033 94.0771C22.7915 94.0771 23.8716 95.2167 23.8716 96.7361Z" fill="white"/>
<path d="M43.0982 96.7361C43.0982 98.2555 42.1261 99.3951 40.8299 99.3951C39.5337 99.3951 38.5615 98.2555 38.5615 96.7361C38.5615 95.2167 39.5337 94.0771 40.8299 94.0771C42.1261 94.0771 43.0982 95.2167 43.0982 96.7361Z" fill="white"/>
<path d="M60.1648 99.3951C61.4176 99.3951 62.4332 98.2046 62.4332 96.7361C62.4332 95.2676 61.4176 94.0771 60.1648 94.0771C58.9121 94.0771 57.8965 95.2676 57.8965 96.7361C57.8965 98.2046 58.9121 99.3951 60.1648 99.3951Z" fill="white"/>
<path d="M81.7681 96.7361C81.7681 98.2555 80.796 99.3951 79.4998 99.3951C78.2036 99.3951 77.2314 98.2555 77.2314 96.7361C77.2314 95.2167 78.2036 94.0771 79.4998 94.0771C80.688 94.0771 81.7681 95.2167 81.7681 96.7361Z" fill="white"/>
<path d="M101.104 96.7361C101.104 98.2555 100.131 99.3951 98.8352 99.3951C97.539 99.3951 96.5669 98.2555 96.5669 96.7361C96.5669 95.2167 97.539 94.0771 98.8352 94.0771C100.131 94.0771 101.104 95.2167 101.104 96.7361Z" fill="white"/>
<path d="M120.33 96.7361C120.33 98.2555 119.358 99.3951 118.062 99.3951C116.766 99.3951 115.793 98.2555 115.793 96.7361C115.793 95.2167 116.766 94.0771 118.062 94.0771C119.358 94.0771 120.33 95.2167 120.33 96.7361Z" fill="white"/>
<path d="M137.397 99.3951C138.65 99.3951 139.665 98.2046 139.665 96.7361C139.665 95.2676 138.65 94.0771 137.397 94.0771C136.144 94.0771 135.128 95.2676 135.128 96.7361C135.128 98.2046 136.144 99.3951 137.397 99.3951Z" fill="white"/>
<path d="M159 96.7361C159 98.2555 158.028 99.3951 156.732 99.3951C155.436 99.3951 154.463 98.2555 154.463 96.7361C154.463 95.2167 155.436 94.0771 156.732 94.0771C157.92 94.0771 159 95.2167 159 96.7361Z" fill="white"/>
<path d="M4.53668 115.601C4.53668 117.121 3.56454 118.26 2.26834 118.26C0.972147 118.26 0 117.121 0 115.601C0 114.082 0.972147 112.942 2.26834 112.942C3.56454 112.942 4.53668 114.082 4.53668 115.601Z" fill="white"/>
<path d="M23.8716 115.601C23.8716 117.121 22.8995 118.26 21.6033 118.26C20.3071 118.26 19.335 117.121 19.335 115.601C19.335 114.082 20.3071 112.942 21.6033 112.942C22.7915 112.942 23.8716 114.082 23.8716 115.601Z" fill="white"/>
<path d="M43.0982 115.601C43.0982 117.121 42.1261 118.26 40.8299 118.26C39.5337 118.26 38.5615 117.121 38.5615 115.601C38.5615 114.082 39.5337 112.942 40.8299 112.942C42.1261 112.942 43.0982 114.082 43.0982 115.601Z" fill="white"/>
<path d="M62.4332 115.601C62.4332 117.121 61.461 118.26 60.1648 118.26C58.8686 118.26 57.8965 117.121 57.8965 115.601C57.8965 114.082 58.8686 112.942 60.1648 112.942C61.461 112.942 62.4332 114.082 62.4332 115.601Z" fill="white"/>
<path d="M81.7681 115.601C81.7681 117.121 80.796 118.26 79.4998 118.26C78.2036 118.26 77.2314 117.121 77.2314 115.601C77.2314 114.082 78.2036 112.942 79.4998 112.942C80.688 112.942 81.7681 114.082 81.7681 115.601Z" fill="white"/>
<path d="M101.104 115.601C101.104 117.121 100.131 118.26 98.8352 118.26C97.539 118.26 96.5669 117.121 96.5669 115.601C96.5669 114.082 97.539 112.942 98.8352 112.942C100.131 112.942 101.104 114.082 101.104 115.601Z" fill="white"/>
<path d="M120.33 115.601C120.33 117.121 119.358 118.26 118.062 118.26C116.766 118.26 115.793 117.121 115.793 115.601C115.793 114.082 116.766 112.942 118.062 112.942C119.358 112.942 120.33 114.082 120.33 115.601Z" fill="white"/>
<path d="M139.665 115.601C139.665 117.121 138.693 118.26 137.397 118.26C136.101 118.26 135.128 117.121 135.128 115.601C135.128 114.082 136.101 112.942 137.397 112.942C138.693 112.942 139.665 114.082 139.665 115.601Z" fill="white"/>
<path d="M159 115.601C159 117.121 158.028 118.26 156.732 118.26C155.436 118.26 154.463 117.121 154.463 115.601C154.463 114.082 155.436 112.942 156.732 112.942C157.92 112.942 159 114.082 159 115.601Z" fill="white"/>
<path d="M4.53668 134.341C4.53668 135.86 3.56454 137 2.26834 137C0.972147 137 0 135.86 0 134.341C0 132.821 0.972147 131.682 2.26834 131.682C3.56454 131.682 4.53668 132.948 4.53668 134.341Z" fill="white"/>
<path d="M23.8716 134.341C23.8716 135.86 22.8995 137 21.6033 137C20.3071 137 19.335 135.86 19.335 134.341C19.335 132.821 20.3071 131.682 21.6033 131.682C22.7915 131.682 23.8716 132.948 23.8716 134.341Z" fill="white"/>
<path d="M43.0982 134.341C43.0982 135.86 42.1261 137 40.8299 137C39.5337 137 38.5615 135.86 38.5615 134.341C38.5615 132.821 39.5337 131.682 40.8299 131.682C42.1261 131.682 43.0982 132.948 43.0982 134.341Z" fill="white"/>
<path d="M62.4332 134.341C62.4332 135.86 61.461 137 60.1648 137C58.8686 137 57.8965 135.86 57.8965 134.341C57.8965 132.821 58.8686 131.682 60.1648 131.682C61.461 131.682 62.4332 132.948 62.4332 134.341Z" fill="white"/>
<path d="M81.7681 134.341C81.7681 135.86 80.796 137 79.4998 137C78.2036 137 77.2314 135.86 77.2314 134.341C77.2314 132.821 78.2036 131.682 79.4998 131.682C80.688 131.682 81.7681 132.948 81.7681 134.341Z" fill="white"/>
<path d="M101.104 134.341C101.104 135.86 100.131 137 98.8352 137C97.539 137 96.5669 135.86 96.5669 134.341C96.5669 132.821 97.539 131.682 98.8352 131.682C100.131 131.682 101.104 132.948 101.104 134.341Z" fill="white"/>
<path d="M120.33 134.341C120.33 135.86 119.358 137 118.062 137C116.766 137 115.793 135.86 115.793 134.341C115.793 132.821 116.766 131.682 118.062 131.682C119.358 131.682 120.33 132.948 120.33 134.341Z" fill="white"/>
<path d="M139.665 134.341C139.665 135.86 138.693 137 137.397 137C136.101 137 135.128 135.86 135.128 134.341C135.128 132.821 136.101 131.682 137.397 131.682C138.693 131.682 139.665 132.948 139.665 134.341Z" fill="white"/>
<path d="M159 134.341C159 135.86 158.028 137 156.732 137C155.436 137 154.463 135.86 154.463 134.341C154.463 132.821 155.436 131.682 156.732 131.682C157.92 131.682 159 132.948 159 134.341Z" fill="white"/>
</g>
<defs>
<clipPath id="clip0_2234_8808">
<rect width="159" height="137" fill="white"/>
</clipPath>
</defs>
</svg>
