<svg width="217" height="225" viewBox="0 0 217 225" fill="none" xmlns="http://www.w3.org/2000/svg">
<path d="M34.9692 163.642C36.1364 164.539 36.3369 166.09 35.4369 167.261C34.5369 168.432 32.9864 168.638 31.8191 167.741C30.6518 166.844 30.4514 165.293 31.3514 164.121C32.2514 162.95 33.8992 162.819 34.9692 163.642Z" fill="#FFCF2D"/>
<path d="M48.3945 146.171C49.5617 147.068 49.7622 148.619 48.8622 149.79C47.9622 150.961 46.4117 151.167 45.2444 150.27C44.0771 149.373 43.8767 147.822 44.7767 146.651C45.6017 145.577 47.3244 145.349 48.3945 146.171Z" fill="#FFCF2D"/>
<path d="M61.7446 128.799C62.9118 129.696 63.1123 131.247 62.2123 132.418C61.3123 133.589 59.7618 133.795 58.5945 132.898C57.4272 132.001 57.2268 130.45 58.1268 129.279C59.0268 128.107 60.6745 127.977 61.7446 128.799Z" fill="#FFCF2D"/>
<path d="M75.1699 111.329C76.3371 112.226 76.5376 113.777 75.6376 114.948C74.7376 116.12 73.1871 116.325 72.0198 115.428C70.8525 114.531 70.6521 112.98 71.5521 111.809C72.4521 110.638 74.0998 110.507 75.1699 111.329Z" fill="#FFCF2D"/>
<path d="M88.5951 93.8594C89.7624 94.7565 89.9629 96.3076 89.0629 97.4788C88.1628 98.6499 86.6124 98.8555 85.4451 97.9585C84.2778 97.0614 84.0774 95.5103 84.9774 94.3391C85.8024 93.2656 87.5251 93.0371 88.5951 93.8594Z" fill="#FFCF2D"/>
<path d="M102.02 76.3897C103.188 77.2867 103.388 78.8379 102.488 80.009C101.588 81.1802 100.038 81.3858 98.8704 80.4888C97.7031 79.5917 97.5026 78.0406 98.4027 76.8694C99.3027 75.6983 100.95 75.5674 102.02 76.3897Z" fill="#FFCF2D"/>
<path d="M115.371 59.0176C116.538 59.9147 116.738 61.4658 115.838 62.637C114.938 63.8081 113.388 64.0137 112.22 63.1167C111.053 62.2197 110.853 60.6685 111.753 59.4973C112.653 58.3262 114.301 58.1953 115.371 59.0176Z" fill="#FFCF2D"/>
<path d="M128.796 41.5479C129.963 42.4449 130.164 43.9961 129.264 45.1672C128.364 46.3384 126.813 46.544 125.646 45.647C124.478 44.7499 124.278 43.1988 125.178 42.0276C126.078 40.8565 127.726 40.7256 128.796 41.5479Z" fill="#FFCF2D"/>
<path d="M142.221 24.0782C143.388 24.9752 143.589 26.5264 142.689 27.6975C141.789 28.8687 140.238 29.0743 139.071 28.1772C137.904 27.2802 137.703 25.729 138.603 24.5579C139.428 23.4843 141.151 23.2559 142.221 24.0782Z" fill="#FFCF2D"/>
<path d="M49.4628 174.779C50.6301 175.676 50.8306 177.228 49.9305 178.399C49.0305 179.57 47.4801 179.775 46.3128 178.878C45.1455 177.981 44.945 176.43 45.845 175.259C46.7451 174.088 48.2955 173.882 49.4628 174.779Z" fill="#FFCF2D"/>
<path d="M62.8881 157.31C64.0554 158.207 64.2558 159.758 63.3558 160.929C62.4558 162.1 60.9053 162.306 59.7381 161.409C58.5708 160.512 58.3703 158.96 59.2703 157.789C60.0954 156.716 61.7208 156.413 62.8881 157.31Z" fill="#FFCF2D"/>
<path d="M76.2382 139.938C77.4055 140.835 77.6059 142.386 76.7059 143.557C75.8059 144.728 74.2554 144.934 73.0882 144.037C71.9209 143.14 71.7204 141.588 72.6204 140.417C73.5205 139.246 75.0709 139.041 76.2382 139.938Z" fill="#FFCF2D"/>
<path d="M89.6635 122.468C90.8308 123.365 91.0312 124.916 90.1312 126.087C89.2312 127.258 87.6807 127.464 86.5135 126.567C85.3462 125.67 85.1457 124.119 86.0457 122.948C86.9457 121.776 88.4962 121.571 89.6635 122.468Z" fill="#FFCF2D"/>
<path d="M103.089 104.997C104.256 105.894 104.457 107.445 103.557 108.616C102.656 109.788 101.106 109.993 99.9387 109.096C98.7715 108.199 98.571 106.648 99.471 105.477C100.296 104.403 101.922 104.1 103.089 104.997Z" fill="#FFCF2D"/>
<path d="M116.514 87.5274C117.681 88.4244 117.882 89.9756 116.982 91.1467C116.082 92.3179 114.531 92.5235 113.364 91.6265C112.197 90.7294 111.996 89.1783 112.896 88.0071C113.796 86.8359 115.347 86.6304 116.514 87.5274Z" fill="#FFCF2D"/>
<path d="M129.864 70.1553C131.031 71.0524 131.232 72.6035 130.332 73.7747C129.432 74.9458 127.881 75.1514 126.714 74.2544C125.547 73.3573 125.346 71.8062 126.246 70.635C127.146 69.4639 128.697 69.2583 129.864 70.1553Z" fill="#FFCF2D"/>
<path d="M143.289 52.6856C144.457 53.5826 144.657 55.1338 143.757 56.3049C142.857 57.4761 141.307 57.6817 140.139 56.7847C138.972 55.8876 138.772 54.3365 139.672 53.1653C140.572 51.9942 142.122 51.7886 143.289 52.6856Z" fill="#FFCF2D"/>
<path d="M156.715 35.2159C157.882 36.1129 158.083 37.664 157.182 38.8352C156.282 40.0064 154.732 40.212 153.565 39.3149C152.397 38.4179 152.197 36.8667 153.097 35.6956C153.922 34.622 155.547 34.3188 156.715 35.2159Z" fill="#FFCF2D"/>
<path d="M6.07903 141.439C7.24631 142.337 7.44676 143.888 6.54675 145.059C5.64673 146.23 4.09626 146.436 2.92898 145.539C1.76169 144.642 1.56124 143.09 2.46126 141.919C3.36127 140.748 4.91175 140.542 6.07903 141.439Z" fill="#FFCF2D"/>
<path d="M19.5043 123.97C20.6716 124.867 20.8721 126.418 19.972 127.589C19.072 128.76 17.5216 128.966 16.3543 128.069C15.187 127.172 14.9865 125.621 15.8866 124.449C16.7116 123.376 18.337 123.073 19.5043 123.97Z" fill="#FFCF2D"/>
<path d="M32.8544 106.598C34.0217 107.495 34.2222 109.046 33.3221 110.217C32.4221 111.388 30.8716 111.594 29.7044 110.697C28.5371 109.8 28.4116 108.151 29.2366 107.077C30.1367 105.906 31.6871 105.701 32.8544 106.598Z" fill="#FFCF2D"/>
<path d="M46.2797 89.128C47.447 90.025 47.6474 91.5762 46.7474 92.7473C45.8474 93.9185 44.2969 94.1241 43.1297 93.227C41.9624 92.33 41.8369 90.6813 42.6619 89.6077C43.487 88.5341 45.1124 88.2309 46.2797 89.128Z" fill="#FFCF2D"/>
<path d="M59.705 71.6582C60.8723 72.5553 61.0727 74.1064 60.1727 75.2776C59.2727 76.4488 57.7222 76.6543 56.555 75.7573C55.3877 74.8603 55.1872 73.3091 56.0872 72.138C56.9123 71.0644 58.5377 70.7612 59.705 71.6582Z" fill="#FFCF2D"/>
<path d="M73.1303 54.1875C74.2976 55.0846 74.498 56.6357 73.598 57.8069C72.698 58.9781 71.1475 59.1836 69.9802 58.2866C68.813 57.3896 68.6125 55.8384 69.5125 54.6673C70.4125 53.4961 71.963 53.2905 73.1303 54.1875Z" fill="#FFCF2D"/>
<path d="M86.4804 36.8155C87.6477 37.7125 87.8481 39.2637 86.9481 40.4348C86.0481 41.606 84.4976 41.8116 83.3303 40.9145C82.1631 40.0175 81.9626 38.4664 82.8626 37.2952C83.7626 36.124 85.3131 35.9184 86.4804 36.8155Z" fill="#FFCF2D"/>
<path d="M99.9057 19.3457C101.073 20.2428 101.273 21.7939 100.373 22.9651C99.4734 24.1363 97.9229 24.3418 96.7556 23.4448C95.5884 22.5478 95.3879 20.9966 96.2879 19.8255C97.1879 18.6543 98.7384 18.4487 99.9057 19.3457Z" fill="#FFCF2D"/>
<path d="M113.331 1.87604C114.498 2.77308 114.699 4.32421 113.799 5.49537C112.899 6.66653 111.348 6.87212 110.181 5.97509C109.014 5.07805 108.813 3.5269 109.713 2.35574C110.538 1.28218 112.164 0.979005 113.331 1.87604Z" fill="#FFCF2D"/>
<path d="M20.5727 152.578C21.74 153.475 21.9404 155.026 21.0404 156.198C20.1404 157.369 18.4926 157.5 17.4226 156.677C16.2553 155.78 16.0549 154.229 16.9549 153.058C17.8549 151.887 19.4054 151.681 20.5727 152.578Z" fill="#FFCF2D"/>
<path d="M33.998 135.107C35.1653 136.005 35.3657 137.556 34.4657 138.727C33.5657 139.898 32.0152 140.104 30.8479 139.207C29.6806 138.309 29.4802 136.758 30.3802 135.587C31.2052 134.514 32.8307 134.21 33.998 135.107Z" fill="#FFCF2D"/>
<path d="M47.3481 117.735C48.5154 118.632 48.7158 120.184 47.8158 121.355C46.9158 122.526 45.3653 122.731 44.198 121.834C43.0307 120.937 42.8303 119.386 43.7303 118.215C44.6303 117.044 46.1808 116.838 47.3481 117.735Z" fill="#FFCF2D"/>
<path d="M60.7734 100.266C61.9407 101.163 62.1411 102.714 61.2411 103.885C60.3411 105.056 58.7906 105.262 57.6233 104.365C56.456 103.468 56.2556 101.917 57.1556 100.745C58.0556 99.5742 59.6061 99.3686 60.7734 100.266Z" fill="#FFCF2D"/>
<path d="M74.1987 82.7959C75.3659 83.693 75.5664 85.2441 74.6664 86.4153C73.7664 87.5865 72.2159 87.792 71.0486 86.895C69.8813 85.998 69.6809 84.4468 70.5809 83.2757C71.4059 82.2021 73.0314 81.8989 74.1987 82.7959Z" fill="#FFCF2D"/>
<path d="M87.624 65.3262C88.7912 66.2233 88.9917 67.7744 88.0917 68.9456C87.1917 70.1167 85.6412 70.3223 84.4739 69.4253C83.3066 68.5282 83.1062 66.9771 84.0062 65.8059C84.9062 64.6348 86.4567 64.4292 87.624 65.3262Z" fill="#FFCF2D"/>
<path d="M100.974 47.9542C102.141 48.8512 102.342 50.4023 101.442 51.5735C100.542 52.7446 98.9913 52.9502 97.824 52.0532C96.6567 51.1562 96.4563 49.605 97.3563 48.4339C98.2563 47.2627 99.8068 47.0571 100.974 47.9542Z" fill="#FFCF2D"/>
<path d="M114.399 30.4844C115.567 31.3815 115.767 32.9326 114.867 34.1038C113.967 35.2749 112.417 35.4805 111.249 34.5835C110.082 33.6864 109.882 32.1353 110.782 30.9641C111.682 29.793 113.232 29.5874 114.399 30.4844Z" fill="#FFCF2D"/>
<path d="M127.825 13.0147C128.992 13.9117 129.192 15.4629 128.292 16.634C127.392 17.8052 125.842 18.0108 124.675 17.1138C123.507 16.2167 123.307 14.6656 124.207 13.4944C125.032 12.4208 126.657 12.1177 127.825 13.0147Z" fill="#FFCF2D"/>
<path d="M63.8598 185.843C65.0271 186.74 65.2275 188.291 64.3275 189.462C63.4275 190.633 61.877 190.839 60.7097 189.942C59.5425 189.045 59.342 187.494 60.242 186.323C61.142 185.151 62.7898 185.021 63.8598 185.843Z" fill="#FFCF2D"/>
<path d="M77.2851 168.373C78.4524 169.27 78.6528 170.821 77.7528 171.992C76.8528 173.164 75.3023 173.369 74.135 172.472C72.9677 171.575 72.7673 170.024 73.6673 168.853C74.4923 167.779 76.2151 167.551 77.2851 168.373Z" fill="#FFCF2D"/>
<path d="M90.6352 151.001C91.8025 151.898 92.0029 153.449 91.1029 154.62C90.2029 155.792 88.6524 155.997 87.4851 155.1C86.3178 154.203 86.1174 152.652 87.0174 151.481C87.9174 150.31 89.5652 150.179 90.6352 151.001Z" fill="#FFCF2D"/>
<path d="M104.06 133.531C105.228 134.428 105.428 135.979 104.528 137.151C103.628 138.322 102.078 138.527 100.91 137.63C99.7431 136.733 99.5427 135.182 100.443 134.011C101.343 132.84 102.99 132.709 104.06 133.531Z" fill="#FFCF2D"/>
<path d="M117.486 116.062C118.653 116.959 118.854 118.51 117.953 119.681C117.053 120.852 115.503 121.058 114.336 120.161C113.168 119.264 112.968 117.712 113.868 116.541C114.693 115.468 116.416 115.239 117.486 116.062Z" fill="#FFCF2D"/>
<path d="M130.911 98.5909C132.078 99.4879 132.279 101.039 131.379 102.21C130.479 103.381 128.928 103.587 127.761 102.69C126.594 101.793 126.393 100.242 127.293 99.0706C128.193 97.8994 129.841 97.7686 130.911 98.5909Z" fill="#FFCF2D"/>
<path d="M144.261 81.2188C145.428 82.1158 145.629 83.667 144.729 84.8381C143.829 86.0093 142.278 86.2149 141.111 85.3179C139.944 84.4208 139.743 82.8697 140.643 81.6985C141.543 80.5273 143.191 80.3965 144.261 81.2188Z" fill="#FFCF2D"/>
<path d="M157.686 63.7491C158.854 64.6461 159.054 66.1973 158.154 67.3684C157.254 68.5396 155.704 68.7452 154.536 67.8481C153.369 66.9511 153.169 65.4 154.069 64.2288C154.969 63.0576 156.616 62.9268 157.686 63.7491Z" fill="#FFCF2D"/>
<path d="M171.112 46.2793C172.279 47.1764 172.479 48.7275 171.579 49.8987C170.679 51.0698 169.129 51.2754 167.962 50.3784C166.794 49.4814 166.594 47.9302 167.494 46.7591C168.319 45.6855 170.042 45.4571 171.112 46.2793Z" fill="#FFCF2D"/>
<path d="M78.3534 196.981C79.5207 197.878 79.7212 199.429 78.8212 200.6C77.9211 201.771 76.3707 201.977 75.2034 201.08C74.0361 200.183 73.8357 198.631 74.7357 197.46C75.6357 196.289 77.1862 196.083 78.3534 196.981Z" fill="#FFCF2D"/>
<path d="M91.7787 179.511C92.946 180.408 93.1465 181.959 92.2464 183.13C91.3464 184.301 89.796 184.507 88.6287 183.61C87.4614 182.713 87.2609 181.162 88.161 179.991C88.986 178.917 90.6115 178.614 91.7787 179.511Z" fill="#FFCF2D"/>
<path d="M105.129 162.139C106.296 163.036 106.497 164.587 105.597 165.758C104.697 166.929 103.146 167.135 101.979 166.238C100.811 165.341 100.611 163.79 101.511 162.618C102.411 161.447 103.962 161.242 105.129 162.139Z" fill="#FFCF2D"/>
<path d="M119.022 148.288C119.892 147.156 119.682 145.536 118.554 144.669C117.426 143.802 115.806 144.017 114.936 145.149C114.066 146.281 114.276 147.901 115.404 148.768C116.532 149.635 118.152 149.42 119.022 148.288Z" fill="#FFCF2D"/>
<path d="M131.979 127.199C133.147 128.096 133.347 129.647 132.447 130.819C131.547 131.99 129.997 132.195 128.829 131.298C127.662 130.401 127.462 128.85 128.362 127.679C129.187 126.605 130.812 126.302 131.979 127.199Z" fill="#FFCF2D"/>
<path d="M145.405 109.73C146.572 110.627 146.772 112.178 145.872 113.349C144.972 114.52 143.422 114.726 142.255 113.829C141.087 112.932 140.887 111.38 141.787 110.209C142.687 109.038 144.237 108.833 145.405 109.73Z" fill="#FFCF2D"/>
<path d="M158.755 92.3575C159.922 93.2545 160.123 94.8056 159.223 95.9768C158.323 97.148 156.772 97.3536 155.605 96.4565C154.437 95.5595 154.237 94.0083 155.137 92.8372C156.037 91.666 157.588 91.4604 158.755 92.3575Z" fill="#FFCF2D"/>
<path d="M172.648 78.5071C173.518 77.3752 173.308 75.7547 172.18 74.8877C171.052 74.0207 169.432 74.2355 168.562 75.3675C167.692 76.4994 167.902 78.1198 169.03 78.9868C170.158 79.8538 171.778 79.639 172.648 78.5071Z" fill="#FFCF2D"/>
<path d="M185.605 57.418C186.773 58.3151 186.973 59.8662 186.073 61.0373C185.173 62.2085 183.623 62.4141 182.455 61.5171C181.288 60.62 181.088 59.0689 181.988 57.8977C182.813 56.8242 184.438 56.521 185.605 57.418Z" fill="#FFCF2D"/>
<path d="M92.8471 208.119C94.0144 209.016 94.2148 210.567 93.3148 211.739C92.4148 212.91 90.8643 213.115 89.697 212.218C88.5298 211.321 88.3293 209.77 89.2293 208.599C90.1293 207.428 91.6798 207.222 92.8471 208.119Z" fill="#FFCF2D"/>
<path d="M106.272 190.649C107.44 191.547 107.64 193.098 106.74 194.269C105.84 195.44 104.29 195.646 103.122 194.749C101.955 193.851 101.755 192.3 102.655 191.129C103.48 190.056 105.105 189.752 106.272 190.649Z" fill="#FFCF2D"/>
<path d="M119.622 173.277C120.79 174.174 120.99 175.726 120.09 176.897C119.19 178.068 117.64 178.273 116.472 177.376C115.305 176.479 115.105 174.928 116.005 173.757C116.905 172.586 118.455 172.38 119.622 173.277Z" fill="#FFCF2D"/>
<path d="M133.048 155.808C134.215 156.705 134.416 158.256 133.516 159.427C132.615 160.598 131.065 160.804 129.898 159.907C128.73 159.01 128.53 157.459 129.43 156.287C130.33 155.116 131.881 154.911 133.048 155.808Z" fill="#FFCF2D"/>
<path d="M146.473 138.338C147.64 139.235 147.841 140.786 146.941 141.957C146.041 143.128 144.49 143.334 143.323 142.437C142.156 141.54 141.955 139.989 142.855 138.818C143.68 137.744 145.306 137.441 146.473 138.338Z" fill="#FFCF2D"/>
<path d="M159.898 120.867C161.066 121.764 161.266 123.315 160.366 124.487C159.466 125.658 157.916 125.863 156.748 124.966C155.581 124.069 155.381 122.518 156.281 121.347C157.181 120.176 158.731 119.97 159.898 120.867Z" fill="#FFCF2D"/>
<path d="M173.248 103.495C174.416 104.392 174.616 105.943 173.716 107.115C172.816 108.286 171.266 108.491 170.098 107.594C168.931 106.697 168.731 105.146 169.631 103.975C170.531 102.804 172.081 102.598 173.248 103.495Z" fill="#FFCF2D"/>
<path d="M186.674 86.0254C187.841 86.9225 188.041 88.4736 187.141 89.6448C186.241 90.8159 184.691 91.0215 183.524 90.1245C182.356 89.2275 182.156 87.6763 183.056 86.5052C183.956 85.334 185.506 85.1284 186.674 86.0254Z" fill="#FFCF2D"/>
<path d="M200.099 68.5557C201.266 69.4528 201.467 71.0039 200.567 72.1751C199.667 73.3462 198.116 73.5518 196.949 72.6548C195.782 71.7577 195.581 70.2066 196.481 69.0354C197.306 67.9619 198.932 67.6587 200.099 68.5557Z" fill="#FFCF2D"/>
<path d="M107.244 219.183C108.411 220.08 108.611 221.631 107.711 222.802C106.811 223.973 105.261 224.179 104.094 223.282C102.926 222.385 102.726 220.834 103.626 219.662C104.526 218.491 106.174 218.36 107.244 219.183Z" fill="#FFCF2D"/>
<path d="M120.669 201.713C121.836 202.61 122.037 204.161 121.137 205.332C120.237 206.503 118.686 206.709 117.519 205.812C116.352 204.915 116.151 203.364 117.051 202.193C117.876 201.119 119.599 200.891 120.669 201.713Z" fill="#FFCF2D"/>
<path d="M134.019 184.341C135.186 185.238 135.387 186.789 134.487 187.96C133.587 189.131 132.036 189.337 130.869 188.44C129.702 187.543 129.501 185.992 130.401 184.821C131.301 183.649 132.949 183.519 134.019 184.341Z" fill="#FFCF2D"/>
<path d="M147.444 166.871C148.612 167.768 148.812 169.319 147.912 170.49C147.012 171.662 145.461 171.867 144.294 170.97C143.127 170.073 142.926 168.522 143.826 167.351C144.727 166.18 146.374 166.049 147.444 166.871Z" fill="#FFCF2D"/>
<path d="M160.87 149.4C162.037 150.297 162.237 151.849 161.337 153.02C160.437 154.191 158.887 154.397 157.72 153.499C156.552 152.602 156.352 151.051 157.252 149.88C158.077 148.807 159.8 148.578 160.87 149.4Z" fill="#FFCF2D"/>
<path d="M174.295 131.931C175.462 132.828 175.663 134.379 174.763 135.55C173.863 136.721 172.312 136.927 171.145 136.03C169.978 135.133 169.777 133.582 170.677 132.41C171.577 131.239 173.225 131.108 174.295 131.931Z" fill="#FFCF2D"/>
<path d="M187.645 114.559C188.812 115.456 189.013 117.007 188.113 118.178C187.213 119.349 185.662 119.555 184.495 118.658C183.328 117.761 183.127 116.21 184.027 115.038C184.927 113.867 186.575 113.736 187.645 114.559Z" fill="#FFCF2D"/>
<path d="M201.07 97.0889C202.238 97.986 202.438 99.5371 201.538 100.708C200.638 101.879 199.087 102.085 197.92 101.188C196.753 100.291 196.552 98.7398 197.452 97.5686C198.352 96.3975 200 96.2666 201.07 97.0889Z" fill="#FFCF2D"/>
<path d="M214.496 79.6192C215.663 80.5162 215.863 82.0674 214.963 83.2385C214.063 84.4097 212.513 84.6153 211.345 83.7183C210.178 82.8212 209.978 81.2701 210.878 80.0989C211.703 79.0253 213.426 78.7969 214.496 79.6192Z" fill="#FFCF2D"/>
</svg>
