<svg width="130" height="23" viewBox="0 0 130 23" fill="none" xmlns="http://www.w3.org/2000/svg">
<g clip-path="url(#clip0_50748_1634)">
<path d="M0 11.9074C0 5.80742 3.3 2.10742 8.7 2.10742C12.8 2.10742 16.1 4.60742 16.7 8.30742C16.8 8.70742 16.5 9.00742 16.1 9.00742H13.5C13.2 9.00742 13 8.80742 12.9 8.50742C12.4 6.60742 10.8 5.40742 8.7 5.40742C5.8 5.40742 4 7.90742 4 11.9074C4 15.9074 5.8 18.4074 8.8 18.4074C10.9 18.4074 12.4 17.3074 13 15.5074C13.1 15.2074 13.3 15.0074 13.6 15.0074H16.2C16.6 15.0074 16.9 15.4074 16.8 15.7074C16.2 19.3074 13 21.7074 8.8 21.7074C3.3 21.7074 0 17.9074 0 11.9074Z" fill="#1E212C"/>
<path d="M24.2997 21.2077H21.3997C21.0997 21.2077 20.8997 21.0077 20.8997 20.7077V3.40768C20.8997 3.00768 21.2997 2.60768 21.6997 2.60768H28.6997C32.7997 2.60768 35.2997 4.90768 35.2997 8.50768C35.2997 10.6077 34.2997 12.5077 32.5997 13.5077C32.1997 13.7077 32.0997 14.2077 32.2997 14.5077L35.3997 20.4077C35.5997 20.7077 35.2997 21.1077 34.9997 21.1077H31.6997C31.4997 21.1077 31.2997 21.0077 31.1997 20.8077L28.2997 14.8077C28.1997 14.5077 27.8997 14.4077 27.5997 14.4077H25.2997C24.9997 14.4077 24.7997 14.6077 24.7997 14.9077V20.8077C24.8997 21.0077 24.5997 21.2077 24.2997 21.2077ZM24.8997 11.0077C24.8997 11.3077 25.0997 11.5077 25.3997 11.5077H28.3997C30.3997 11.5077 31.4997 10.4077 31.4997 8.60768C31.4997 6.80768 30.2997 5.70768 28.3997 5.70768H25.4997C25.1997 5.70768 24.9997 5.90768 24.9997 6.20768V11.0077H24.8997Z" fill="#1E212C"/>
<path d="M51.4998 21.2077H40.4998C40.0998 21.2077 39.7998 20.9077 39.7998 20.5077V3.30768C39.7998 2.90768 40.0998 2.60768 40.4998 2.60768H51.4998C51.8998 2.60768 52.1998 2.90768 52.1998 3.30768V5.20768C52.1998 5.60768 51.8998 5.90768 51.4998 5.90768H44.1998C43.8998 5.90768 43.6998 6.10768 43.6998 6.40768V9.80768C43.6998 10.1077 43.8998 10.3077 44.1998 10.3077H50.9998C51.3998 10.3077 51.6998 10.6077 51.6998 11.0077V12.7077C51.6998 13.1077 51.3998 13.4077 50.9998 13.4077H44.1998C43.8998 13.4077 43.6998 13.6077 43.6998 13.9077V17.7077C43.6998 18.0077 43.8998 18.2077 44.1998 18.2077H51.4998C51.8998 18.2077 52.1998 18.5077 52.1998 18.9077V20.8077C52.1998 20.9077 51.8998 21.2077 51.4998 21.2077Z" fill="#1E212C"/>
<path d="M66.9999 16.7077H61.2999C60.9999 16.7077 60.7999 16.9077 60.6999 17.1077L59.5999 20.8077C59.4999 21.1077 59.2999 21.2077 58.9999 21.2077H56.3999C55.9999 21.2077 55.6999 20.8077 55.7999 20.4077L61.7999 3.00768C61.8999 2.80768 62.0999 2.60768 62.3999 2.60768H66.0999C66.3999 2.60768 66.5999 2.80768 66.6999 3.00768L72.6999 20.4077C72.7999 20.8077 72.4999 21.2077 72.0999 21.2077H69.1999C68.8999 21.2077 68.6999 21.0077 68.5999 20.8077L67.4999 17.1077C67.4999 16.9077 67.1999 16.7077 66.9999 16.7077ZM62.0999 13.8077H66.1999C66.3999 13.8077 66.4999 13.6077 66.4999 13.4077L64.2999 6.40768H64.0999L61.8999 13.4077C61.7999 13.6077 61.8999 13.8077 62.0999 13.8077Z" fill="#1E212C"/>
<path d="M79.0001 20.5081V6.30807C79.0001 6.00807 78.8001 5.80807 78.5001 5.80807H74.1001C73.7001 5.80807 73.3001 5.50807 73.3001 5.00807V3.30807C73.3001 2.90807 73.6001 2.50807 74.1001 2.50807H87.7001C88.1001 2.50807 88.5001 2.80807 88.5001 3.30807V5.00807C88.5001 5.40807 88.2001 5.80807 87.7001 5.80807H83.3001C83.0001 5.80807 82.8001 6.00807 82.8001 6.30807V20.6081C82.8001 21.0081 82.5001 21.3081 82.1001 21.3081H79.6001C79.3001 21.2081 79.0001 20.9081 79.0001 20.5081Z" fill="#1E212C"/>
<path d="M103.8 21.2077H92.7999C92.3999 21.2077 92.0999 20.9077 92.0999 20.5077V3.30768C92.0999 2.90768 92.3999 2.60768 92.7999 2.60768H103.8C104.2 2.60768 104.5 2.90768 104.5 3.30768V5.20768C104.5 5.60768 104.2 5.90768 103.8 5.90768H96.4999C96.1999 5.90768 95.9999 6.10768 95.9999 6.40768V9.80768C95.9999 10.1077 96.1999 10.3077 96.4999 10.3077H103.3C103.7 10.3077 104 10.6077 104 11.0077V12.7077C104 13.1077 103.7 13.4077 103.3 13.4077H96.4999C96.1999 13.4077 95.9999 13.6077 95.9999 13.9077V17.7077C95.9999 18.0077 96.1999 18.2077 96.4999 18.2077H103.8C104.2 18.2077 104.5 18.5077 104.5 18.9077V20.8077C104.5 20.9077 104.2 21.2077 103.8 21.2077Z" fill="#1E212C"/>
<path d="M117.7 10.5076L111.5 2.40762C111.1 2.00762 110.6 1.80762 110.1 1.80762C109.6 1.80762 109.1 2.00762 108.7 2.40762C108 3.20762 108 4.40762 108.7 5.20762L113.6 11.8076L108.7 18.4076C108 19.2076 108 20.4076 108.7 21.2076C109.1 21.6076 109.6 21.8076 110.1 21.8076C110.6 21.8076 111.1 21.6076 111.5 21.2076L117.7 13.1076C118.4 12.5076 118.4 11.3076 117.7 10.5076Z" fill="#FF3F3A"/>
<path d="M120.343 10.5076L126.543 2.40762C126.943 2.00762 127.443 1.80762 127.943 1.80762C128.443 1.80762 128.943 2.00762 129.343 2.40762C130.043 3.20762 130.043 4.40762 129.343 5.20762L124.443 11.8076L129.343 18.4076C130.043 19.2076 130.043 20.4076 129.343 21.2076C128.943 21.6076 128.443 21.8076 127.943 21.8076C127.443 21.8076 126.943 21.6076 126.543 21.2076L120.343 13.1076C119.643 12.5076 119.643 11.3076 120.343 10.5076Z" fill="#FF3F3A"/>
</g>
<defs>
<clipPath id="clip0_50748_1634">
<rect width="130" height="22" fill="white" transform="translate(0 0.807617)"/>
</clipPath>
</defs>
</svg>
